<svg width="343" height="216" viewBox="0 0 343 216" fill="none" xmlns="http://www.w3.org/2000/svg">
<path d="M32.6613 19.27V29H31.0653V22.336L28.0973 29H26.9913L24.0093 22.336V29H22.4133V19.27H24.1353L27.5513 26.9L30.9533 19.27H32.6613ZM38.105 29.126C37.377 29.126 36.719 28.9627 36.131 28.636C35.543 28.3 35.081 27.8333 34.745 27.236C34.409 26.6293 34.241 25.9293 34.241 25.136C34.241 24.352 34.4137 23.6567 34.759 23.05C35.1043 22.4433 35.5757 21.9767 36.173 21.65C36.7703 21.3233 37.4377 21.16 38.175 21.16C38.9123 21.16 39.5797 21.3233 40.177 21.65C40.7743 21.9767 41.2457 22.4433 41.591 23.05C41.9363 23.6567 42.109 24.352 42.109 25.136C42.109 25.92 41.9317 26.6153 41.577 27.222C41.2223 27.8287 40.737 28.3 40.121 28.636C39.5143 28.9627 38.8423 29.126 38.105 29.126ZM38.105 27.74C38.5157 27.74 38.8983 27.642 39.253 27.446C39.617 27.25 39.911 26.956 40.135 26.564C40.359 26.172 40.471 25.696 40.471 25.136C40.471 24.576 40.3637 24.1047 40.149 23.722C39.9343 23.33 39.6497 23.036 39.295 22.84C38.9403 22.644 38.5577 22.546 38.147 22.546C37.7363 22.546 37.3537 22.644 36.999 22.84C36.6537 23.036 36.3783 23.33 36.173 23.722C35.9677 24.1047 35.865 24.576 35.865 25.136C35.865 25.9667 36.075 26.6107 36.495 27.068C36.9243 27.516 37.461 27.74 38.105 27.74Z" fill="#334155"/>
<path d="M77.3389 19.27V20.572H74.7489V29H73.1529V20.572H70.5489V19.27H77.3389ZM85.9413 21.286V29H84.3453V28.09C84.0933 28.4073 83.7619 28.6593 83.3513 28.846C82.9499 29.0233 82.5206 29.112 82.0633 29.112C81.4566 29.112 80.9106 28.986 80.4253 28.734C79.9493 28.482 79.5713 28.1087 79.2913 27.614C79.0206 27.1193 78.8853 26.522 78.8853 25.822V21.286H80.4673V25.584C80.4673 26.2747 80.6399 26.8067 80.9853 27.18C81.3306 27.544 81.8019 27.726 82.3993 27.726C82.9966 27.726 83.4679 27.544 83.8133 27.18C84.1679 26.8067 84.3453 26.2747 84.3453 25.584V21.286H85.9413Z" fill="#334155"/>
<path d="M127.407 19.27L124.523 29H122.717L120.673 21.636L118.503 29L116.711 29.014L113.953 19.27H115.647L117.663 27.194L119.847 19.27H121.639L123.669 27.152L125.699 19.27H127.407ZM135.793 24.954C135.793 25.2433 135.774 25.5047 135.737 25.738H129.843C129.89 26.354 130.118 26.8487 130.529 27.222C130.94 27.5953 131.444 27.782 132.041 27.782C132.9 27.782 133.506 27.4227 133.861 26.704H135.583C135.35 27.4133 134.925 27.9967 134.309 28.454C133.702 28.902 132.946 29.126 132.041 29.126C131.304 29.126 130.641 28.9627 130.053 28.636C129.474 28.3 129.017 27.8333 128.681 27.236C128.354 26.6293 128.191 25.9293 128.191 25.136C128.191 24.3427 128.35 23.6473 128.667 23.05C128.994 22.4433 129.446 21.9767 130.025 21.65C130.613 21.3233 131.285 21.16 132.041 21.16C132.769 21.16 133.418 21.3187 133.987 21.636C134.556 21.9533 135 22.4013 135.317 22.98C135.634 23.5493 135.793 24.2073 135.793 24.954ZM134.127 24.45C134.118 23.862 133.908 23.3907 133.497 23.036C133.086 22.6813 132.578 22.504 131.971 22.504C131.42 22.504 130.949 22.6813 130.557 23.036C130.165 23.3813 129.932 23.8527 129.857 24.45H134.127Z" fill="#334155"/>
<path d="M170.339 19.27V20.572H167.749V29H166.153V20.572H163.549V19.27H170.339ZM175.945 21.16C176.533 21.16 177.056 21.286 177.513 21.538C177.98 21.79 178.344 22.1633 178.605 22.658C178.876 23.1527 179.011 23.75 179.011 24.45V29H177.429V24.688C177.429 23.9973 177.257 23.47 176.911 23.106C176.566 22.7327 176.095 22.546 175.497 22.546C174.9 22.546 174.424 22.7327 174.069 23.106C173.724 23.47 173.551 23.9973 173.551 24.688V29H171.955V18.64H173.551V22.182C173.822 21.8553 174.163 21.6033 174.573 21.426C174.993 21.2487 175.451 21.16 175.945 21.16Z" fill="#334155"/>
<path d="M218.487 19.27V20.572H214.357V23.442H217.577V24.744H214.357V29H212.761V19.27H218.487ZM221.562 22.406C221.795 22.014 222.103 21.7107 222.486 21.496C222.878 21.272 223.34 21.16 223.872 21.16V22.812H223.466C222.841 22.812 222.365 22.9707 222.038 23.288C221.721 23.6053 221.562 24.156 221.562 24.94V29H219.966V21.286H221.562V22.406Z" fill="#334155"/>
<path d="M259.787 29.098C259.134 29.098 258.546 28.986 258.023 28.762C257.501 28.5287 257.09 28.202 256.791 27.782C256.493 27.362 256.343 26.872 256.343 26.312H258.051C258.089 26.732 258.252 27.0773 258.541 27.348C258.84 27.6187 259.255 27.754 259.787 27.754C260.338 27.754 260.767 27.6233 261.075 27.362C261.383 27.0913 261.537 26.746 261.537 26.326C261.537 25.9993 261.439 25.7333 261.243 25.528C261.057 25.3227 260.819 25.164 260.529 25.052C260.249 24.94 259.857 24.8187 259.353 24.688C258.719 24.52 258.201 24.352 257.799 24.184C257.407 24.0067 257.071 23.736 256.791 23.372C256.511 23.008 256.371 22.5227 256.371 21.916C256.371 21.356 256.511 20.866 256.791 20.446C257.071 20.026 257.463 19.704 257.967 19.48C258.471 19.256 259.055 19.144 259.717 19.144C260.66 19.144 261.43 19.382 262.027 19.858C262.634 20.3247 262.97 20.9687 263.035 21.79H261.271C261.243 21.4353 261.075 21.132 260.767 20.88C260.459 20.628 260.053 20.502 259.549 20.502C259.092 20.502 258.719 20.6187 258.429 20.852C258.14 21.0853 257.995 21.4213 257.995 21.86C257.995 22.1587 258.084 22.406 258.261 22.602C258.448 22.7887 258.681 22.938 258.961 23.05C259.241 23.162 259.624 23.2833 260.109 23.414C260.753 23.5913 261.276 23.7687 261.677 23.946C262.088 24.1233 262.433 24.3987 262.713 24.772C263.003 25.136 263.147 25.626 263.147 26.242C263.147 26.7367 263.012 27.2033 262.741 27.642C262.48 28.0807 262.093 28.4353 261.579 28.706C261.075 28.9673 260.478 29.098 259.787 29.098ZM264.498 25.108C264.498 24.3333 264.657 23.6473 264.974 23.05C265.301 22.4527 265.74 21.9907 266.29 21.664C266.85 21.328 267.466 21.16 268.138 21.16C268.745 21.16 269.272 21.2813 269.72 21.524C270.178 21.7573 270.542 22.0513 270.812 22.406V21.286H272.422V29H270.812V27.852C270.542 28.216 270.173 28.5193 269.706 28.762C269.24 29.0047 268.708 29.126 268.11 29.126C267.448 29.126 266.841 28.958 266.29 28.622C265.74 28.2767 265.301 27.8007 264.974 27.194C264.657 26.578 264.498 25.8827 264.498 25.108ZM270.812 25.136C270.812 24.604 270.7 24.142 270.476 23.75C270.262 23.358 269.977 23.0593 269.622 22.854C269.268 22.6487 268.885 22.546 268.474 22.546C268.064 22.546 267.681 22.6487 267.326 22.854C266.972 23.05 266.682 23.344 266.458 23.736C266.244 24.1187 266.136 24.576 266.136 25.108C266.136 25.64 266.244 26.1067 266.458 26.508C266.682 26.9093 266.972 27.2173 267.326 27.432C267.69 27.6373 268.073 27.74 268.474 27.74C268.885 27.74 269.268 27.6373 269.622 27.432C269.977 27.2267 270.262 26.928 270.476 26.536C270.7 26.1347 270.812 25.668 270.812 25.136Z" fill="#334155"/>
<path d="M306.485 29.098C305.832 29.098 305.244 28.986 304.721 28.762C304.199 28.5287 303.788 28.202 303.489 27.782C303.191 27.362 303.041 26.872 303.041 26.312H304.749C304.787 26.732 304.95 27.0773 305.239 27.348C305.538 27.6187 305.953 27.754 306.485 27.754C307.036 27.754 307.465 27.6233 307.773 27.362C308.081 27.0913 308.235 26.746 308.235 26.326C308.235 25.9993 308.137 25.7333 307.941 25.528C307.755 25.3227 307.517 25.164 307.227 25.052C306.947 24.94 306.555 24.8187 306.051 24.688C305.417 24.52 304.899 24.352 304.497 24.184C304.105 24.0067 303.769 23.736 303.489 23.372C303.209 23.008 303.069 22.5227 303.069 21.916C303.069 21.356 303.209 20.866 303.489 20.446C303.769 20.026 304.161 19.704 304.665 19.48C305.169 19.256 305.753 19.144 306.415 19.144C307.358 19.144 308.128 19.382 308.725 19.858C309.332 20.3247 309.668 20.9687 309.733 21.79H307.969C307.941 21.4353 307.773 21.132 307.465 20.88C307.157 20.628 306.751 20.502 306.247 20.502C305.79 20.502 305.417 20.6187 305.127 20.852C304.838 21.0853 304.693 21.4213 304.693 21.86C304.693 22.1587 304.782 22.406 304.959 22.602C305.146 22.7887 305.379 22.938 305.659 23.05C305.939 23.162 306.322 23.2833 306.807 23.414C307.451 23.5913 307.974 23.7687 308.375 23.946C308.786 24.1233 309.131 24.3987 309.411 24.772C309.701 25.136 309.845 25.626 309.845 26.242C309.845 26.7367 309.71 27.2033 309.439 27.642C309.178 28.0807 308.791 28.4353 308.277 28.706C307.773 28.9673 307.176 29.098 306.485 29.098ZM318.715 21.286V29H317.119V28.09C316.867 28.4073 316.535 28.6593 316.125 28.846C315.723 29.0233 315.294 29.112 314.837 29.112C314.23 29.112 313.684 28.986 313.199 28.734C312.723 28.482 312.345 28.1087 312.065 27.614C311.794 27.1193 311.659 26.522 311.659 25.822V21.286H313.241V25.584C313.241 26.2747 313.413 26.8067 313.759 27.18C314.104 27.544 314.575 27.726 315.173 27.726C315.77 27.726 316.241 27.544 316.587 27.18C316.941 26.8067 317.119 26.2747 317.119 25.584V21.286H318.715Z" fill="#334155"/>
<path d="M25.4192 57.508C25.4752 56.772 25.7592 56.196 26.2712 55.78C26.7832 55.364 27.4472 55.156 28.2632 55.156C28.8072 55.156 29.2752 55.256 29.6672 55.456C30.0672 55.648 30.3672 55.912 30.5672 56.248C30.7752 56.584 30.8792 56.964 30.8792 57.388C30.8792 57.884 30.7352 58.312 30.4472 58.672C30.1672 59.032 29.7992 59.264 29.3432 59.368V59.428C29.8632 59.556 30.2752 59.808 30.5792 60.184C30.8832 60.56 31.0352 61.052 31.0352 61.66C31.0352 62.116 30.9312 62.528 30.7232 62.896C30.5152 63.256 30.2032 63.54 29.7872 63.748C29.3712 63.956 28.8712 64.06 28.2872 64.06C27.4392 64.06 26.7432 63.84 26.1992 63.4C25.6552 62.952 25.3512 62.32 25.2872 61.504H26.3432C26.3992 61.984 26.5952 62.376 26.9312 62.68C27.2672 62.984 27.7152 63.136 28.2752 63.136C28.8352 63.136 29.2592 62.992 29.5472 62.704C29.8432 62.408 29.9912 62.028 29.9912 61.564C29.9912 60.964 29.7912 60.532 29.3912 60.268C28.9912 60.004 28.3872 59.872 27.5792 59.872H27.3032V58.96H27.5912C28.3272 58.952 28.8832 58.832 29.2592 58.6C29.6352 58.36 29.8232 57.992 29.8232 57.496C29.8232 57.072 29.6832 56.732 29.4032 56.476C29.1312 56.22 28.7392 56.092 28.2272 56.092C27.7312 56.092 27.3312 56.22 27.0272 56.476C26.7232 56.732 26.5432 57.076 26.4872 57.508H25.4192ZM32.5096 59.572C32.5096 58.196 32.7336 57.124 33.1816 56.356C33.6296 55.58 34.4136 55.192 35.5336 55.192C36.6456 55.192 37.4256 55.58 37.8736 56.356C38.3216 57.124 38.5456 58.196 38.5456 59.572C38.5456 60.972 38.3216 62.06 37.8736 62.836C37.4256 63.612 36.6456 64 35.5336 64C34.4136 64 33.6296 63.612 33.1816 62.836C32.7336 62.06 32.5096 60.972 32.5096 59.572ZM37.4656 59.572C37.4656 58.876 37.4176 58.288 37.3216 57.808C37.2336 57.32 37.0456 56.928 36.7576 56.632C36.4776 56.336 36.0696 56.188 35.5336 56.188C34.9896 56.188 34.5736 56.336 34.2856 56.632C34.0056 56.928 33.8176 57.32 33.7216 57.808C33.6336 58.288 33.5896 58.876 33.5896 59.572C33.5896 60.292 33.6336 60.896 33.7216 61.384C33.8176 61.872 34.0056 62.264 34.2856 62.56C34.5736 62.856 34.9896 63.004 35.5336 63.004C36.0696 63.004 36.4776 62.856 36.7576 62.56C37.0456 62.264 37.2336 61.872 37.3216 61.384C37.4176 60.896 37.4656 60.292 37.4656 59.572Z" fill="#CBD5E1"/>
<path d="M77.0341 56.32V55.324H79.2901V64H78.1861V56.32H77.0341Z" fill="#334155"/>
<path d="M122.161 63.124C123.177 62.308 123.973 61.64 124.549 61.12C125.125 60.592 125.609 60.044 126.001 59.476C126.401 58.9 126.601 58.336 126.601 57.784C126.601 57.264 126.473 56.856 126.217 56.56C125.969 56.256 125.565 56.104 125.005 56.104C124.461 56.104 124.037 56.276 123.733 56.62C123.437 56.956 123.277 57.408 123.253 57.976H122.197C122.229 57.08 122.501 56.388 123.013 55.9C123.525 55.412 124.185 55.168 124.993 55.168C125.817 55.168 126.469 55.396 126.949 55.852C127.437 56.308 127.681 56.936 127.681 57.736C127.681 58.4 127.481 59.048 127.081 59.68C126.689 60.304 126.241 60.856 125.737 61.336C125.233 61.808 124.589 62.36 123.805 62.992H127.933V63.904H122.161V63.124Z" fill="#334155"/>
<path d="M168.687 57.508C168.743 56.772 169.027 56.196 169.539 55.78C170.051 55.364 170.715 55.156 171.531 55.156C172.075 55.156 172.543 55.256 172.935 55.456C173.335 55.648 173.635 55.912 173.835 56.248C174.043 56.584 174.147 56.964 174.147 57.388C174.147 57.884 174.003 58.312 173.715 58.672C173.435 59.032 173.067 59.264 172.611 59.368V59.428C173.131 59.556 173.543 59.808 173.847 60.184C174.151 60.56 174.303 61.052 174.303 61.66C174.303 62.116 174.199 62.528 173.991 62.896C173.783 63.256 173.471 63.54 173.055 63.748C172.639 63.956 172.139 64.06 171.555 64.06C170.707 64.06 170.011 63.84 169.467 63.4C168.923 62.952 168.619 62.32 168.555 61.504H169.611C169.667 61.984 169.863 62.376 170.199 62.68C170.535 62.984 170.983 63.136 171.543 63.136C172.103 63.136 172.527 62.992 172.815 62.704C173.111 62.408 173.259 62.028 173.259 61.564C173.259 60.964 173.059 60.532 172.659 60.268C172.259 60.004 171.655 59.872 170.847 59.872H170.571V58.96H170.859C171.595 58.952 172.151 58.832 172.527 58.6C172.903 58.36 173.091 57.992 173.091 57.496C173.091 57.072 172.951 56.732 172.671 56.476C172.399 56.22 172.007 56.092 171.495 56.092C170.999 56.092 170.599 56.22 170.295 56.476C169.991 56.732 169.811 57.076 169.755 57.508H168.687Z" fill="#334155"/>
<path d="M214.707 62.068V61.24L218.919 55.408H220.227V61.12H221.427V62.068H220.227V64H219.147V62.068H214.707ZM219.195 56.548L215.967 61.12H219.195V56.548Z" fill="#334155"/>
<path d="M267.008 56.272H262.796V59.008C262.98 58.752 263.252 58.544 263.612 58.384C263.972 58.216 264.36 58.132 264.776 58.132C265.44 58.132 265.98 58.272 266.396 58.552C266.812 58.824 267.108 59.18 267.284 59.62C267.468 60.052 267.56 60.512 267.56 61C267.56 61.576 267.452 62.092 267.236 62.548C267.02 63.004 266.688 63.364 266.24 63.628C265.8 63.892 265.252 64.024 264.596 64.024C263.756 64.024 263.076 63.808 262.556 63.376C262.036 62.944 261.72 62.368 261.608 61.648H262.676C262.78 62.104 263 62.46 263.336 62.716C263.672 62.972 264.096 63.1 264.608 63.1C265.24 63.1 265.716 62.912 266.036 62.536C266.356 62.152 266.516 61.648 266.516 61.024C266.516 60.4 266.356 59.92 266.036 59.584C265.716 59.24 265.244 59.068 264.62 59.068C264.196 59.068 263.824 59.172 263.504 59.38C263.192 59.58 262.964 59.856 262.82 60.208H261.788V55.312H267.008V56.272Z" fill="#334155"/>
<rect x="246.5" y="68" width="19" height="8" rx="4" fill="#35BB23" stroke="#F1F5F9" stroke-width="1.5"/>
<rect x="263.5" y="68" width="19" height="8" rx="4" fill="#F45941" stroke="#F1F5F9" stroke-width="1.5"/>
<path d="M312.771 57.388C312.595 56.5 312.047 56.056 311.127 56.056C310.415 56.056 309.883 56.332 309.531 56.884C309.179 57.428 309.007 58.328 309.015 59.584C309.199 59.168 309.503 58.844 309.927 58.612C310.359 58.372 310.839 58.252 311.367 58.252C312.191 58.252 312.847 58.508 313.335 59.02C313.831 59.532 314.079 60.24 314.079 61.144C314.079 61.688 313.971 62.176 313.755 62.608C313.547 63.04 313.227 63.384 312.795 63.64C312.371 63.896 311.855 64.024 311.247 64.024C310.423 64.024 309.779 63.84 309.315 63.472C308.851 63.104 308.527 62.596 308.343 61.948C308.159 61.3 308.067 60.5 308.067 59.548C308.067 56.612 309.091 55.144 311.139 55.144C311.923 55.144 312.539 55.356 312.987 55.78C313.435 56.204 313.699 56.74 313.779 57.388H312.771ZM311.139 59.176C310.795 59.176 310.471 59.248 310.167 59.392C309.863 59.528 309.615 59.74 309.423 60.028C309.239 60.308 309.147 60.652 309.147 61.06C309.147 61.668 309.323 62.164 309.675 62.548C310.027 62.924 310.531 63.112 311.187 63.112C311.747 63.112 312.191 62.94 312.519 62.596C312.855 62.244 313.023 61.772 313.023 61.18C313.023 60.556 312.863 60.068 312.543 59.716C312.223 59.356 311.755 59.176 311.139 59.176Z" fill="#334155"/>
<rect x="293" y="68" width="10.5" height="8" rx="4" fill="#35BB23" stroke="#F1F5F9" stroke-width="1.5"/>
<rect x="301.5" y="68" width="10.5" height="8" rx="4" fill="#E7C828" stroke="#F1F5F9" stroke-width="1.5"/>
<rect x="310" y="68" width="10.5" height="8" rx="4" fill="#F45941" stroke="#F1F5F9" stroke-width="1.5"/>
<rect x="318.5" y="68" width="10.5" height="8" rx="4" fill="#786DEF" stroke="#F1F5F9" stroke-width="1.5"/>
<path d="M34.8086 88.176L31.4726 96H30.3686L33.7526 88.284H29.1206V87.348H34.8086V88.176Z" fill="#334155"/>
<path d="M77.0428 91.488C76.5948 91.312 76.2508 91.056 76.0108 90.72C75.7708 90.384 75.6508 89.976 75.6508 89.496C75.6508 89.064 75.7588 88.676 75.9748 88.332C76.1908 87.98 76.5108 87.704 76.9348 87.504C77.3668 87.296 77.8868 87.192 78.4948 87.192C79.1028 87.192 79.6188 87.296 80.0428 87.504C80.4748 87.704 80.7988 87.98 81.0148 88.332C81.2388 88.676 81.3508 89.064 81.3508 89.496C81.3508 89.96 81.2268 90.368 80.9788 90.72C80.7308 91.064 80.3908 91.32 79.9588 91.488C80.4548 91.64 80.8468 91.908 81.1348 92.292C81.4308 92.668 81.5788 93.124 81.5788 93.66C81.5788 94.18 81.4508 94.636 81.1948 95.028C80.9388 95.412 80.5748 95.712 80.1028 95.928C79.6388 96.136 79.1028 96.24 78.4948 96.24C77.8868 96.24 77.3508 96.136 76.8868 95.928C76.4308 95.712 76.0748 95.412 75.8188 95.028C75.5628 94.636 75.4348 94.18 75.4348 93.66C75.4348 93.124 75.5788 92.664 75.8668 92.28C76.1548 91.896 76.5468 91.632 77.0428 91.488ZM80.2948 89.628C80.2948 89.14 80.1348 88.764 79.8148 88.5C79.4948 88.236 79.0548 88.104 78.4948 88.104C77.9428 88.104 77.5068 88.236 77.1868 88.5C76.8668 88.764 76.7068 89.144 76.7068 89.64C76.7068 90.088 76.8708 90.448 77.1988 90.72C77.5348 90.992 77.9668 91.128 78.4948 91.128C79.0308 91.128 79.4628 90.992 79.7908 90.72C80.1268 90.44 80.2948 90.076 80.2948 89.628ZM78.4948 91.968C77.9028 91.968 77.4188 92.108 77.0428 92.388C76.6668 92.66 76.4788 93.072 76.4788 93.624C76.4788 94.136 76.6588 94.548 77.0188 94.86C77.3868 95.172 77.8788 95.328 78.4948 95.328C79.1108 95.328 79.5988 95.172 79.9588 94.86C80.3188 94.548 80.4988 94.136 80.4988 93.624C80.4988 93.088 80.3148 92.68 79.9468 92.4C79.5788 92.112 79.0948 91.968 78.4948 91.968Z" fill="#334155"/>
<path d="M123.369 93.672C123.449 94.128 123.633 94.48 123.921 94.728C124.217 94.976 124.613 95.1 125.109 95.1C125.773 95.1 126.261 94.84 126.573 94.32C126.893 93.8 127.045 92.924 127.029 91.692C126.861 92.052 126.581 92.336 126.189 92.544C125.797 92.744 125.361 92.844 124.881 92.844C124.345 92.844 123.865 92.736 123.441 92.52C123.025 92.296 122.697 91.972 122.457 91.548C122.217 91.124 122.097 90.612 122.097 90.012C122.097 89.156 122.345 88.468 122.841 87.948C123.337 87.42 124.041 87.156 124.953 87.156C126.073 87.156 126.857 87.52 127.305 88.248C127.761 88.976 127.989 90.06 127.989 91.5C127.989 92.508 127.897 93.34 127.713 93.996C127.537 94.652 127.233 95.152 126.801 95.496C126.377 95.84 125.793 96.012 125.049 96.012C124.233 96.012 123.597 95.792 123.141 95.352C122.685 94.912 122.425 94.352 122.361 93.672H123.369ZM125.061 91.92C125.597 91.92 126.037 91.756 126.381 91.428C126.725 91.092 126.897 90.64 126.897 90.072C126.897 89.472 126.729 88.988 126.393 88.62C126.057 88.252 125.585 88.068 124.977 88.068C124.417 88.068 123.969 88.244 123.633 88.596C123.305 88.948 123.141 89.412 123.141 89.988C123.141 90.572 123.305 91.04 123.633 91.392C123.961 91.744 124.437 91.92 125.061 91.92Z" fill="#334155"/>
<path d="M166.267 88.32V87.324H168.523V96H167.419V88.32H166.267ZM170.398 91.572C170.398 90.196 170.622 89.124 171.07 88.356C171.518 87.58 172.302 87.192 173.422 87.192C174.534 87.192 175.314 87.58 175.762 88.356C176.21 89.124 176.434 90.196 176.434 91.572C176.434 92.972 176.21 94.06 175.762 94.836C175.314 95.612 174.534 96 173.422 96C172.302 96 171.518 95.612 171.07 94.836C170.622 94.06 170.398 92.972 170.398 91.572ZM175.354 91.572C175.354 90.876 175.306 90.288 175.21 89.808C175.122 89.32 174.934 88.928 174.646 88.632C174.366 88.336 173.958 88.188 173.422 88.188C172.878 88.188 172.462 88.336 172.174 88.632C171.894 88.928 171.706 89.32 171.61 89.808C171.522 90.288 171.478 90.876 171.478 91.572C171.478 92.292 171.522 92.896 171.61 93.384C171.706 93.872 171.894 94.264 172.174 94.56C172.462 94.856 172.878 95.004 173.422 95.004C173.958 95.004 174.366 94.856 174.646 94.56C174.934 94.264 175.122 93.872 175.21 93.384C175.306 92.896 175.354 92.292 175.354 91.572Z" fill="#334155"/>
<path d="M214.612 88.32V87.324H216.868V96H215.764V88.32H214.612ZM218.456 88.32V87.324H220.712V96H219.608V88.32H218.456Z" fill="#334155"/>
<rect x="200" y="100" width="36" height="8" rx="4" fill="#35BB23" stroke="#F1F5F9" stroke-width="1.5"/>
<path d="M259.583 88.32V87.324H261.839V96H260.735V88.32H259.583ZM263.583 95.124C264.599 94.308 265.395 93.64 265.971 93.12C266.547 92.592 267.031 92.044 267.423 91.476C267.823 90.9 268.023 90.336 268.023 89.784C268.023 89.264 267.895 88.856 267.639 88.56C267.391 88.256 266.987 88.104 266.427 88.104C265.883 88.104 265.459 88.276 265.155 88.62C264.859 88.956 264.699 89.408 264.675 89.976H263.619C263.651 89.08 263.923 88.388 264.435 87.9C264.947 87.412 265.607 87.168 266.415 87.168C267.239 87.168 267.891 87.396 268.371 87.852C268.859 88.308 269.103 88.936 269.103 89.736C269.103 90.4 268.903 91.048 268.503 91.68C268.111 92.304 267.663 92.856 267.159 93.336C266.655 93.808 266.011 94.36 265.227 94.992H269.355V95.904H263.583V95.124Z" fill="#334155"/>
<path d="M306.001 88.32V87.324H308.257V96H307.153V88.32H306.001ZM310.109 89.508C310.165 88.772 310.449 88.196 310.961 87.78C311.473 87.364 312.137 87.156 312.953 87.156C313.497 87.156 313.965 87.256 314.357 87.456C314.757 87.648 315.057 87.912 315.257 88.248C315.465 88.584 315.569 88.964 315.569 89.388C315.569 89.884 315.425 90.312 315.137 90.672C314.857 91.032 314.489 91.264 314.033 91.368V91.428C314.553 91.556 314.965 91.808 315.269 92.184C315.573 92.56 315.725 93.052 315.725 93.66C315.725 94.116 315.621 94.528 315.413 94.896C315.205 95.256 314.893 95.54 314.477 95.748C314.061 95.956 313.561 96.06 312.977 96.06C312.129 96.06 311.433 95.84 310.889 95.4C310.345 94.952 310.041 94.32 309.977 93.504H311.033C311.089 93.984 311.285 94.376 311.621 94.68C311.957 94.984 312.405 95.136 312.965 95.136C313.525 95.136 313.949 94.992 314.237 94.704C314.533 94.408 314.681 94.028 314.681 93.564C314.681 92.964 314.481 92.532 314.081 92.268C313.681 92.004 313.077 91.872 312.269 91.872H311.993V90.96H312.281C313.017 90.952 313.573 90.832 313.949 90.6C314.325 90.36 314.513 89.992 314.513 89.496C314.513 89.072 314.373 88.732 314.093 88.476C313.821 88.22 313.429 88.092 312.917 88.092C312.421 88.092 312.021 88.22 311.717 88.476C311.413 88.732 311.233 89.076 311.177 89.508H310.109Z" fill="#334155"/>
<path d="M26.7607 120.32V119.324H29.0167V128H27.9127V120.32H26.7607ZM30.6284 126.068V125.24L34.8404 119.408H36.1484V125.12H37.3484V126.068H36.1484V128H35.0684V126.068H30.6284ZM35.1164 120.548L31.8884 125.12H35.1164V120.548Z" fill="#334155"/>
<rect x="14" y="132" width="13.3333" height="8" rx="4" fill="#35BB23" stroke="#F1F5F9" stroke-width="1.5"/>
<rect x="25.333" y="132" width="13.3333" height="8" rx="4" fill="#E7C828" stroke="#F1F5F9" stroke-width="1.5"/>
<rect x="36.667" y="132" width="13.3333" height="8" rx="4" fill="#F45941" stroke="#F1F5F9" stroke-width="1.5"/>
<path d="M73.2665 120.32V119.324H75.5225V128H74.4185V120.32H73.2665ZM82.9303 120.272H78.7183V123.008C78.9023 122.752 79.1743 122.544 79.5343 122.384C79.8943 122.216 80.2823 122.132 80.6983 122.132C81.3623 122.132 81.9023 122.272 82.3183 122.552C82.7343 122.824 83.0303 123.18 83.2063 123.62C83.3903 124.052 83.4823 124.512 83.4823 125C83.4823 125.576 83.3743 126.092 83.1583 126.548C82.9423 127.004 82.6103 127.364 82.1623 127.628C81.7223 127.892 81.1743 128.024 80.5183 128.024C79.6783 128.024 78.9983 127.808 78.4783 127.376C77.9583 126.944 77.6423 126.368 77.5303 125.648H78.5983C78.7023 126.104 78.9223 126.46 79.2583 126.716C79.5943 126.972 80.0183 127.1 80.5303 127.1C81.1623 127.1 81.6383 126.912 81.9583 126.536C82.2783 126.152 82.4383 125.648 82.4383 125.024C82.4383 124.4 82.2783 123.92 81.9583 123.584C81.6383 123.24 81.1663 123.068 80.5423 123.068C80.1183 123.068 79.7463 123.172 79.4263 123.38C79.1143 123.58 78.8863 123.856 78.7423 124.208H77.7103V119.312H82.9303V120.272Z" fill="#334155"/>
<path d="M119.726 120.32V119.324H121.982V128H120.878V120.32H119.726ZM128.693 121.388C128.517 120.5 127.969 120.056 127.049 120.056C126.337 120.056 125.805 120.332 125.453 120.884C125.101 121.428 124.929 122.328 124.937 123.584C125.121 123.168 125.425 122.844 125.849 122.612C126.281 122.372 126.761 122.252 127.289 122.252C128.113 122.252 128.769 122.508 129.257 123.02C129.753 123.532 130.001 124.24 130.001 125.144C130.001 125.688 129.893 126.176 129.677 126.608C129.469 127.04 129.149 127.384 128.717 127.64C128.293 127.896 127.777 128.024 127.169 128.024C126.345 128.024 125.701 127.84 125.237 127.472C124.773 127.104 124.449 126.596 124.265 125.948C124.081 125.3 123.989 124.5 123.989 123.548C123.989 120.612 125.013 119.144 127.061 119.144C127.845 119.144 128.461 119.356 128.909 119.78C129.357 120.204 129.621 120.74 129.701 121.388H128.693ZM127.061 123.176C126.717 123.176 126.393 123.248 126.089 123.392C125.785 123.528 125.537 123.74 125.345 124.028C125.161 124.308 125.069 124.652 125.069 125.06C125.069 125.668 125.245 126.164 125.597 126.548C125.949 126.924 126.453 127.112 127.109 127.112C127.669 127.112 128.113 126.94 128.441 126.596C128.777 126.244 128.945 125.772 128.945 125.18C128.945 124.556 128.785 124.068 128.465 123.716C128.145 123.356 127.677 123.176 127.061 123.176Z" fill="#334155"/>
<path d="M166.759 120.32V119.324H169.015V128H167.911V120.32H166.759ZM176.23 120.176L172.894 128H171.79L175.174 120.284H170.542V119.348H176.23V120.176Z" fill="#334155"/>
<path d="M212.749 120.32V119.324H215.005V128H213.901V120.32H212.749ZM218.465 123.488C218.017 123.312 217.673 123.056 217.433 122.72C217.193 122.384 217.073 121.976 217.073 121.496C217.073 121.064 217.181 120.676 217.397 120.332C217.613 119.98 217.933 119.704 218.357 119.504C218.789 119.296 219.309 119.192 219.917 119.192C220.525 119.192 221.041 119.296 221.465 119.504C221.897 119.704 222.221 119.98 222.437 120.332C222.661 120.676 222.773 121.064 222.773 121.496C222.773 121.96 222.649 122.368 222.401 122.72C222.153 123.064 221.813 123.32 221.381 123.488C221.877 123.64 222.269 123.908 222.557 124.292C222.853 124.668 223.001 125.124 223.001 125.66C223.001 126.18 222.873 126.636 222.617 127.028C222.361 127.412 221.997 127.712 221.525 127.928C221.061 128.136 220.525 128.24 219.917 128.24C219.309 128.24 218.773 128.136 218.309 127.928C217.853 127.712 217.497 127.412 217.241 127.028C216.985 126.636 216.857 126.18 216.857 125.66C216.857 125.124 217.001 124.664 217.289 124.28C217.577 123.896 217.969 123.632 218.465 123.488ZM221.717 121.628C221.717 121.14 221.557 120.764 221.237 120.5C220.917 120.236 220.477 120.104 219.917 120.104C219.365 120.104 218.929 120.236 218.609 120.5C218.289 120.764 218.129 121.144 218.129 121.64C218.129 122.088 218.293 122.448 218.621 122.72C218.957 122.992 219.389 123.128 219.917 123.128C220.453 123.128 220.885 122.992 221.213 122.72C221.549 122.44 221.717 122.076 221.717 121.628ZM219.917 123.968C219.325 123.968 218.841 124.108 218.465 124.388C218.089 124.66 217.901 125.072 217.901 125.624C217.901 126.136 218.081 126.548 218.441 126.86C218.809 127.172 219.301 127.328 219.917 127.328C220.533 127.328 221.021 127.172 221.381 126.86C221.741 126.548 221.921 126.136 221.921 125.624C221.921 125.088 221.737 124.68 221.369 124.4C221.001 124.112 220.517 123.968 219.917 123.968Z" fill="#334155"/>
<path d="M259.255 120.32V119.324H261.511V128H260.407V120.32H259.255ZM264.791 125.672C264.871 126.128 265.055 126.48 265.343 126.728C265.639 126.976 266.035 127.1 266.531 127.1C267.195 127.1 267.683 126.84 267.995 126.32C268.315 125.8 268.467 124.924 268.451 123.692C268.283 124.052 268.003 124.336 267.611 124.544C267.219 124.744 266.783 124.844 266.303 124.844C265.767 124.844 265.287 124.736 264.863 124.52C264.447 124.296 264.119 123.972 263.879 123.548C263.639 123.124 263.519 122.612 263.519 122.012C263.519 121.156 263.767 120.468 264.263 119.948C264.759 119.42 265.463 119.156 266.375 119.156C267.495 119.156 268.279 119.52 268.727 120.248C269.183 120.976 269.411 122.06 269.411 123.5C269.411 124.508 269.319 125.34 269.135 125.996C268.959 126.652 268.655 127.152 268.223 127.496C267.799 127.84 267.215 128.012 266.471 128.012C265.655 128.012 265.019 127.792 264.563 127.352C264.107 126.912 263.847 126.352 263.783 125.672H264.791ZM266.483 123.92C267.019 123.92 267.459 123.756 267.803 123.428C268.147 123.092 268.319 122.64 268.319 122.072C268.319 121.472 268.151 120.988 267.815 120.62C267.479 120.252 267.007 120.068 266.399 120.068C265.839 120.068 265.391 120.244 265.055 120.596C264.727 120.948 264.563 121.412 264.563 121.988C264.563 122.572 264.727 123.04 265.055 123.392C265.383 123.744 265.859 123.92 266.483 123.92Z" fill="#334155"/>
<rect x="291" y="108" width="40" height="32" rx="8" fill="url(#paint0_linear_2470_1430)"/>
<path d="M304.393 127.124C305.409 126.308 306.205 125.64 306.781 125.12C307.357 124.592 307.841 124.044 308.233 123.476C308.633 122.9 308.833 122.336 308.833 121.784C308.833 121.264 308.705 120.856 308.449 120.56C308.201 120.256 307.797 120.104 307.237 120.104C306.693 120.104 306.269 120.276 305.965 120.62C305.669 120.956 305.509 121.408 305.485 121.976H304.429C304.461 121.08 304.733 120.388 305.245 119.9C305.757 119.412 306.417 119.168 307.225 119.168C308.049 119.168 308.701 119.396 309.181 119.852C309.669 120.308 309.913 120.936 309.913 121.736C309.913 122.4 309.713 123.048 309.313 123.68C308.921 124.304 308.473 124.856 307.969 125.336C307.465 125.808 306.821 126.36 306.037 126.992H310.165V127.904H304.393V127.124ZM311.428 123.572C311.428 122.196 311.652 121.124 312.1 120.356C312.548 119.58 313.332 119.192 314.452 119.192C315.564 119.192 316.344 119.58 316.792 120.356C317.24 121.124 317.464 122.196 317.464 123.572C317.464 124.972 317.24 126.06 316.792 126.836C316.344 127.612 315.564 128 314.452 128C313.332 128 312.548 127.612 312.1 126.836C311.652 126.06 311.428 124.972 311.428 123.572ZM316.384 123.572C316.384 122.876 316.336 122.288 316.24 121.808C316.152 121.32 315.964 120.928 315.676 120.632C315.396 120.336 314.988 120.188 314.452 120.188C313.908 120.188 313.492 120.336 313.204 120.632C312.924 120.928 312.736 121.32 312.64 121.808C312.552 122.288 312.508 122.876 312.508 123.572C312.508 124.292 312.552 124.896 312.64 125.384C312.736 125.872 312.924 126.264 313.204 126.56C313.492 126.856 313.908 127.004 314.452 127.004C314.988 127.004 315.396 126.856 315.676 126.56C315.964 126.264 316.152 125.872 316.24 125.384C316.336 124.896 316.384 124.292 316.384 123.572Z" fill="#334155"/>
<path d="M27.239 159.124C28.255 158.308 29.051 157.64 29.627 157.12C30.203 156.592 30.687 156.044 31.079 155.476C31.479 154.9 31.679 154.336 31.679 153.784C31.679 153.264 31.551 152.856 31.295 152.56C31.047 152.256 30.643 152.104 30.083 152.104C29.539 152.104 29.115 152.276 28.811 152.62C28.515 152.956 28.355 153.408 28.331 153.976H27.275C27.307 153.08 27.579 152.388 28.091 151.9C28.603 151.412 29.263 151.168 30.071 151.168C30.895 151.168 31.547 151.396 32.027 151.852C32.515 152.308 32.759 152.936 32.759 153.736C32.759 154.4 32.559 155.048 32.159 155.68C31.767 156.304 31.319 156.856 30.815 157.336C30.311 157.808 29.667 158.36 28.883 158.992H33.011V159.904H27.239V159.124ZM33.9853 152.32V151.324H36.2413V160H35.1373V152.32H33.9853Z" fill="#334155"/>
<path d="M72.2097 159.124C73.2257 158.308 74.0217 157.64 74.5977 157.12C75.1737 156.592 75.6577 156.044 76.0497 155.476C76.4497 154.9 76.6497 154.336 76.6497 153.784C76.6497 153.264 76.5217 152.856 76.2657 152.56C76.0177 152.256 75.6137 152.104 75.0537 152.104C74.5097 152.104 74.0857 152.276 73.7817 152.62C73.4857 152.956 73.3257 153.408 73.3017 153.976H72.2457C72.2777 153.08 72.5497 152.388 73.0617 151.9C73.5737 151.412 74.2337 151.168 75.0417 151.168C75.8657 151.168 76.5177 151.396 76.9977 151.852C77.4857 152.308 77.7297 152.936 77.7297 153.736C77.7297 154.4 77.5297 155.048 77.1297 155.68C76.7377 156.304 76.2897 156.856 75.7857 157.336C75.2817 157.808 74.6377 158.36 73.8537 158.992H77.9817V159.904H72.2097V159.124ZM79.112 159.124C80.128 158.308 80.924 157.64 81.5 157.12C82.076 156.592 82.56 156.044 82.952 155.476C83.352 154.9 83.552 154.336 83.552 153.784C83.552 153.264 83.424 152.856 83.168 152.56C82.92 152.256 82.516 152.104 81.956 152.104C81.412 152.104 80.988 152.276 80.684 152.62C80.388 152.956 80.228 153.408 80.204 153.976H79.148C79.18 153.08 79.452 152.388 79.964 151.9C80.476 151.412 81.136 151.168 81.944 151.168C82.768 151.168 83.42 151.396 83.9 151.852C84.388 152.308 84.632 152.936 84.632 153.736C84.632 154.4 84.432 155.048 84.032 155.68C83.64 156.304 83.192 156.856 82.688 157.336C82.184 157.808 81.54 158.36 80.756 158.992H84.884V159.904H79.112V159.124Z" fill="#334155"/>
<path d="M118.628 159.124C119.644 158.308 120.44 157.64 121.016 157.12C121.592 156.592 122.076 156.044 122.468 155.476C122.868 154.9 123.068 154.336 123.068 153.784C123.068 153.264 122.94 152.856 122.684 152.56C122.436 152.256 122.032 152.104 121.472 152.104C120.928 152.104 120.504 152.276 120.2 152.62C119.904 152.956 119.744 153.408 119.72 153.976H118.664C118.696 153.08 118.968 152.388 119.48 151.9C119.992 151.412 120.652 151.168 121.46 151.168C122.284 151.168 122.936 151.396 123.416 151.852C123.904 152.308 124.148 152.936 124.148 153.736C124.148 154.4 123.948 155.048 123.548 155.68C123.156 156.304 122.708 156.856 122.204 157.336C121.7 157.808 121.056 158.36 120.272 158.992H124.4V159.904H118.628V159.124ZM125.638 153.508C125.694 152.772 125.978 152.196 126.49 151.78C127.002 151.364 127.666 151.156 128.482 151.156C129.026 151.156 129.494 151.256 129.886 151.456C130.286 151.648 130.586 151.912 130.786 152.248C130.994 152.584 131.098 152.964 131.098 153.388C131.098 153.884 130.954 154.312 130.666 154.672C130.386 155.032 130.018 155.264 129.562 155.368V155.428C130.082 155.556 130.494 155.808 130.798 156.184C131.102 156.56 131.254 157.052 131.254 157.66C131.254 158.116 131.15 158.528 130.942 158.896C130.734 159.256 130.422 159.54 130.006 159.748C129.59 159.956 129.09 160.06 128.506 160.06C127.658 160.06 126.962 159.84 126.418 159.4C125.874 158.952 125.57 158.32 125.506 157.504H126.562C126.618 157.984 126.814 158.376 127.15 158.68C127.486 158.984 127.934 159.136 128.494 159.136C129.054 159.136 129.478 158.992 129.766 158.704C130.062 158.408 130.21 158.028 130.21 157.564C130.21 156.964 130.01 156.532 129.61 156.268C129.21 156.004 128.606 155.872 127.798 155.872H127.522V154.96H127.81C128.546 154.952 129.102 154.832 129.478 154.6C129.854 154.36 130.042 153.992 130.042 153.496C130.042 153.072 129.902 152.732 129.622 152.476C129.35 152.22 128.958 152.092 128.446 152.092C127.95 152.092 127.55 152.22 127.246 152.476C126.942 152.732 126.762 153.076 126.706 153.508H125.638Z" fill="#334155"/>
<path d="M164.887 159.124C165.903 158.308 166.699 157.64 167.275 157.12C167.851 156.592 168.335 156.044 168.727 155.476C169.127 154.9 169.327 154.336 169.327 153.784C169.327 153.264 169.199 152.856 168.943 152.56C168.695 152.256 168.291 152.104 167.731 152.104C167.187 152.104 166.763 152.276 166.459 152.62C166.163 152.956 166.003 153.408 165.979 153.976H164.923C164.955 153.08 165.227 152.388 165.739 151.9C166.251 151.412 166.911 151.168 167.719 151.168C168.543 151.168 169.195 151.396 169.675 151.852C170.163 152.308 170.407 152.936 170.407 153.736C170.407 154.4 170.207 155.048 169.807 155.68C169.415 156.304 168.967 156.856 168.463 157.336C167.959 157.808 167.315 158.36 166.531 158.992H170.659V159.904H164.887V159.124ZM171.658 158.068V157.24L175.87 151.408H177.178V157.12H178.378V158.068H177.178V160H176.098V158.068H171.658ZM176.146 152.548L172.918 157.12H176.146V152.548Z" fill="#334155"/>
<path d="M211.393 159.124C212.409 158.308 213.205 157.64 213.781 157.12C214.357 156.592 214.841 156.044 215.233 155.476C215.633 154.9 215.833 154.336 215.833 153.784C215.833 153.264 215.705 152.856 215.449 152.56C215.201 152.256 214.797 152.104 214.237 152.104C213.693 152.104 213.269 152.276 212.965 152.62C212.669 152.956 212.509 153.408 212.485 153.976H211.429C211.461 153.08 211.733 152.388 212.245 151.9C212.757 151.412 213.417 151.168 214.225 151.168C215.049 151.168 215.701 151.396 216.181 151.852C216.669 152.308 216.913 152.936 216.913 153.736C216.913 154.4 216.713 155.048 216.313 155.68C215.921 156.304 215.473 156.856 214.969 157.336C214.465 157.808 213.821 158.36 213.037 158.992H217.165V159.904H211.393V159.124ZM223.96 152.272H219.748V155.008C219.932 154.752 220.204 154.544 220.564 154.384C220.924 154.216 221.312 154.132 221.728 154.132C222.392 154.132 222.932 154.272 223.348 154.552C223.764 154.824 224.06 155.18 224.236 155.62C224.42 156.052 224.512 156.512 224.512 157C224.512 157.576 224.404 158.092 224.188 158.548C223.972 159.004 223.64 159.364 223.192 159.628C222.752 159.892 222.204 160.024 221.548 160.024C220.708 160.024 220.028 159.808 219.508 159.376C218.988 158.944 218.672 158.368 218.56 157.648H219.628C219.732 158.104 219.952 158.46 220.288 158.716C220.624 158.972 221.048 159.1 221.56 159.1C222.192 159.1 222.668 158.912 222.988 158.536C223.308 158.152 223.468 157.648 223.468 157.024C223.468 156.4 223.308 155.92 222.988 155.584C222.668 155.24 222.196 155.068 221.572 155.068C221.148 155.068 220.776 155.172 220.456 155.38C220.144 155.58 219.916 155.856 219.772 156.208H218.74V151.312H223.96V152.272Z" fill="#334155"/>
<rect x="200" y="164" width="19" height="8" rx="4" fill="#F45941" stroke="#F1F5F9" stroke-width="1.5"/>
<rect x="217" y="164" width="19" height="8" rx="4" fill="#786DEF" stroke="#F1F5F9" stroke-width="1.5"/>
<path d="M257.852 159.124C258.868 158.308 259.664 157.64 260.24 157.12C260.816 156.592 261.3 156.044 261.692 155.476C262.092 154.9 262.292 154.336 262.292 153.784C262.292 153.264 262.164 152.856 261.908 152.56C261.66 152.256 261.256 152.104 260.696 152.104C260.152 152.104 259.728 152.276 259.424 152.62C259.128 152.956 258.968 153.408 258.944 153.976H257.888C257.92 153.08 258.192 152.388 258.704 151.9C259.216 151.412 259.876 151.168 260.684 151.168C261.508 151.168 262.16 151.396 262.64 151.852C263.128 152.308 263.372 152.936 263.372 153.736C263.372 154.4 263.172 155.048 262.772 155.68C262.38 156.304 261.932 156.856 261.428 157.336C260.924 157.808 260.28 158.36 259.496 158.992H263.624V159.904H257.852V159.124ZM269.723 153.388C269.547 152.5 268.999 152.056 268.079 152.056C267.367 152.056 266.835 152.332 266.483 152.884C266.131 153.428 265.959 154.328 265.967 155.584C266.151 155.168 266.455 154.844 266.879 154.612C267.311 154.372 267.791 154.252 268.319 154.252C269.143 154.252 269.799 154.508 270.287 155.02C270.783 155.532 271.031 156.24 271.031 157.144C271.031 157.688 270.923 158.176 270.707 158.608C270.499 159.04 270.179 159.384 269.747 159.64C269.323 159.896 268.807 160.024 268.199 160.024C267.375 160.024 266.731 159.84 266.267 159.472C265.803 159.104 265.479 158.596 265.295 157.948C265.111 157.3 265.019 156.5 265.019 155.548C265.019 152.612 266.043 151.144 268.091 151.144C268.875 151.144 269.491 151.356 269.939 151.78C270.387 152.204 270.651 152.74 270.731 153.388H269.723ZM268.091 155.176C267.747 155.176 267.423 155.248 267.119 155.392C266.815 155.528 266.567 155.74 266.375 156.028C266.191 156.308 266.099 156.652 266.099 157.06C266.099 157.668 266.275 158.164 266.627 158.548C266.979 158.924 267.483 159.112 268.139 159.112C268.699 159.112 269.143 158.94 269.471 158.596C269.807 158.244 269.975 157.772 269.975 157.18C269.975 156.556 269.815 156.068 269.495 155.716C269.175 155.356 268.707 155.176 268.091 155.176Z" fill="#334155"/>
<path d="M304.885 159.124C305.901 158.308 306.697 157.64 307.273 157.12C307.849 156.592 308.333 156.044 308.725 155.476C309.125 154.9 309.325 154.336 309.325 153.784C309.325 153.264 309.197 152.856 308.941 152.56C308.693 152.256 308.289 152.104 307.729 152.104C307.185 152.104 306.761 152.276 306.457 152.62C306.161 152.956 306.001 153.408 305.977 153.976H304.921C304.953 153.08 305.225 152.388 305.737 151.9C306.249 151.412 306.909 151.168 307.717 151.168C308.541 151.168 309.193 151.396 309.673 151.852C310.161 152.308 310.405 152.936 310.405 153.736C310.405 154.4 310.205 155.048 309.805 155.68C309.413 156.304 308.965 156.856 308.461 157.336C307.957 157.808 307.313 158.36 306.529 158.992H310.657V159.904H304.885V159.124ZM317.26 152.176L313.924 160H312.82L316.204 152.284H311.572V151.348H317.26V152.176Z" fill="#334155"/>
<path d="M25.3757 191.124C26.3917 190.308 27.1877 189.64 27.7637 189.12C28.3397 188.592 28.8237 188.044 29.2157 187.476C29.6157 186.9 29.8157 186.336 29.8157 185.784C29.8157 185.264 29.6877 184.856 29.4317 184.56C29.1837 184.256 28.7797 184.104 28.2197 184.104C27.6757 184.104 27.2517 184.276 26.9477 184.62C26.6517 184.956 26.4917 185.408 26.4677 185.976H25.4117C25.4437 185.08 25.7157 184.388 26.2277 183.9C26.7397 183.412 27.3997 183.168 28.2077 183.168C29.0317 183.168 29.6837 183.396 30.1637 183.852C30.6517 184.308 30.8957 184.936 30.8957 185.736C30.8957 186.4 30.6957 187.048 30.2957 187.68C29.9037 188.304 29.4557 188.856 28.9517 189.336C28.4477 189.808 27.8037 190.36 27.0197 190.992H31.1477V191.904H25.3757V191.124ZM33.994 187.488C33.546 187.312 33.202 187.056 32.962 186.72C32.722 186.384 32.602 185.976 32.602 185.496C32.602 185.064 32.71 184.676 32.926 184.332C33.142 183.98 33.462 183.704 33.886 183.504C34.318 183.296 34.838 183.192 35.446 183.192C36.054 183.192 36.57 183.296 36.994 183.504C37.426 183.704 37.75 183.98 37.966 184.332C38.19 184.676 38.302 185.064 38.302 185.496C38.302 185.96 38.178 186.368 37.93 186.72C37.682 187.064 37.342 187.32 36.91 187.488C37.406 187.64 37.798 187.908 38.086 188.292C38.382 188.668 38.53 189.124 38.53 189.66C38.53 190.18 38.402 190.636 38.146 191.028C37.89 191.412 37.526 191.712 37.054 191.928C36.59 192.136 36.054 192.24 35.446 192.24C34.838 192.24 34.302 192.136 33.838 191.928C33.382 191.712 33.026 191.412 32.77 191.028C32.514 190.636 32.386 190.18 32.386 189.66C32.386 189.124 32.53 188.664 32.818 188.28C33.106 187.896 33.498 187.632 33.994 187.488ZM37.246 185.628C37.246 185.14 37.086 184.764 36.766 184.5C36.446 184.236 36.006 184.104 35.446 184.104C34.894 184.104 34.458 184.236 34.138 184.5C33.818 184.764 33.658 185.144 33.658 185.64C33.658 186.088 33.822 186.448 34.15 186.72C34.486 186.992 34.918 187.128 35.446 187.128C35.982 187.128 36.414 186.992 36.742 186.72C37.078 186.44 37.246 186.076 37.246 185.628ZM35.446 187.968C34.854 187.968 34.37 188.108 33.994 188.388C33.618 188.66 33.43 189.072 33.43 189.624C33.43 190.136 33.61 190.548 33.97 190.86C34.338 191.172 34.83 191.328 35.446 191.328C36.062 191.328 36.55 191.172 36.91 190.86C37.27 190.548 37.45 190.136 37.45 189.624C37.45 189.088 37.266 188.68 36.898 188.4C36.53 188.112 36.046 187.968 35.446 187.968Z" fill="#334155"/>
<rect x="14" y="196" width="13.3333" height="8" rx="4" fill="#E7C828" stroke="#F1F5F9" stroke-width="1.5"/>
<rect x="25.333" y="196" width="13.3333" height="8" rx="4" fill="#F45941" stroke="#F1F5F9" stroke-width="1.5"/>
<rect x="36.667" y="196" width="13.3333" height="8" rx="4" fill="#786DEF" stroke="#F1F5F9" stroke-width="1.5"/>
<path d="M71.8815 191.124C72.8975 190.308 73.6935 189.64 74.2695 189.12C74.8455 188.592 75.3295 188.044 75.7215 187.476C76.1215 186.9 76.3215 186.336 76.3215 185.784C76.3215 185.264 76.1935 184.856 75.9375 184.56C75.6895 184.256 75.2855 184.104 74.7255 184.104C74.1815 184.104 73.7575 184.276 73.4535 184.62C73.1575 184.956 72.9975 185.408 72.9735 185.976H71.9175C71.9495 185.08 72.2215 184.388 72.7335 183.9C73.2455 183.412 73.9055 183.168 74.7135 183.168C75.5375 183.168 76.1895 183.396 76.6695 183.852C77.1575 184.308 77.4015 184.936 77.4015 185.736C77.4015 186.4 77.2015 187.048 76.8015 187.68C76.4095 188.304 75.9615 188.856 75.4575 189.336C74.9535 189.808 74.3095 190.36 73.5255 190.992H77.6535V191.904H71.8815V191.124ZM80.3199 189.672C80.3999 190.128 80.5839 190.48 80.8719 190.728C81.1679 190.976 81.5639 191.1 82.0599 191.1C82.7239 191.1 83.2119 190.84 83.5239 190.32C83.8439 189.8 83.9959 188.924 83.9799 187.692C83.8119 188.052 83.5319 188.336 83.1399 188.544C82.7479 188.744 82.3119 188.844 81.8319 188.844C81.2959 188.844 80.8159 188.736 80.3919 188.52C79.9759 188.296 79.6479 187.972 79.4079 187.548C79.1679 187.124 79.0479 186.612 79.0479 186.012C79.0479 185.156 79.2959 184.468 79.7919 183.948C80.2879 183.42 80.9919 183.156 81.9039 183.156C83.0239 183.156 83.8079 183.52 84.2559 184.248C84.7119 184.976 84.9399 186.06 84.9399 187.5C84.9399 188.508 84.8479 189.34 84.6639 189.996C84.4879 190.652 84.1839 191.152 83.7519 191.496C83.3279 191.84 82.7439 192.012 81.9999 192.012C81.1839 192.012 80.5479 191.792 80.0919 191.352C79.6359 190.912 79.3759 190.352 79.3119 189.672H80.3199ZM82.0119 187.92C82.5479 187.92 82.9879 187.756 83.3319 187.428C83.6759 187.092 83.8479 186.64 83.8479 186.072C83.8479 185.472 83.6799 184.988 83.3439 184.62C83.0079 184.252 82.5359 184.068 81.9279 184.068C81.3679 184.068 80.9199 184.244 80.5839 184.596C80.2559 184.948 80.0919 185.412 80.0919 185.988C80.0919 186.572 80.2559 187.04 80.5839 187.392C80.9119 187.744 81.3879 187.92 82.0119 187.92Z" fill="#334155"/>
<path d="M118.419 185.508C118.475 184.772 118.759 184.196 119.271 183.78C119.783 183.364 120.447 183.156 121.263 183.156C121.807 183.156 122.275 183.256 122.667 183.456C123.067 183.648 123.367 183.912 123.567 184.248C123.775 184.584 123.879 184.964 123.879 185.388C123.879 185.884 123.735 186.312 123.447 186.672C123.167 187.032 122.799 187.264 122.343 187.368V187.428C122.863 187.556 123.275 187.808 123.579 188.184C123.883 188.56 124.035 189.052 124.035 189.66C124.035 190.116 123.931 190.528 123.723 190.896C123.515 191.256 123.203 191.54 122.787 191.748C122.371 191.956 121.871 192.06 121.287 192.06C120.439 192.06 119.743 191.84 119.199 191.4C118.655 190.952 118.351 190.32 118.287 189.504H119.343C119.399 189.984 119.595 190.376 119.931 190.68C120.267 190.984 120.715 191.136 121.275 191.136C121.835 191.136 122.259 190.992 122.547 190.704C122.843 190.408 122.991 190.028 122.991 189.564C122.991 188.964 122.791 188.532 122.391 188.268C121.991 188.004 121.387 187.872 120.579 187.872H120.303V186.96H120.591C121.327 186.952 121.883 186.832 122.259 186.6C122.635 186.36 122.823 185.992 122.823 185.496C122.823 185.072 122.683 184.732 122.403 184.476C122.131 184.22 121.739 184.092 121.227 184.092C120.731 184.092 120.331 184.22 120.027 184.476C119.723 184.732 119.543 185.076 119.487 185.508H118.419ZM125.51 187.572C125.51 186.196 125.734 185.124 126.182 184.356C126.63 183.58 127.414 183.192 128.534 183.192C129.646 183.192 130.426 183.58 130.874 184.356C131.322 185.124 131.546 186.196 131.546 187.572C131.546 188.972 131.322 190.06 130.874 190.836C130.426 191.612 129.646 192 128.534 192C127.414 192 126.63 191.612 126.182 190.836C125.734 190.06 125.51 188.972 125.51 187.572ZM130.466 187.572C130.466 186.876 130.418 186.288 130.322 185.808C130.234 185.32 130.046 184.928 129.758 184.632C129.478 184.336 129.07 184.188 128.534 184.188C127.99 184.188 127.574 184.336 127.286 184.632C127.006 184.928 126.818 185.32 126.722 185.808C126.634 186.288 126.59 186.876 126.59 187.572C126.59 188.292 126.634 188.896 126.722 189.384C126.818 189.872 127.006 190.264 127.286 190.56C127.574 190.856 127.99 191.004 128.534 191.004C129.07 191.004 129.478 190.856 129.758 190.56C130.046 190.264 130.234 189.872 130.322 189.384C130.418 188.896 130.466 188.292 130.466 187.572Z" fill="#334155"/>
<path d="M166.765 185.508C166.821 184.772 167.105 184.196 167.617 183.78C168.129 183.364 168.793 183.156 169.609 183.156C170.153 183.156 170.621 183.256 171.013 183.456C171.413 183.648 171.713 183.912 171.913 184.248C172.121 184.584 172.225 184.964 172.225 185.388C172.225 185.884 172.081 186.312 171.793 186.672C171.513 187.032 171.145 187.264 170.689 187.368V187.428C171.209 187.556 171.621 187.808 171.925 188.184C172.229 188.56 172.381 189.052 172.381 189.66C172.381 190.116 172.277 190.528 172.069 190.896C171.861 191.256 171.549 191.54 171.133 191.748C170.717 191.956 170.217 192.06 169.633 192.06C168.785 192.06 168.089 191.84 167.545 191.4C167.001 190.952 166.697 190.32 166.633 189.504H167.689C167.745 189.984 167.941 190.376 168.277 190.68C168.613 190.984 169.061 191.136 169.621 191.136C170.181 191.136 170.605 190.992 170.893 190.704C171.189 190.408 171.337 190.028 171.337 189.564C171.337 188.964 171.137 188.532 170.737 188.268C170.337 188.004 169.733 187.872 168.925 187.872H168.649V186.96H168.937C169.673 186.952 170.229 186.832 170.605 186.6C170.981 186.36 171.169 185.992 171.169 185.496C171.169 185.072 171.029 184.732 170.749 184.476C170.477 184.22 170.085 184.092 169.573 184.092C169.077 184.092 168.677 184.22 168.373 184.476C168.069 184.732 167.889 185.076 167.833 185.508H166.765ZM173.567 184.32V183.324H175.823V192H174.719V184.32H173.567Z" fill="#334155"/>
<path d="M216.534 184.32V183.324H218.79V192H217.686V184.32H216.534Z" fill="#CBD5E1"/>
<path d="M261.661 191.124C262.677 190.308 263.473 189.64 264.049 189.12C264.625 188.592 265.109 188.044 265.501 187.476C265.901 186.9 266.101 186.336 266.101 185.784C266.101 185.264 265.973 184.856 265.717 184.56C265.469 184.256 265.065 184.104 264.505 184.104C263.961 184.104 263.537 184.276 263.233 184.62C262.937 184.956 262.777 185.408 262.753 185.976H261.697C261.729 185.08 262.001 184.388 262.513 183.9C263.025 183.412 263.685 183.168 264.493 183.168C265.317 183.168 265.969 183.396 266.449 183.852C266.937 184.308 267.181 184.936 267.181 185.736C267.181 186.4 266.981 187.048 266.581 187.68C266.189 188.304 265.741 188.856 265.237 189.336C264.733 189.808 264.089 190.36 263.305 190.992H267.433V191.904H261.661V191.124Z" fill="#CBD5E1"/>
<path d="M308.187 185.508C308.243 184.772 308.527 184.196 309.039 183.78C309.551 183.364 310.215 183.156 311.031 183.156C311.575 183.156 312.043 183.256 312.435 183.456C312.835 183.648 313.135 183.912 313.335 184.248C313.543 184.584 313.647 184.964 313.647 185.388C313.647 185.884 313.503 186.312 313.215 186.672C312.935 187.032 312.567 187.264 312.111 187.368V187.428C312.631 187.556 313.043 187.808 313.347 188.184C313.651 188.56 313.803 189.052 313.803 189.66C313.803 190.116 313.699 190.528 313.491 190.896C313.283 191.256 312.971 191.54 312.555 191.748C312.139 191.956 311.639 192.06 311.055 192.06C310.207 192.06 309.511 191.84 308.967 191.4C308.423 190.952 308.119 190.32 308.055 189.504H309.111C309.167 189.984 309.363 190.376 309.699 190.68C310.035 190.984 310.483 191.136 311.043 191.136C311.603 191.136 312.027 190.992 312.315 190.704C312.611 190.408 312.759 190.028 312.759 189.564C312.759 188.964 312.559 188.532 312.159 188.268C311.759 188.004 311.155 187.872 310.347 187.872H310.071V186.96H310.359C311.095 186.952 311.651 186.832 312.027 186.6C312.403 186.36 312.591 185.992 312.591 185.496C312.591 185.072 312.451 184.732 312.171 184.476C311.899 184.22 311.507 184.092 310.995 184.092C310.499 184.092 310.099 184.22 309.795 184.476C309.491 184.732 309.311 185.076 309.255 185.508H308.187Z" fill="#CBD5E1"/>
<defs>
<linearGradient id="paint0_linear_2470_1430" x1="311" y1="108" x2="311" y2="140" gradientUnits="userSpaceOnUse">
<stop stop-color="#4A43EC" stop-opacity="0.2"/>
<stop offset="1" stop-color="#4A43EC" stop-opacity="0"/>
</linearGradient>
</defs>
</svg>
