<svg width="91" height="96" viewBox="0 0 91 96" fill="none" xmlns="http://www.w3.org/2000/svg">
<g clip-path="url(#clip0_2317_1811)">
<path d="M26.3181 29.1689L26.3181 26.9203C26.3181 26.475 26.6785 26.114 27.1229 26.114L65.1953 26.114C65.6396 26.114 66 26.475 66 26.9203L66 29.1689C66 29.6141 65.6396 29.9752 65.1953 29.9752L27.1229 29.9752C26.6785 29.9752 26.3181 29.6141 26.3181 29.1689Z" fill="#E7E8F0"/>
<path d="M53.4316 26.114L53.4316 29.9752L51.1678 29.9752L51.1678 26.114L53.4316 26.114Z" fill="#BBC0D5"/>
<path d="M53.4323 35.2426L53.4323 20.8465C53.4323 19.2574 54.7185 17.9687 56.3045 17.9687C57.8906 17.9687 59.1768 19.2574 59.1768 20.8465L59.1768 35.2426C59.1768 36.8317 57.8906 38.1204 56.3045 38.1204C54.7185 38.1204 53.4323 36.8317 53.4323 35.2426Z" fill="#45518B"/>
<path d="M62.9619 31.4831L62.9619 24.606C62.9619 23.3848 61.9736 22.3945 60.7548 22.3945L59.1765 22.3945L59.1765 33.6945L60.7548 33.6945C61.9736 33.6945 62.9619 32.7043 62.9619 31.4831Z" fill="#5D689A"/>
<path d="M38.8877 35.2426L38.8877 20.8465C38.8877 19.2574 37.6015 17.9687 36.0155 17.9687C34.4294 17.9687 33.1432 19.2574 33.1432 20.8465L33.1432 35.2426C33.1432 36.8317 34.4294 38.1204 36.0155 38.1204C37.6015 38.1204 38.8877 36.8317 38.8877 35.2426Z" fill="#45518B"/>
<path d="M59.1768 35.2425L59.1768 32.8236C59.1768 34.4127 57.8906 35.7014 56.3045 35.7014C54.7185 35.7014 53.4323 34.4127 53.4323 32.8236L53.4323 35.2425C53.4323 36.8316 54.7185 38.1204 56.3045 38.1204C57.8906 38.1204 59.1768 36.8316 59.1768 35.2425Z" fill="#0E1D69"/>
<path d="M38.8867 35.2425L38.8867 32.8236C38.8867 34.4127 37.6005 35.7014 36.0145 35.7014C34.4285 35.7014 33.1423 34.4127 33.1423 32.8236L33.1423 35.2425C33.1423 36.8316 34.4285 38.1204 36.0145 38.1204C37.6005 38.1204 38.8867 36.8316 38.8867 35.2425Z" fill="#0E1D69"/>
<path d="M29.3562 31.4831L29.3562 24.606C29.3562 23.3848 30.3446 22.3945 31.5634 22.3945L33.1426 22.3945L33.1426 33.6945L31.5634 33.6945C30.3446 33.6945 29.3562 32.7043 29.3562 31.4831Z" fill="#5D689A"/>
<path d="M62.9619 31.4831L62.9619 29.0642C62.9619 30.2854 61.9736 31.2757 60.7548 31.2757L59.1765 31.2757L59.1765 33.6956L60.7548 33.6956C61.9736 33.6956 62.9619 32.7053 62.9619 31.4841L62.9619 31.4831Z" fill="#45518B"/>
<path d="M33.1426 31.2746L31.5634 31.2746C30.3446 31.2746 29.3562 30.2844 29.3562 29.0632L29.3562 31.4821C29.3562 32.7033 30.3446 33.6935 31.5634 33.6935L33.1426 33.6935L33.1426 31.2737L33.1426 31.2746Z" fill="#45518B"/>
</g>
<path d="M30.7633 59.636V60.524H27.1273V63.344H30.0793V64.232H27.1273V68H26.0353V59.636H30.7633ZM32.6462 60.356C32.4382 60.356 32.2622 60.284 32.1182 60.14C31.9742 59.996 31.9022 59.82 31.9022 59.612C31.9022 59.404 31.9742 59.228 32.1182 59.084C32.2622 58.94 32.4382 58.868 32.6462 58.868C32.8462 58.868 33.0142 58.94 33.1502 59.084C33.2942 59.228 33.3662 59.404 33.3662 59.612C33.3662 59.82 33.2942 59.996 33.1502 60.14C33.0142 60.284 32.8462 60.356 32.6462 60.356ZM33.1742 61.424V68H32.0822V61.424H33.1742ZM36.3673 62.324V66.2C36.3673 66.52 36.4353 66.748 36.5713 66.884C36.7073 67.012 36.9433 67.076 37.2793 67.076H38.0833V68H37.0993C36.4913 68 36.0353 67.86 35.7313 67.58C35.4273 67.3 35.2753 66.84 35.2753 66.2V62.324H34.4233V61.424H35.2753V59.768H36.3673V61.424H38.0833V62.324H36.3673ZM42.6104 61.304C43.4104 61.304 44.0584 61.548 44.5544 62.036C45.0504 62.516 45.2984 63.212 45.2984 64.124V68H44.2184V64.28C44.2184 63.624 44.0544 63.124 43.7264 62.78C43.3984 62.428 42.9504 62.252 42.3824 62.252C41.8064 62.252 41.3464 62.432 41.0024 62.792C40.6664 63.152 40.4984 63.676 40.4984 64.364V68H39.4064V61.424H40.4984V62.36C40.7144 62.024 41.0064 61.764 41.3744 61.58C41.7504 61.396 42.1624 61.304 42.6104 61.304ZM53.0822 64.46C53.0822 64.668 53.0702 64.888 53.0462 65.12H47.7902C47.8302 65.768 48.0502 66.276 48.4502 66.644C48.8582 67.004 49.3502 67.184 49.9262 67.184C50.3982 67.184 50.7902 67.076 51.1022 66.86C51.4222 66.636 51.6462 66.34 51.7742 65.972H52.9502C52.7742 66.604 52.4222 67.12 51.8942 67.52C51.3662 67.912 50.7102 68.108 49.9262 68.108C49.3022 68.108 48.7422 67.968 48.2462 67.688C47.7582 67.408 47.3742 67.012 47.0942 66.5C46.8142 65.98 46.6742 65.38 46.6742 64.7C46.6742 64.02 46.8102 63.424 47.0822 62.912C47.3542 62.4 47.7342 62.008 48.2222 61.736C48.7182 61.456 49.2862 61.316 49.9262 61.316C50.5502 61.316 51.1022 61.452 51.5822 61.724C52.0622 61.996 52.4302 62.372 52.6862 62.852C52.9502 63.324 53.0822 63.86 53.0822 64.46ZM51.9542 64.232C51.9542 63.816 51.8622 63.46 51.6782 63.164C51.4942 62.86 51.2422 62.632 50.9222 62.48C50.6102 62.32 50.2622 62.24 49.8782 62.24C49.3262 62.24 48.8542 62.416 48.4622 62.768C48.0782 63.12 47.8582 63.608 47.8022 64.232H51.9542ZM56.8516 68.108C56.3476 68.108 55.8956 68.024 55.4956 67.856C55.0956 67.68 54.7796 67.44 54.5476 67.136C54.3156 66.824 54.1876 66.468 54.1636 66.068H55.2916C55.3236 66.396 55.4756 66.664 55.7476 66.872C56.0276 67.08 56.3916 67.184 56.8396 67.184C57.2556 67.184 57.5836 67.092 57.8236 66.908C58.0636 66.724 58.1836 66.492 58.1836 66.212C58.1836 65.924 58.0556 65.712 57.7996 65.576C57.5436 65.432 57.1476 65.292 56.6116 65.156C56.1236 65.028 55.7236 64.9 55.4116 64.772C55.1076 64.636 54.8436 64.44 54.6196 64.184C54.4036 63.92 54.2956 63.576 54.2956 63.152C54.2956 62.816 54.3956 62.508 54.5956 62.228C54.7956 61.948 55.0796 61.728 55.4476 61.568C55.8156 61.4 56.2356 61.316 56.7076 61.316C57.4356 61.316 58.0236 61.5 58.4716 61.868C58.9196 62.236 59.1596 62.74 59.1916 63.38H58.0996C58.0756 63.036 57.9356 62.76 57.6796 62.552C57.4316 62.344 57.0956 62.24 56.6716 62.24C56.2796 62.24 55.9676 62.324 55.7356 62.492C55.5036 62.66 55.3876 62.88 55.3876 63.152C55.3876 63.368 55.4556 63.548 55.5916 63.692C55.7356 63.828 55.9116 63.94 56.1196 64.028C56.3356 64.108 56.6316 64.2 57.0076 64.304C57.4796 64.432 57.8636 64.56 58.1596 64.688C58.4556 64.808 58.7076 64.992 58.9156 65.24C59.1316 65.488 59.2436 65.812 59.2516 66.212C59.2516 66.572 59.1516 66.896 58.9516 67.184C58.7516 67.472 58.4676 67.7 58.0996 67.868C57.7396 68.028 57.3236 68.108 56.8516 68.108ZM63.1211 68.108C62.6171 68.108 62.1651 68.024 61.7651 67.856C61.3651 67.68 61.0491 67.44 60.8171 67.136C60.5851 66.824 60.4571 66.468 60.4331 66.068H61.5611C61.5931 66.396 61.7451 66.664 62.0171 66.872C62.2971 67.08 62.6611 67.184 63.1091 67.184C63.5251 67.184 63.8531 67.092 64.0931 66.908C64.3331 66.724 64.4531 66.492 64.4531 66.212C64.4531 65.924 64.3251 65.712 64.0691 65.576C63.8131 65.432 63.4171 65.292 62.8811 65.156C62.3931 65.028 61.9931 64.9 61.6811 64.772C61.3771 64.636 61.1131 64.44 60.8891 64.184C60.6731 63.92 60.5651 63.576 60.5651 63.152C60.5651 62.816 60.6651 62.508 60.8651 62.228C61.0651 61.948 61.3491 61.728 61.7171 61.568C62.0851 61.4 62.5051 61.316 62.9771 61.316C63.7051 61.316 64.2931 61.5 64.7411 61.868C65.1891 62.236 65.4291 62.74 65.4611 63.38H64.3691C64.3451 63.036 64.2051 62.76 63.9491 62.552C63.7011 62.344 63.3651 62.24 62.9411 62.24C62.5491 62.24 62.2371 62.324 62.0051 62.492C61.7731 62.66 61.6571 62.88 61.6571 63.152C61.6571 63.368 61.7251 63.548 61.8611 63.692C62.0051 63.828 62.1811 63.94 62.3891 64.028C62.6051 64.108 62.9011 64.2 63.2771 64.304C63.7491 64.432 64.1331 64.56 64.4291 64.688C64.7251 64.808 64.9771 64.992 65.1851 65.24C65.4011 65.488 65.5131 65.812 65.5211 66.212C65.5211 66.572 65.4211 66.896 65.2211 67.184C65.0211 67.472 64.7371 67.7 64.3691 67.868C64.0091 68.028 63.5931 68.108 63.1211 68.108Z" fill="#27272A"/>
<defs>
<clipPath id="clip0_2317_1811">
<rect width="40" height="40" fill="white" transform="translate(25.625 8)"/>
</clipPath>
</defs>
</svg>
