<svg width="91" height="96" viewBox="0 0 91 96" fill="none" xmlns="http://www.w3.org/2000/svg">
<path d="M45.7969 44.5869C55.0735 44.5869 62.5937 37.0682 62.5937 27.7935C62.5937 18.5187 55.0735 11 45.7969 11C36.5202 11 29 18.5187 29 27.7935C29 37.0682 36.5202 44.5869 45.7969 44.5869Z" fill="#9FD198"/>
<path d="M51.2331 11.8998C54.2298 20.684 49.5373 30.233 40.7513 33.2291C37.233 34.4288 33.4167 34.4288 29.8994 33.2291C32.9033 42.0062 42.4553 46.6864 51.2331 43.682C60.0119 40.6787 64.693 31.1287 61.6881 22.3527C60.0067 17.4395 56.1462 13.5808 51.2331 11.8998Z" fill="#8DC986"/>
<path d="M59.708 37.2074C61.9738 27.7069 57.6092 22.7536 54.7918 19.3668C53.7362 18.0981 52.8023 16.9737 52.2569 15.8544C55.3949 16.0131 57.7112 17.1643 59.7152 18.3908C59.2184 17.657 58.6637 16.9644 58.0586 16.3182C56.1546 15.4174 54.1558 14.8485 51.8652 14.7918C51.6611 13.926 51.6962 13.0211 51.9652 12.1729V12.1698C51.6477 12.0441 51.324 11.9276 50.9962 11.8214C50.6797 12.782 50.6158 13.8085 50.8117 14.8011C49.2252 14.8825 47.6531 15.1515 46.1295 15.6029C44.2966 13.3437 42.5875 11.9997 41.8442 11.4669C41.4009 11.5741 40.9639 11.6978 40.534 11.84L40.9092 12.076C40.9319 12.0904 42.8782 13.3324 45.0626 15.9317C43.9956 16.2831 42.4153 16.7974 40.0361 18.3578C37.7352 16.2708 35.0447 16.1852 33.486 16.3666C33.1118 16.7696 32.7582 17.1901 32.4242 17.6281L32.5015 17.6034C32.5407 17.591 36.2126 16.4759 39.1619 18.9618C33.2541 23.2493 30.8181 29.3508 29.9697 33.4291C30.1862 34.0372 30.4388 34.6329 30.7243 35.2121C30.8346 34.1526 31.9851 25.3529 39.9093 19.6987C41.2989 21.3457 40.8701 23.0823 40.1866 25.8455C39.2166 29.7682 37.8929 35.1224 40.9381 43.8747C41.3339 43.9943 41.736 44.0994 42.1432 44.1901C39.0331 35.4893 40.0763 30.5824 41.1865 26.0939C41.8638 23.3534 42.4081 21.1478 40.7649 19.1195C43.0709 17.6343 44.6708 17.1365 45.7594 16.7985C50.9838 23.6049 50.5932 39.708 50.4427 43.9027L51.4725 43.6369C51.6034 40.0111 52.2487 23.7997 46.8202 16.4934C48.2253 16.111 49.6695 15.8925 51.124 15.8441C51.6859 17.2447 52.7641 18.5434 54.0001 20.0285C57.1783 23.8492 61.1347 28.6046 58.3875 38.1824L59.709 37.2105L59.708 37.2074Z" fill="#29991A"/>
<path d="M30.2283 68.084C29.6763 68.084 29.1803 67.988 28.7403 67.796C28.3083 67.596 27.9683 67.324 27.7203 66.98C27.4723 66.628 27.3443 66.224 27.3363 65.768H28.5003C28.5403 66.16 28.7003 66.492 28.9803 66.764C29.2683 67.028 29.6843 67.16 30.2283 67.16C30.7483 67.16 31.1563 67.032 31.4523 66.776C31.7563 66.512 31.9083 66.176 31.9083 65.768C31.9083 65.448 31.8203 65.188 31.6443 64.988C31.4683 64.788 31.2483 64.636 30.9843 64.532C30.7203 64.428 30.3643 64.316 29.9163 64.196C29.3643 64.052 28.9203 63.908 28.5843 63.764C28.2563 63.62 27.9723 63.396 27.7323 63.092C27.5003 62.78 27.3843 62.364 27.3843 61.844C27.3843 61.388 27.5003 60.984 27.7323 60.632C27.9643 60.28 28.2883 60.008 28.7043 59.816C29.1283 59.624 29.6123 59.528 30.1563 59.528C30.9403 59.528 31.5803 59.724 32.0763 60.116C32.5803 60.508 32.8643 61.028 32.9283 61.676H31.7283C31.6883 61.356 31.5203 61.076 31.2243 60.836C30.9283 60.588 30.5363 60.464 30.0483 60.464C29.5923 60.464 29.2203 60.584 28.9323 60.824C28.6443 61.056 28.5003 61.384 28.5003 61.808C28.5003 62.112 28.5843 62.36 28.7523 62.552C28.9283 62.744 29.1403 62.892 29.3883 62.996C29.6443 63.092 30.0003 63.204 30.4563 63.332C31.0083 63.484 31.4523 63.636 31.7883 63.788C32.1243 63.932 32.4123 64.16 32.6523 64.472C32.8923 64.776 33.0123 65.192 33.0123 65.72C33.0123 66.128 32.9043 66.512 32.6883 66.872C32.4723 67.232 32.1523 67.524 31.7283 67.748C31.3043 67.972 30.8043 68.084 30.2283 68.084ZM35.7113 62.636C35.9273 62.26 36.2473 61.948 36.6713 61.7C37.1033 61.444 37.6033 61.316 38.1713 61.316C38.7553 61.316 39.2833 61.456 39.7553 61.736C40.2353 62.016 40.6113 62.412 40.8833 62.924C41.1553 63.428 41.2913 64.016 41.2913 64.688C41.2913 65.352 41.1553 65.944 40.8833 66.464C40.6113 66.984 40.2353 67.388 39.7553 67.676C39.2833 67.964 38.7553 68.108 38.1713 68.108C37.6113 68.108 37.1153 67.984 36.6833 67.736C36.2593 67.48 35.9353 67.164 35.7113 66.788V71.12H34.6193V61.424H35.7113V62.636ZM40.1753 64.688C40.1753 64.192 40.0753 63.76 39.8753 63.392C39.6753 63.024 39.4033 62.744 39.0593 62.552C38.7233 62.36 38.3513 62.264 37.9433 62.264C37.5433 62.264 37.1713 62.364 36.8273 62.564C36.4913 62.756 36.2193 63.04 36.0113 63.416C35.8113 63.784 35.7113 64.212 35.7113 64.7C35.7113 65.196 35.8113 65.632 36.0113 66.008C36.2193 66.376 36.4913 66.66 36.8273 66.86C37.1713 67.052 37.5433 67.148 37.9433 67.148C38.3513 67.148 38.7233 67.052 39.0593 66.86C39.4033 66.66 39.6753 66.376 39.8753 66.008C40.0753 65.632 40.1753 65.192 40.1753 64.688ZM45.5967 68.108C44.9807 68.108 44.4207 67.968 43.9167 67.688C43.4207 67.408 43.0287 67.012 42.7407 66.5C42.4607 65.98 42.3207 65.38 42.3207 64.7C42.3207 64.028 42.4647 63.436 42.7527 62.924C43.0487 62.404 43.4487 62.008 43.9527 61.736C44.4567 61.456 45.0207 61.316 45.6447 61.316C46.2687 61.316 46.8327 61.456 47.3367 61.736C47.8407 62.008 48.2367 62.4 48.5247 62.912C48.8207 63.424 48.9687 64.02 48.9687 64.7C48.9687 65.38 48.8167 65.98 48.5127 66.5C48.2167 67.012 47.8127 67.408 47.3007 67.688C46.7887 67.968 46.2207 68.108 45.5967 68.108ZM45.5967 67.148C45.9887 67.148 46.3567 67.056 46.7007 66.872C47.0447 66.688 47.3207 66.412 47.5287 66.044C47.7447 65.676 47.8527 65.228 47.8527 64.7C47.8527 64.172 47.7487 63.724 47.5407 63.356C47.3327 62.988 47.0607 62.716 46.7247 62.54C46.3887 62.356 46.0247 62.264 45.6327 62.264C45.2327 62.264 44.8647 62.356 44.5287 62.54C44.2007 62.716 43.9367 62.988 43.7367 63.356C43.5367 63.724 43.4367 64.172 43.4367 64.7C43.4367 65.236 43.5327 65.688 43.7247 66.056C43.9247 66.424 44.1887 66.7 44.5167 66.884C44.8447 67.06 45.2047 67.148 45.5967 67.148ZM51.4965 62.492C51.6885 62.116 51.9605 61.824 52.3125 61.616C52.6725 61.408 53.1085 61.304 53.6205 61.304V62.432H53.3325C52.1085 62.432 51.4965 63.096 51.4965 64.424V68H50.4045V61.424H51.4965V62.492ZM56.213 62.324V66.2C56.213 66.52 56.281 66.748 56.417 66.884C56.553 67.012 56.789 67.076 57.125 67.076H57.929V68H56.945C56.337 68 55.881 67.86 55.577 67.58C55.273 67.3 55.121 66.84 55.121 66.2V62.324H54.269V61.424H55.121V59.768H56.213V61.424H57.929V62.324H56.213ZM61.5801 68.108C61.0761 68.108 60.6241 68.024 60.2241 67.856C59.8241 67.68 59.5081 67.44 59.2761 67.136C59.0441 66.824 58.9161 66.468 58.8921 66.068H60.0201C60.0521 66.396 60.2041 66.664 60.4761 66.872C60.7561 67.08 61.1201 67.184 61.5681 67.184C61.9841 67.184 62.3121 67.092 62.5521 66.908C62.7921 66.724 62.9121 66.492 62.9121 66.212C62.9121 65.924 62.7841 65.712 62.5281 65.576C62.2721 65.432 61.8761 65.292 61.3401 65.156C60.8521 65.028 60.4521 64.9 60.1401 64.772C59.8361 64.636 59.5721 64.44 59.3481 64.184C59.1321 63.92 59.0241 63.576 59.0241 63.152C59.0241 62.816 59.1241 62.508 59.3241 62.228C59.5241 61.948 59.8081 61.728 60.1761 61.568C60.5441 61.4 60.9641 61.316 61.4361 61.316C62.1641 61.316 62.7521 61.5 63.2001 61.868C63.6481 62.236 63.8881 62.74 63.9201 63.38H62.8281C62.8041 63.036 62.6641 62.76 62.4081 62.552C62.1601 62.344 61.8241 62.24 61.4001 62.24C61.0081 62.24 60.6961 62.324 60.4641 62.492C60.2321 62.66 60.1161 62.88 60.1161 63.152C60.1161 63.368 60.1841 63.548 60.3201 63.692C60.4641 63.828 60.6401 63.94 60.8481 64.028C61.0641 64.108 61.3601 64.2 61.7361 64.304C62.2081 64.432 62.5921 64.56 62.8881 64.688C63.1841 64.808 63.4361 64.992 63.6441 65.24C63.8601 65.488 63.9721 65.812 63.9801 66.212C63.9801 66.572 63.8801 66.896 63.6801 67.184C63.4801 67.472 63.1961 67.7 62.8281 67.868C62.4681 68.028 62.0521 68.108 61.5801 68.108Z" fill="#27272A"/>
</svg>
