<svg width="90" height="96" viewBox="0 0 90 96" fill="none" xmlns="http://www.w3.org/2000/svg">
<path d="M62.0666 44.9986H43.973C43.359 44.9986 42.8604 44.4952 42.8604 43.8753C42.8604 43.2555 43.359 42.752 43.973 42.752H62.0666C62.6806 42.752 63.1793 43.2555 63.1793 43.8753C63.1793 44.4952 62.6806 44.9986 62.0666 44.9986Z" fill="#786DEF"/>
<path d="M43.9727 45C53.2903 45 60.8437 37.3941 60.8437 28.0117C60.8437 18.6294 53.2903 11.0234 43.9727 11.0234C34.655 11.0234 27.1016 18.6294 27.1016 28.0117C27.1016 37.3941 34.655 45 43.9727 45Z" fill="#BEB9F8"/>
<path d="M43.974 22.5845C46.2664 22.5845 48.1247 20.7135 48.1247 18.4055C48.1247 16.0975 46.2664 14.2264 43.974 14.2264C41.6816 14.2264 39.8232 16.0975 39.8232 18.4055C39.8232 20.7135 41.6816 22.5845 43.974 22.5845Z" fill="#786DEF"/>
<path d="M54.327 29.0144C52.1474 29.7282 49.8053 28.5264 49.0969 26.3331C48.3884 24.1384 49.5817 21.781 51.7612 21.0672C53.9408 20.3534 56.2815 21.5552 56.9913 23.7499C57.6998 25.9446 56.5065 28.302 54.327 29.0158V29.0144Z" fill="#786DEF"/>
<path d="M46.2242 38.2336C44.8767 36.3671 45.2865 33.753 47.141 32.3969C48.9955 31.0395 51.5904 31.4532 52.9379 33.3197C54.2853 35.1863 53.8755 37.7989 52.021 39.1564C50.1665 40.5139 47.5716 40.1002 46.2242 38.2336Z" fill="#786DEF"/>
<path d="M35.0113 33.3253C36.3574 31.4573 38.9523 31.0436 40.8082 32.3983C42.6627 33.7544 43.0752 36.367 41.7278 38.235C40.3803 40.1029 37.7868 40.5166 35.9309 39.1605C34.0764 37.8045 33.6638 35.1918 35.0113 33.3253Z" fill="#786DEF"/>
<path d="M36.1822 21.0714C38.3618 21.7838 39.5564 24.1398 38.8494 26.3359C38.1423 28.5306 35.8016 29.7338 33.6206 29.0214C31.4411 28.309 30.2464 25.9516 30.9535 23.7569C31.6606 21.5622 34.0013 20.3604 36.1822 21.0714Z" fill="#786DEF"/>
<path opacity="0.1" d="M42.8307 18.4055C42.8307 16.6315 43.9281 15.1169 45.477 14.5111C45.0103 14.3288 44.5032 14.2278 43.9726 14.2278C41.6805 14.2278 39.8232 16.0986 39.8232 18.4069C39.8232 20.7152 41.6819 22.586 43.9726 22.586C44.5032 22.586 45.0103 22.485 45.477 22.3027C43.9281 21.6955 42.8307 20.1809 42.8307 18.4083V18.4055Z" fill="black"/>
<path opacity="0.1" d="M38.9397 39.1605C37.0852 37.8045 36.6727 35.1918 38.0201 33.3253C38.5077 32.6494 39.1578 32.1655 39.876 31.8851C38.1604 31.2119 36.1448 31.7546 35.0126 33.3253C33.6666 35.1933 34.0778 37.8059 35.9323 39.1605C37.1158 40.0258 38.6022 40.1689 39.8719 39.6738C39.5468 39.5462 39.2342 39.3765 38.9397 39.1605Z" fill="black"/>
<path opacity="0.1" d="M33.9611 23.7555C34.3612 22.5144 35.2836 21.5903 36.4046 21.1513C36.331 21.1233 36.2574 21.0952 36.1823 21.0714C34.0014 20.359 31.6607 21.5608 30.9536 23.7569C30.2466 25.9516 31.4398 28.309 33.6208 29.0214C34.5682 29.3313 35.5447 29.278 36.406 28.9415C34.3681 28.1463 33.279 25.8773 33.9625 23.7583L33.9611 23.7555Z" fill="black"/>
<path d="M42.8082 30.2583C41.4746 29.5753 40.9453 27.9332 41.6232 26.5911C42.3025 25.249 43.9334 24.7147 45.267 25.3991C46.5991 26.082 47.1298 27.7242 46.4505 29.0677C45.7712 30.4097 44.1404 30.9441 42.8068 30.2597L42.8082 30.2583Z" fill="#786DEF"/>
<path d="M18.2283 59.696V68H17.1363V61.808L14.3763 68H13.6083L10.8363 61.796V68H9.74431V59.696H10.9203L13.9923 66.56L17.0643 59.696H18.2283ZM22.9483 68.108C22.3323 68.108 21.7723 67.968 21.2683 67.688C20.7723 67.408 20.3803 67.012 20.0923 66.5C19.8123 65.98 19.6723 65.38 19.6723 64.7C19.6723 64.028 19.8163 63.436 20.1043 62.924C20.4003 62.404 20.8003 62.008 21.3043 61.736C21.8083 61.456 22.3723 61.316 22.9963 61.316C23.6203 61.316 24.1843 61.456 24.6883 61.736C25.1923 62.008 25.5883 62.4 25.8763 62.912C26.1723 63.424 26.3203 64.02 26.3203 64.7C26.3203 65.38 26.1683 65.98 25.8643 66.5C25.5683 67.012 25.1643 67.408 24.6523 67.688C24.1403 67.968 23.5723 68.108 22.9483 68.108ZM22.9483 67.148C23.3403 67.148 23.7083 67.056 24.0523 66.872C24.3963 66.688 24.6723 66.412 24.8803 66.044C25.0963 65.676 25.2043 65.228 25.2043 64.7C25.2043 64.172 25.1003 63.724 24.8923 63.356C24.6843 62.988 24.4123 62.716 24.0763 62.54C23.7403 62.356 23.3763 62.264 22.9843 62.264C22.5843 62.264 22.2163 62.356 21.8803 62.54C21.5523 62.716 21.2883 62.988 21.0883 63.356C20.8883 63.724 20.7883 64.172 20.7883 64.7C20.7883 65.236 20.8843 65.688 21.0763 66.056C21.2763 66.424 21.5403 66.7 21.8683 66.884C22.1963 67.06 22.5563 67.148 22.9483 67.148ZM30.204 66.992L32.244 61.424H33.408L30.828 68H29.556L26.976 61.424H28.152L30.204 66.992ZM35.0466 60.356C34.8386 60.356 34.6626 60.284 34.5186 60.14C34.3746 59.996 34.3026 59.82 34.3026 59.612C34.3026 59.404 34.3746 59.228 34.5186 59.084C34.6626 58.94 34.8386 58.868 35.0466 58.868C35.2466 58.868 35.4146 58.94 35.5506 59.084C35.6946 59.228 35.7666 59.404 35.7666 59.612C35.7666 59.82 35.6946 59.996 35.5506 60.14C35.4146 60.284 35.2466 60.356 35.0466 60.356ZM35.5746 61.424V68H34.4826V61.424H35.5746ZM43.4357 64.46C43.4357 64.668 43.4237 64.888 43.3997 65.12H38.1437C38.1837 65.768 38.4037 66.276 38.8037 66.644C39.2117 67.004 39.7037 67.184 40.2797 67.184C40.7517 67.184 41.1437 67.076 41.4557 66.86C41.7757 66.636 41.9997 66.34 42.1277 65.972H43.3037C43.1277 66.604 42.7757 67.12 42.2477 67.52C41.7197 67.912 41.0637 68.108 40.2797 68.108C39.6557 68.108 39.0957 67.968 38.5997 67.688C38.1117 67.408 37.7277 67.012 37.4477 66.5C37.1677 65.98 37.0277 65.38 37.0277 64.7C37.0277 64.02 37.1637 63.424 37.4357 62.912C37.7077 62.4 38.0877 62.008 38.5757 61.736C39.0717 61.456 39.6397 61.316 40.2797 61.316C40.9037 61.316 41.4557 61.452 41.9357 61.724C42.4157 61.996 42.7837 62.372 43.0397 62.852C43.3037 63.324 43.4357 63.86 43.4357 64.46ZM42.3077 64.232C42.3077 63.816 42.2157 63.46 42.0317 63.164C41.8477 62.86 41.5957 62.632 41.2757 62.48C40.9637 62.32 40.6157 62.24 40.2317 62.24C39.6797 62.24 39.2077 62.416 38.8157 62.768C38.4317 63.12 38.2117 63.608 38.1557 64.232H42.3077ZM47.6683 63.812C47.6683 62.996 47.8523 62.264 48.2203 61.616C48.5883 60.96 49.0883 60.448 49.7203 60.08C50.3603 59.712 51.0683 59.528 51.8443 59.528C52.7563 59.528 53.5523 59.748 54.2323 60.188C54.9123 60.628 55.4083 61.252 55.7203 62.06H54.4123C54.1803 61.556 53.8443 61.168 53.4043 60.896C52.9723 60.624 52.4523 60.488 51.8443 60.488C51.2603 60.488 50.7363 60.624 50.2723 60.896C49.8083 61.168 49.4443 61.556 49.1803 62.06C48.9163 62.556 48.7843 63.14 48.7843 63.812C48.7843 64.476 48.9163 65.06 49.1803 65.564C49.4443 66.06 49.8083 66.444 50.2723 66.716C50.7363 66.988 51.2603 67.124 51.8443 67.124C52.4523 67.124 52.9723 66.992 53.4043 66.728C53.8443 66.456 54.1803 66.068 54.4123 65.564H55.7203C55.4083 66.364 54.9123 66.984 54.2323 67.424C53.5523 67.856 52.7563 68.072 51.8443 68.072C51.0683 68.072 50.3603 67.892 49.7203 67.532C49.0883 67.164 48.5883 66.656 48.2203 66.008C47.8523 65.36 47.6683 64.628 47.6683 63.812ZM58.4379 59.12V68H57.3459V59.12H58.4379ZM66.131 61.424V68H65.039V67.028C64.831 67.364 64.539 67.628 64.163 67.82C63.795 68.004 63.387 68.096 62.939 68.096C62.427 68.096 61.967 67.992 61.559 67.784C61.151 67.568 60.827 67.248 60.587 66.824C60.355 66.4 60.239 65.884 60.239 65.276V61.424H61.319V65.132C61.319 65.78 61.483 66.28 61.811 66.632C62.139 66.976 62.587 67.148 63.155 67.148C63.739 67.148 64.199 66.968 64.535 66.608C64.871 66.248 65.039 65.724 65.039 65.036V61.424H66.131ZM69.0668 62.648C69.2908 62.256 69.6188 61.936 70.0508 61.688C70.4828 61.44 70.9748 61.316 71.5268 61.316C72.1188 61.316 72.6508 61.456 73.1228 61.736C73.5948 62.016 73.9668 62.412 74.2388 62.924C74.5108 63.428 74.6468 64.016 74.6468 64.688C74.6468 65.352 74.5108 65.944 74.2388 66.464C73.9668 66.984 73.5908 67.388 73.1108 67.676C72.6388 67.964 72.1108 68.108 71.5268 68.108C70.9588 68.108 70.4588 67.984 70.0268 67.736C69.6028 67.488 69.2828 67.172 69.0668 66.788V68H67.9748V59.12H69.0668V62.648ZM73.5308 64.688C73.5308 64.192 73.4308 63.76 73.2308 63.392C73.0308 63.024 72.7588 62.744 72.4148 62.552C72.0788 62.36 71.7068 62.264 71.2988 62.264C70.8988 62.264 70.5268 62.364 70.1828 62.564C69.8468 62.756 69.5748 63.04 69.3668 63.416C69.1668 63.784 69.0668 64.212 69.0668 64.7C69.0668 65.196 69.1668 65.632 69.3668 66.008C69.5748 66.376 69.8468 66.66 70.1828 66.86C70.5268 67.052 70.8988 67.148 71.2988 67.148C71.7068 67.148 72.0788 67.052 72.4148 66.86C72.7588 66.66 73.0308 66.376 73.2308 66.008C73.4308 65.632 73.5308 65.192 73.5308 64.688ZM78.4122 68.108C77.9082 68.108 77.4562 68.024 77.0562 67.856C76.6562 67.68 76.3402 67.44 76.1082 67.136C75.8762 66.824 75.7482 66.468 75.7242 66.068H76.8522C76.8842 66.396 77.0362 66.664 77.3082 66.872C77.5882 67.08 77.9522 67.184 78.4002 67.184C78.8162 67.184 79.1442 67.092 79.3842 66.908C79.6242 66.724 79.7442 66.492 79.7442 66.212C79.7442 65.924 79.6162 65.712 79.3602 65.576C79.1042 65.432 78.7082 65.292 78.1722 65.156C77.6842 65.028 77.2842 64.9 76.9722 64.772C76.6682 64.636 76.4042 64.44 76.1802 64.184C75.9642 63.92 75.8562 63.576 75.8562 63.152C75.8562 62.816 75.9562 62.508 76.1562 62.228C76.3562 61.948 76.6402 61.728 77.0082 61.568C77.3762 61.4 77.7962 61.316 78.2682 61.316C78.9962 61.316 79.5842 61.5 80.0322 61.868C80.4802 62.236 80.7202 62.74 80.7522 63.38H79.6602C79.6362 63.036 79.4962 62.76 79.2402 62.552C78.9922 62.344 78.6562 62.24 78.2322 62.24C77.8402 62.24 77.5282 62.324 77.2962 62.492C77.0642 62.66 76.9482 62.88 76.9482 63.152C76.9482 63.368 77.0162 63.548 77.1522 63.692C77.2962 63.828 77.4722 63.94 77.6802 64.028C77.8962 64.108 78.1922 64.2 78.5682 64.304C79.0402 64.432 79.4242 64.56 79.7202 64.688C80.0162 64.808 80.2682 64.992 80.4762 65.24C80.6922 65.488 80.8042 65.812 80.8122 66.212C80.8122 66.572 80.7122 66.896 80.5122 67.184C80.3122 67.472 80.0282 67.7 79.6602 67.868C79.3002 68.028 78.8842 68.108 78.4122 68.108Z" fill="#27272A"/>
</svg>
