<svg width="90" height="96" viewBox="0 0 90 96" fill="none" xmlns="http://www.w3.org/2000/svg">
<g clip-path="url(#clip0_2317_1840)">
<path d="M27.6508 17.4133H25.7852C25.4203 17.4133 25.125 17.7086 25.125 18.0734V42.2156C25.125 42.5797 25.4203 42.8758 25.7852 42.8758H43.4813C43.5742 43.2812 43.9359 43.5844 44.3703 43.5844H46.0117C46.4453 43.5844 46.8078 43.2812 46.9008 42.8758H64.4656C64.8305 42.8758 65.1258 42.5805 65.1258 42.2156V18.0734C65.1258 17.7086 64.8305 17.4133 64.4656 17.4133H62.6V40.6641C62.6 40.9141 62.3641 41.0992 62.1148 41.0469C60.5664 40.7195 58.9672 40.1125 56.8844 39.0391C52.5812 36.8219 48.9672 38.0125 46.925 39.1555C46.8461 39.2039 45.8273 39.7601 45.1266 40.4242C44.7094 40.0266 43.8813 39.4609 43.4594 39.2305C41.443 38.0664 37.7656 36.7742 33.3687 39.0391C31.2859 40.1125 29.6867 40.7195 28.1383 41.0469C27.8883 41.1 27.6531 40.9141 27.6531 40.6641V17.4133" fill="#4DB2B4"/>
<path d="M27.5398 17.4133H25.7852C25.4203 17.4133 25.125 17.7086 25.125 18.0734V42.2156C25.125 42.5797 25.4203 42.8758 25.7852 42.8758H27.5398V17.4133Z" fill="#2DAEB1"/>
<path d="M62.3557 39.261C60.8072 38.9258 58.9666 38.3039 56.8838 37.2063C50.165 33.6633 45.0596 38.6586 45.0596 38.6586L45.126 40.8266C45.126 40.8266 50.165 35.9797 56.8838 39.4414C58.9666 40.5149 60.8072 41.1219 62.3557 41.4492C62.6057 41.5024 62.8408 41.3164 62.8408 41.0664V38.8696C62.8408 39.125 62.6049 39.3149 62.3557 39.261Z" fill="#D5EDED"/>
<path d="M47.5922 36.9734C45.9945 37.7422 45.0586 38.6578 45.0586 38.6578L45.125 40.8258C45.125 40.8258 46.0336 39.9524 47.5922 39.2117V36.9734Z" fill="#BFE4E4"/>
<path d="M33.3672 37.2062C31.2844 38.3047 29.4437 38.9265 27.8953 39.2609C27.6453 39.3148 27.4102 39.125 27.4102 38.8695V41.0664C27.4102 41.3164 27.6461 41.5015 27.8953 41.4492C29.4437 41.1219 31.2844 40.5148 33.3672 39.4414C40.0859 35.9797 45.125 40.8265 45.125 40.8265V38.6242C45.125 38.6242 40.0859 33.664 33.3672 37.207V37.2062Z" fill="#D5EDED"/>
<path d="M29.824 38.7313C29.1389 38.9578 28.4943 39.1313 27.8943 39.2617C27.6443 39.3156 27.4092 39.1258 27.4092 38.8703V41.0672C27.4092 41.3172 27.6451 41.5024 27.8943 41.45C28.4943 41.3235 29.1389 41.1539 29.824 40.932V38.732V38.7313Z" fill="#BFE4E4"/>
<path d="M62.5209 15.8195C60.9389 15.4938 59.0404 14.8672 56.8826 13.7297C50.1639 10.1867 45.0889 15.182 45.0889 15.182L45.1248 38.6242C45.1248 38.6242 50.1639 33.6641 56.8826 37.2071C58.9654 38.3055 60.8061 38.9274 62.3545 39.2617C62.6045 39.3156 62.8396 39.1258 62.8396 38.8703V16.211C62.8396 16.0211 62.7068 15.8578 62.5201 15.8195H62.5209Z" fill="#E8F5F5"/>
<path d="M47.592 13.5055C46.0123 14.2727 45.0889 15.1813 45.0889 15.1813L45.1248 38.6242C45.1248 38.6242 46.0334 37.7305 47.592 36.9727V13.5055Z" fill="#D5EDED"/>
<path d="M59.3691 20.4305C58.4559 20.0844 57.5246 19.6617 56.6012 19.175C52.9848 17.268 49.8895 17.9805 47.9301 18.9141C47.6293 19.0578 47.2691 18.9297 47.1254 18.6289C46.9816 18.3281 47.1098 17.968 47.4105 17.8242C49.6199 16.7719 53.1051 15.9664 57.1637 18.1071C58.0434 18.5711 58.9293 18.9735 59.7965 19.3016C60.1082 19.4196 60.2652 19.768 60.1465 20.0797C60.0285 20.3914 59.6801 20.5485 59.3684 20.4297L59.3691 20.4305Z" fill="#D5EDED"/>
<path d="M59.3691 23.4133C58.4559 23.0672 57.5246 22.6445 56.6012 22.1578C52.9848 20.2508 49.8895 20.9633 47.9301 21.8969C47.6293 22.0406 47.2691 21.9125 47.1254 21.6117C46.9816 21.3109 47.1098 20.9508 47.4105 20.807C49.6199 19.7547 53.1051 18.9492 57.1637 21.0898C58.0434 21.5539 58.9293 21.9562 59.7965 22.2844C60.1082 22.4023 60.2652 22.7508 60.1465 23.0625C60.0285 23.3742 59.6801 23.5312 59.3684 23.4125L59.3691 23.4133Z" fill="#D5EDED"/>
<path d="M59.3691 26.3961C58.4559 26.05 57.5246 25.6273 56.6012 25.1406C52.9848 23.2336 49.8895 23.9461 47.9301 24.8797C47.6293 25.0226 47.2691 24.8953 47.1254 24.5945C46.9816 24.2937 47.1098 23.9336 47.4105 23.7898C49.6199 22.7375 53.1051 21.932 57.1637 24.0726C58.0434 24.5367 58.9293 24.9383 59.7965 25.2672C60.1082 25.3851 60.2652 25.7336 60.1465 26.0453C60.0285 26.357 59.6801 26.514 59.3684 26.3953L59.3691 26.3961Z" fill="#D5EDED"/>
<path d="M59.3691 29.3797C58.4559 29.0336 57.5246 28.611 56.6012 28.1242C52.9848 26.2172 49.8895 26.9297 47.9301 27.8633C47.6293 28.0071 47.2691 27.8789 47.1254 27.5781C46.9816 27.2774 47.1098 26.9172 47.4105 26.7735C49.6199 25.7211 53.1051 24.9156 57.1637 27.0563C58.0441 27.5203 58.9293 27.9227 59.7965 28.2508C60.1082 28.3688 60.2652 28.7172 60.1465 29.0289C60.0285 29.3406 59.6801 29.4977 59.3684 29.3789L59.3691 29.3797Z" fill="#D5EDED"/>
<path d="M59.3691 32.3625C58.4566 32.0164 57.5246 31.5937 56.6012 31.107C52.9848 29.2 49.8895 29.9125 47.9301 30.8461C47.6293 30.9891 47.2691 30.8617 47.1254 30.5609C46.9816 30.2602 47.1098 29.9 47.4105 29.7562C49.6199 28.7039 53.1051 27.8984 57.1637 30.0391C58.0441 30.5031 58.9301 30.9055 59.7965 31.2336C60.1082 31.3516 60.2652 31.7 60.1465 32.0117C60.0285 32.3227 59.6809 32.4805 59.3684 32.3625H59.3691Z" fill="#D5EDED"/>
<path d="M59.3691 35.3453C58.4559 34.9992 57.5246 34.5765 56.6012 34.0898C52.9848 32.1828 49.8895 32.8953 47.9301 33.8289C47.6293 33.9718 47.2691 33.8445 47.1254 33.5437C46.9816 33.2422 47.1098 32.8828 47.4105 32.739C49.6191 31.6867 53.1051 30.8812 57.1637 33.0218C58.0434 33.4859 58.9293 33.8875 59.7965 34.2164C60.1082 34.3351 60.2652 34.6836 60.1473 34.9945C60.0285 35.3062 59.6801 35.4633 59.3691 35.3453Z" fill="#D5EDED"/>
<path d="M27.7289 15.8195C29.3109 15.4937 31.2094 14.8672 33.3672 13.7297C40.0859 10.1867 45.125 15.1468 45.125 15.1468V38.6242C45.125 38.6242 40.0859 33.664 33.3672 37.207C31.2844 38.3054 29.4437 38.9273 27.8953 39.2617C27.6453 39.3156 27.4102 39.1258 27.4102 38.8703V16.2109C27.4102 16.0211 27.543 15.8578 27.7297 15.8195H27.7289Z" fill="#E8F5F5"/>
<path d="M29.824 15.2531C29.0756 15.5016 28.3756 15.6859 27.7287 15.8187C27.5428 15.857 27.4092 16.0203 27.4092 16.2101V38.8695C27.4092 39.125 27.6451 39.3148 27.8943 39.2609C28.4943 39.1312 29.1389 38.9578 29.824 38.7305V15.2531Z" fill="#D5EDED"/>
<path d="M30.2336 20.0797C30.1156 19.768 30.2726 19.4196 30.5844 19.3016C31.4515 18.9727 32.3375 18.5711 33.2172 18.1071C37.2758 15.9664 40.7617 16.7719 42.9703 17.8242C43.2719 17.968 43.3992 18.3281 43.2554 18.6289C43.1125 18.9297 42.7515 19.0578 42.4508 18.9141C40.4906 17.9805 37.3961 17.268 33.7797 19.175C32.8562 19.6617 31.925 20.0844 31.0117 20.4305C30.7 20.5485 30.3515 20.3922 30.2336 20.0805V20.0797Z" fill="#D5EDED"/>
<path d="M30.2336 23.0625C30.1156 22.7508 30.2726 22.4023 30.5844 22.2844C31.4515 21.9555 32.3375 21.5539 33.2172 21.0898C37.2758 18.95 40.7617 19.7547 42.9703 20.807C43.2719 20.9508 43.3992 21.3109 43.2554 21.6117C43.1125 21.9125 42.7515 22.0406 42.4508 21.8969C40.4906 20.9633 37.3961 20.2508 33.7797 22.1578C32.8562 22.6445 31.925 23.0672 31.0117 23.4133C30.7 23.5312 30.3515 23.375 30.2336 23.0625Z" fill="#D5EDED"/>
<path d="M30.2336 26.0461C30.1156 25.7344 30.2726 25.3859 30.5844 25.268C31.4515 24.939 32.3375 24.5375 33.2172 24.0734C37.2758 21.9328 40.7617 22.7383 42.9703 23.7906C43.2719 23.9344 43.3992 24.2945 43.2554 24.5953C43.1125 24.8961 42.7515 25.0242 42.4508 24.8805C40.4906 23.9469 37.3961 23.2344 33.7797 25.1414C32.8562 25.6281 31.925 26.0508 31.0117 26.3969C30.7 26.5148 30.3515 26.3578 30.2336 26.0469V26.0461Z" fill="#D5EDED"/>
<path d="M30.2336 29.0289C30.1156 28.7172 30.2726 28.3688 30.5844 28.2508C31.4515 27.9219 32.3375 27.5203 33.2172 27.0563C37.2758 24.9156 40.7617 25.7211 42.9703 26.7735C43.2719 26.9172 43.3992 27.2774 43.2554 27.5781C43.1125 27.8789 42.7515 28.0071 42.4508 27.8633C40.4906 26.9297 37.3961 26.2172 33.7797 28.1242C32.8562 28.611 31.925 29.0336 31.0117 29.3797C30.7 29.4977 30.3515 29.3406 30.2336 29.0289Z" fill="#D5EDED"/>
<path d="M30.2336 32.0117C30.1156 31.7 30.2726 31.3516 30.5844 31.2336C31.4508 30.9055 32.3367 30.5031 33.2172 30.0391C37.2758 27.8984 40.7617 28.7039 42.9703 29.7562C43.2719 29.9 43.3992 30.2602 43.2554 30.5609C43.1125 30.8617 42.7515 30.9898 42.4508 30.8461C40.4906 29.9125 37.3961 29.2 33.7797 31.107C32.8562 31.5945 31.9242 32.0164 31.0117 32.3625C30.7 32.4812 30.3515 32.3234 30.2336 32.0125V32.0117Z" fill="#D5EDED"/>
<path d="M30.2339 34.9945C30.1151 34.6828 30.273 34.3343 30.5839 34.2164C31.4511 33.8875 32.337 33.4859 33.2167 33.0218C37.2761 30.8812 40.7612 31.6867 42.9698 32.739C43.2706 32.8828 43.3987 33.2429 43.255 33.5437C43.1112 33.8453 42.7511 33.9726 42.4503 33.8289C40.4909 32.8953 37.3956 32.1828 33.7792 34.0898C32.8558 34.5765 31.9245 34.9992 31.0112 35.3453C30.6995 35.464 30.3511 35.307 30.2331 34.9953L30.2339 34.9945Z" fill="#D5EDED"/>
<path d="M45.6236 40.4094C45.3283 40.636 44.9189 40.6336 44.6236 40.4071C44.3432 40.1922 43.9502 39.9156 43.458 39.6313V42.6703C43.458 43.1742 43.8666 43.5828 44.3705 43.5828H46.0119C46.5158 43.5828 46.9244 43.1742 46.9244 42.6703V39.5563C46.3689 39.8672 45.9299 40.1742 45.6244 40.4086L45.6236 40.4094Z" fill="#2DAEB1"/>
<path d="M45.8596 42.6711V40.2344C45.7744 40.2961 45.6947 40.3547 45.6236 40.4094C45.3283 40.6359 44.9189 40.6336 44.6236 40.407C44.3432 40.1922 43.9502 39.9156 43.458 39.632V42.6711C43.458 43.175 43.8666 43.5836 44.3705 43.5836H46.0119C46.1479 43.5836 46.276 43.5531 46.3924 43.5C46.0783 43.3562 45.8604 43.0398 45.8604 42.6711H45.8596Z" fill="#2BA4A6"/>
</g>
<path d="M35.7936 63.692C36.0976 63.74 36.3736 63.864 36.6216 64.064C36.8776 64.264 37.0776 64.512 37.2216 64.808C37.3736 65.104 37.4496 65.42 37.4496 65.756C37.4496 66.18 37.3416 66.564 37.1256 66.908C36.9096 67.244 36.5936 67.512 36.1776 67.712C35.7696 67.904 35.2856 68 34.7256 68H31.6056V59.636H34.6056C35.1736 59.636 35.6576 59.732 36.0576 59.924C36.4576 60.108 36.7576 60.36 36.9576 60.68C37.1576 61 37.2576 61.36 37.2576 61.76C37.2576 62.256 37.1216 62.668 36.8496 62.996C36.5856 63.316 36.2336 63.548 35.7936 63.692ZM32.6976 63.248H34.5336C35.0456 63.248 35.4416 63.128 35.7216 62.888C36.0016 62.648 36.1416 62.316 36.1416 61.892C36.1416 61.468 36.0016 61.136 35.7216 60.896C35.4416 60.656 35.0376 60.536 34.5096 60.536H32.6976V63.248ZM34.6296 67.1C35.1736 67.1 35.5976 66.972 35.9016 66.716C36.2056 66.46 36.3576 66.104 36.3576 65.648C36.3576 65.184 36.1976 64.82 35.8776 64.556C35.5576 64.284 35.1296 64.148 34.5936 64.148H32.6976V67.1H34.6296ZM41.833 68.108C41.217 68.108 40.657 67.968 40.153 67.688C39.657 67.408 39.265 67.012 38.977 66.5C38.697 65.98 38.557 65.38 38.557 64.7C38.557 64.028 38.701 63.436 38.989 62.924C39.285 62.404 39.685 62.008 40.189 61.736C40.693 61.456 41.257 61.316 41.881 61.316C42.505 61.316 43.069 61.456 43.573 61.736C44.077 62.008 44.473 62.4 44.761 62.912C45.057 63.424 45.205 64.02 45.205 64.7C45.205 65.38 45.053 65.98 44.749 66.5C44.453 67.012 44.049 67.408 43.537 67.688C43.025 67.968 42.457 68.108 41.833 68.108ZM41.833 67.148C42.225 67.148 42.593 67.056 42.937 66.872C43.281 66.688 43.557 66.412 43.765 66.044C43.981 65.676 44.089 65.228 44.089 64.7C44.089 64.172 43.985 63.724 43.777 63.356C43.569 62.988 43.297 62.716 42.961 62.54C42.625 62.356 42.261 62.264 41.869 62.264C41.469 62.264 41.101 62.356 40.765 62.54C40.437 62.716 40.173 62.988 39.973 63.356C39.773 63.724 39.673 64.172 39.673 64.7C39.673 65.236 39.769 65.688 39.961 66.056C40.161 66.424 40.425 66.7 40.753 66.884C41.081 67.06 41.441 67.148 41.833 67.148ZM49.5088 68.108C48.8928 68.108 48.3328 67.968 47.8288 67.688C47.3328 67.408 46.9408 67.012 46.6528 66.5C46.3728 65.98 46.2328 65.38 46.2328 64.7C46.2328 64.028 46.3768 63.436 46.6648 62.924C46.9608 62.404 47.3608 62.008 47.8648 61.736C48.3688 61.456 48.9328 61.316 49.5568 61.316C50.1808 61.316 50.7448 61.456 51.2488 61.736C51.7528 62.008 52.1488 62.4 52.4368 62.912C52.7328 63.424 52.8808 64.02 52.8808 64.7C52.8808 65.38 52.7288 65.98 52.4248 66.5C52.1288 67.012 51.7248 67.408 51.2128 67.688C50.7008 67.968 50.1328 68.108 49.5088 68.108ZM49.5088 67.148C49.9008 67.148 50.2688 67.056 50.6128 66.872C50.9568 66.688 51.2328 66.412 51.4408 66.044C51.6568 65.676 51.7648 65.228 51.7648 64.7C51.7648 64.172 51.6608 63.724 51.4528 63.356C51.2448 62.988 50.9728 62.716 50.6368 62.54C50.3008 62.356 49.9368 62.264 49.5448 62.264C49.1448 62.264 48.7768 62.356 48.4408 62.54C48.1128 62.716 47.8488 62.988 47.6488 63.356C47.4488 63.724 47.3488 64.172 47.3488 64.7C47.3488 65.236 47.4448 65.688 47.6368 66.056C47.8368 66.424 48.1008 66.7 48.4288 66.884C48.7568 67.06 49.1168 67.148 49.5088 67.148ZM57.9886 68L55.4086 65.096V68H54.3166V59.12H55.4086V64.34L57.9406 61.424H59.4646L56.3686 64.7L59.4766 68H57.9886Z" fill="#27272A"/>
<defs>
<clipPath id="clip0_2317_1840">
<rect width="40" height="40" fill="white" transform="translate(25.125 8)"/>
</clipPath>
</defs>
</svg>
