<svg width="90" height="96" viewBox="0 0 90 96" fill="none" xmlns="http://www.w3.org/2000/svg">
<g clip-path="url(#clip0_2317_1952)">
<path d="M56.8859 38.5605C56.7352 39.7589 56.2445 40.8697 55.4562 41.7934C54.5891 42.8094 53.443 43.5029 52.143 43.8012C51.6844 43.9053 51.2227 43.9577 50.7625 43.9577C49.9172 43.9577 49.0797 43.7816 48.2891 43.4333C45.2234 42.083 41.7125 42.0705 38.6391 43.3973L38.557 43.4333C37.3359 43.971 36.0031 44.0986 34.7023 43.8004C33.4023 43.5029 32.2563 42.8086 31.3898 41.7934C30.6016 40.8681 30.1117 39.7573 29.9609 38.5605C30.0758 37.6603 30.3883 36.7984 30.8859 36.0204L35.2234 29.2407C37.0227 26.4274 40.0883 24.7476 43.4234 24.7476C46.7586 24.7476 49.8234 26.4274 51.6234 29.2407L55.9609 36.0196C56.4586 36.7984 56.7711 37.6611 56.8859 38.5605Z" fill="#FF8D5C"/>
<path d="M56.921 38.5724C56.8296 39.9063 56.3225 42.353 55.4561 43.3683C54.589 44.3843 53.4429 45.0787 52.1429 45.3761C51.6843 45.4802 51.2225 45.5327 50.7624 45.5327C49.9171 45.5327 49.0796 45.3566 48.289 45.0082C45.2233 43.6579 41.7124 43.6454 38.639 44.9722L38.5569 45.0082C37.3358 45.546 36.003 45.6736 34.7022 45.3753C33.4022 45.0779 32.2561 44.3836 31.3897 43.3683C30.5233 42.3515 30.0171 39.9047 29.9257 38.5716C29.8976 38.1614 30.1983 37.4 30.2499 37C30.4007 38.1969 30.6015 39.6628 31.3897 40.5881C32.2561 41.6033 33.4022 42.2976 34.7022 42.5951C36.003 42.8933 37.3358 42.7657 38.5569 42.228L38.639 42.192C41.7124 40.8652 45.2233 40.8777 48.289 42.228C49.0796 42.5763 49.9171 42.7524 50.7624 42.7524C51.2226 42.7524 51.6843 42.7 52.1429 42.5959C53.4429 42.2976 54.589 41.6041 55.4561 40.5881C56.2444 39.6644 56.3241 38.1977 56.4749 37C56.5264 37.3992 56.9491 38.1622 56.921 38.5724Z" fill="#FFBA9C"/>
<path d="M34.8145 26.2982C34.3254 27.6939 33.3449 28.735 32.0543 29.2321C31.5277 29.4356 30.9832 29.5319 30.4395 29.5319C28.7793 29.5319 27.1332 28.6309 26.0605 27.1217C26.948 27.7495 27.9754 28.0986 29.009 28.0986C29.552 28.0986 30.0973 28.0016 30.6238 27.7988C31.9145 27.3018 32.8941 26.2599 33.384 24.865C33.8496 23.5374 33.8121 22.0384 33.2762 20.6442C33.0785 20.1299 32.8207 19.6509 32.5129 19.2172C33.4863 19.9029 34.2535 20.8986 34.7066 22.0775C35.2426 23.4716 35.2809 24.9706 34.8145 26.2982Z" fill="#FFBA9C"/>
<path d="M33.3837 24.8649C32.8938 26.2599 31.9141 27.3017 30.6235 27.7988C30.097 28.0015 29.5516 28.0986 29.0087 28.0986C27.9751 28.0986 26.9477 27.7495 26.0602 27.1217C25.7579 26.6959 25.5009 26.2207 25.3024 25.7049C24.172 22.7577 25.3618 19.5491 27.9532 18.551C29.2415 18.0532 30.6657 18.1683 31.9618 18.8743C32.1516 18.9777 32.336 19.0927 32.5126 19.2172C32.8204 19.6509 33.0782 20.1299 33.2759 20.6442C33.8118 22.0383 33.8493 23.5373 33.3837 24.8649Z" fill="#FF8D5C"/>
<path d="M46.3455 17.2133C46.3455 19.8067 45.0494 22.0611 43.158 23.1765C42.3518 23.6525 41.4377 23.921 40.4697 23.921C40.2377 23.921 40.008 23.9053 39.783 23.8748C36.8658 23.4857 34.5947 20.6466 34.5947 17.2133C34.5947 16.9918 34.6041 16.7726 34.6229 16.5566C34.9135 19.9476 37.4252 22.6067 40.4697 22.6067C43.5143 22.6067 46.0268 19.9476 46.3174 16.5566C46.3361 16.7726 46.3455 16.9918 46.3455 17.2133Z" fill="#FFBA9C"/>
<path d="M46.3176 16.5565C46.027 19.9475 43.5152 22.6066 40.4699 22.6066C37.4246 22.6066 34.9137 19.9475 34.623 16.5565C34.9129 13.1648 37.4246 10.5049 40.4699 10.5049C43.5152 10.5049 46.0277 13.1648 46.3176 16.5565Z" fill="#FF8D5C"/>
<path d="M56.444 23.6658C55.3221 25.0137 53.7409 25.8137 52.1307 25.8137C51.6245 25.8137 51.1159 25.7339 50.6174 25.5687C47.794 24.6278 46.3651 21.247 47.4315 18.0313C47.8799 16.6787 48.7096 15.5257 49.7932 14.7358C49.2596 15.3785 48.8401 16.1339 48.5643 16.9652C47.4979 20.1808 48.9268 23.5617 51.7503 24.5026C52.2487 24.6685 52.7573 24.7476 53.2635 24.7476C54.3862 24.7476 55.4948 24.3585 56.444 23.6658Z" fill="#FFBA9C"/>
<path d="M57.6745 21.4426C57.394 22.2857 56.9698 23.0356 56.444 23.6657C55.4948 24.3585 54.3862 24.7475 53.2635 24.7475C52.7573 24.7475 52.2487 24.6685 51.7503 24.5025C48.9268 23.5616 47.4979 20.1808 48.5643 16.9652C48.8401 16.1338 49.2596 15.3785 49.7932 14.7358C49.9307 14.6356 50.0721 14.5409 50.2175 14.4524C51.569 13.6321 53.0854 13.4372 54.4878 13.9045C55.8893 14.371 56.9878 15.4364 57.5807 16.9041C58.1471 18.3061 58.1799 19.9178 57.6745 21.4426Z" fill="#FF8D5C"/>
<path d="M63.3072 32.8031C62.1314 34.1503 60.5127 34.8775 58.951 34.8775C57.9674 34.8775 57.0057 34.5894 56.1924 33.9851C53.9611 32.3303 53.6689 28.9197 55.5408 26.3835C56.0705 25.6665 56.7174 25.0951 57.4236 24.6826C57.308 24.8141 57.1971 24.9518 57.0908 25.0959C55.2189 27.6328 55.5119 31.0426 57.7424 32.6974C58.5564 33.3017 59.5174 33.5898 60.5018 33.5898C61.4861 33.5898 62.426 33.3197 63.3072 32.8031Z" fill="#FFBA9C"/>
<path d="M63.6419 32.3883C63.5357 32.5323 63.424 32.6708 63.3068 32.8031C62.4255 33.3198 61.4529 33.5898 60.5013 33.5898C59.5497 33.5898 58.556 33.3018 57.7419 32.6975C55.5115 31.0427 55.2185 27.6329 57.0904 25.0959C57.1966 24.9519 57.3076 24.8141 57.4232 24.6826C59.2146 23.6321 61.3865 23.5984 62.9888 24.7851H62.9904C65.2208 26.4415 65.5138 29.8513 63.6419 32.3883Z" fill="#FF8D5C"/>
</g>
<path d="M42.0101 62.084C42.0101 62.78 41.7701 63.36 41.2901 63.824C40.8181 64.28 40.0941 64.508 39.1181 64.508H37.5101V68H36.4181V59.636H39.1181C40.0621 59.636 40.7781 59.864 41.2661 60.32C41.7621 60.776 42.0101 61.364 42.0101 62.084ZM39.1181 63.608C39.7261 63.608 40.1741 63.476 40.4621 63.212C40.7501 62.948 40.8941 62.572 40.8941 62.084C40.8941 61.052 40.3021 60.536 39.1181 60.536H37.5101V63.608H39.1181ZM49.3674 64.46C49.3674 64.668 49.3554 64.888 49.3314 65.12H44.0754C44.1154 65.768 44.3354 66.276 44.7354 66.644C45.1434 67.004 45.6354 67.184 46.2114 67.184C46.6834 67.184 47.0754 67.076 47.3874 66.86C47.7074 66.636 47.9314 66.34 48.0594 65.972H49.2354C49.0594 66.604 48.7074 67.12 48.1794 67.52C47.6514 67.912 46.9954 68.108 46.2114 68.108C45.5874 68.108 45.0274 67.968 44.5314 67.688C44.0434 67.408 43.6594 67.012 43.3794 66.5C43.0994 65.98 42.9594 65.38 42.9594 64.7C42.9594 64.02 43.0954 63.424 43.3674 62.912C43.6394 62.4 44.0194 62.008 44.5074 61.736C45.0034 61.456 45.5714 61.316 46.2114 61.316C46.8354 61.316 47.3874 61.452 47.8674 61.724C48.3474 61.996 48.7154 62.372 48.9714 62.852C49.2354 63.324 49.3674 63.86 49.3674 64.46ZM48.2394 64.232C48.2394 63.816 48.1474 63.46 47.9634 63.164C47.7794 62.86 47.5274 62.632 47.2074 62.48C46.8954 62.32 46.5474 62.24 46.1634 62.24C45.6114 62.24 45.1394 62.416 44.7474 62.768C44.3634 63.12 44.1434 63.608 44.0874 64.232H48.2394ZM52.1408 62.324V66.2C52.1408 66.52 52.2088 66.748 52.3448 66.884C52.4808 67.012 52.7168 67.076 53.0528 67.076H53.8568V68H52.8728C52.2648 68 51.8088 67.86 51.5048 67.58C51.2008 67.3 51.0488 66.84 51.0488 66.2V62.324H50.1968V61.424H51.0488V59.768H52.1408V61.424H53.8568V62.324H52.1408ZM24.036 82.14H20.388L19.716 84H18.564L21.588 75.684H22.848L25.86 84H24.708L24.036 82.14ZM23.724 81.252L22.212 77.028L20.7 81.252H23.724ZM26.7699 80.7C26.7699 80.02 26.9059 79.428 27.1779 78.924C27.4499 78.412 27.8259 78.016 28.3059 77.736C28.7939 77.456 29.3499 77.316 29.9739 77.316C30.7819 77.316 31.4459 77.512 31.9659 77.904C32.4939 78.296 32.8419 78.84 33.0099 79.536H31.8339C31.7219 79.136 31.5019 78.82 31.1739 78.588C30.8539 78.356 30.4539 78.24 29.9739 78.24C29.3499 78.24 28.8459 78.456 28.4619 78.888C28.0779 79.312 27.8859 79.916 27.8859 80.7C27.8859 81.492 28.0779 82.104 28.4619 82.536C28.8459 82.968 29.3499 83.184 29.9739 83.184C30.4539 83.184 30.8539 83.072 31.1739 82.848C31.4939 82.624 31.7139 82.304 31.8339 81.888H33.0099C32.8339 82.56 32.4819 83.1 31.9539 83.508C31.4259 83.908 30.7659 84.108 29.9739 84.108C29.3499 84.108 28.7939 83.968 28.3059 83.688C27.8259 83.408 27.4499 83.012 27.1779 82.5C26.9059 81.988 26.7699 81.388 26.7699 80.7ZM35.799 78.324V82.2C35.799 82.52 35.867 82.748 36.003 82.884C36.139 83.012 36.375 83.076 36.711 83.076H37.515V84H36.531C35.923 84 35.467 83.86 35.163 83.58C34.859 83.3 34.707 82.84 34.707 82.2V78.324H33.855V77.424H34.707V75.768H35.799V77.424H37.515V78.324H35.799ZM39.4021 76.356C39.1941 76.356 39.0181 76.284 38.8741 76.14C38.7301 75.996 38.6581 75.82 38.6581 75.612C38.6581 75.404 38.7301 75.228 38.8741 75.084C39.0181 74.94 39.1941 74.868 39.4021 74.868C39.6021 74.868 39.7701 74.94 39.9061 75.084C40.0501 75.228 40.1221 75.404 40.1221 75.612C40.1221 75.82 40.0501 75.996 39.9061 76.14C39.7701 76.284 39.6021 76.356 39.4021 76.356ZM39.9301 77.424V84H38.8381V77.424H39.9301ZM44.2392 82.992L46.2792 77.424H47.4432L44.8632 84H43.5912L41.0112 77.424H42.1872L44.2392 82.992ZM49.0818 76.356C48.8738 76.356 48.6978 76.284 48.5538 76.14C48.4098 75.996 48.3378 75.82 48.3378 75.612C48.3378 75.404 48.4098 75.228 48.5538 75.084C48.6978 74.94 48.8738 74.868 49.0818 74.868C49.2818 74.868 49.4498 74.94 49.5858 75.084C49.7298 75.228 49.8018 75.404 49.8018 75.612C49.8018 75.82 49.7298 75.996 49.5858 76.14C49.4498 76.284 49.2818 76.356 49.0818 76.356ZM49.6098 77.424V84H48.5178V77.424H49.6098ZM52.8029 78.324V82.2C52.8029 82.52 52.8709 82.748 53.0069 82.884C53.1429 83.012 53.3789 83.076 53.7149 83.076H54.5189V84H53.5349C52.9269 84 52.4709 83.86 52.1669 83.58C51.8629 83.3 51.7109 82.84 51.7109 82.2V78.324H50.8589V77.424H51.7109V75.768H52.8029V77.424H54.5189V78.324H52.8029ZM56.406 76.356C56.198 76.356 56.022 76.284 55.878 76.14C55.734 75.996 55.662 75.82 55.662 75.612C55.662 75.404 55.734 75.228 55.878 75.084C56.022 74.94 56.198 74.868 56.406 74.868C56.606 74.868 56.774 74.94 56.91 75.084C57.054 75.228 57.126 75.404 57.126 75.612C57.126 75.82 57.054 75.996 56.91 76.14C56.774 76.284 56.606 76.356 56.406 76.356ZM56.934 77.424V84H55.842V77.424H56.934ZM64.7951 80.46C64.7951 80.668 64.7831 80.888 64.7591 81.12H59.5031C59.5431 81.768 59.7631 82.276 60.1631 82.644C60.5711 83.004 61.0631 83.184 61.6391 83.184C62.1111 83.184 62.5031 83.076 62.8151 82.86C63.1351 82.636 63.3591 82.34 63.4871 81.972H64.6631C64.4871 82.604 64.1351 83.12 63.6071 83.52C63.0791 83.912 62.4231 84.108 61.6391 84.108C61.0151 84.108 60.4551 83.968 59.9591 83.688C59.4711 83.408 59.0871 83.012 58.8071 82.5C58.5271 81.98 58.3871 81.38 58.3871 80.7C58.3871 80.02 58.5231 79.424 58.7951 78.912C59.0671 78.4 59.4471 78.008 59.9351 77.736C60.4311 77.456 60.9991 77.316 61.6391 77.316C62.2631 77.316 62.8151 77.452 63.2951 77.724C63.7751 77.996 64.1431 78.372 64.3991 78.852C64.6631 79.324 64.7951 79.86 64.7951 80.46ZM63.6671 80.232C63.6671 79.816 63.5751 79.46 63.3911 79.164C63.2071 78.86 62.9551 78.632 62.6351 78.48C62.3231 78.32 61.9751 78.24 61.5911 78.24C61.0391 78.24 60.5671 78.416 60.1751 78.768C59.7911 79.12 59.5711 79.608 59.5151 80.232H63.6671ZM68.5645 84.108C68.0605 84.108 67.6085 84.024 67.2085 83.856C66.8085 83.68 66.4925 83.44 66.2605 83.136C66.0285 82.824 65.9005 82.468 65.8765 82.068H67.0045C67.0365 82.396 67.1885 82.664 67.4605 82.872C67.7405 83.08 68.1045 83.184 68.5525 83.184C68.9685 83.184 69.2965 83.092 69.5365 82.908C69.7765 82.724 69.8965 82.492 69.8965 82.212C69.8965 81.924 69.7685 81.712 69.5125 81.576C69.2565 81.432 68.8605 81.292 68.3245 81.156C67.8365 81.028 67.4365 80.9 67.1245 80.772C66.8205 80.636 66.5565 80.44 66.3325 80.184C66.1165 79.92 66.0085 79.576 66.0085 79.152C66.0085 78.816 66.1085 78.508 66.3085 78.228C66.5085 77.948 66.7925 77.728 67.1605 77.568C67.5285 77.4 67.9485 77.316 68.4205 77.316C69.1485 77.316 69.7365 77.5 70.1845 77.868C70.6325 78.236 70.8725 78.74 70.9045 79.38H69.8125C69.7885 79.036 69.6485 78.76 69.3925 78.552C69.1445 78.344 68.8085 78.24 68.3845 78.24C67.9925 78.24 67.6805 78.324 67.4485 78.492C67.2165 78.66 67.1005 78.88 67.1005 79.152C67.1005 79.368 67.1685 79.548 67.3045 79.692C67.4485 79.828 67.6245 79.94 67.8325 80.028C68.0485 80.108 68.3445 80.2 68.7205 80.304C69.1925 80.432 69.5765 80.56 69.8725 80.688C70.1685 80.808 70.4205 80.992 70.6285 81.24C70.8445 81.488 70.9565 81.812 70.9645 82.212C70.9645 82.572 70.8645 82.896 70.6645 83.184C70.4645 83.472 70.1805 83.7 69.8125 83.868C69.4525 84.028 69.0365 84.108 68.5645 84.108Z" fill="#27272A"/>
<defs>
<clipPath id="clip0_2317_1952">
<rect width="40" height="40" fill="white" transform="translate(24.875 8)"/>
</clipPath>
</defs>
</svg>
