<svg width="90" height="96" viewBox="0 0 90 96" fill="none" xmlns="http://www.w3.org/2000/svg">
<g clip-path="url(#clip0_2317_1869)">
<path d="M64.8754 26.5816C64.8754 28.5879 64.0637 30.4055 62.7512 31.7205C61.4387 33.0356 59.6246 33.8497 57.6222 33.8497H50.5433L46.6558 31.5569L42.0285 33.8497H32.1285C28.123 33.8497 25.7652 30.4141 25.7652 26.4008C25.7652 24.7429 25.4308 23.3941 26.3652 22.1714C26.4933 22.0023 26.6293 21.8403 26.7715 21.6845C28.1144 24.216 30.7754 25.9444 33.8316 25.9444H55.9207C58.9762 25.9444 61.6371 24.2153 62.9808 21.6845C63.1222 21.8403 63.2582 22.0023 63.3871 22.1714C64.3215 23.3941 64.8762 24.9229 64.8762 26.5816H64.8754Z" fill="#FEC68E"/>
<path d="M39.207 25.791H50.543V33.8497H39.207V25.791Z" fill="#FEBF80"/>
<path d="M39.207 25.791H40.9883V33.8497H39.207V25.791Z" fill="#FEB164"/>
<path d="M33.9094 33.8489H32.1281C28.1219 33.8489 24.875 30.5949 24.875 26.5816C24.875 24.9237 25.4297 23.3941 26.3641 22.1714C26.4922 22.0031 26.6281 21.8411 26.7703 21.6845C27.0117 22.1393 27.2961 22.5691 27.6164 22.9667C27.0047 24.0321 26.6562 25.2658 26.6562 26.5816C26.6562 30.5949 29.9031 33.8489 33.9086 33.8489H33.9094Z" fill="#FEB770"/>
<path d="M61.4072 20.382C61.2197 20.2669 60.976 20.3671 60.9221 20.5808C60.6916 21.4998 60.215 22.3202 59.5674 22.9706C58.6338 23.9061 57.3439 24.4845 55.9197 24.4845H33.8307C31.6486 24.4845 29.783 23.1264 29.0291 21.2078C28.9494 21.0051 28.3385 21.4654 28.2846 21.2517C28.2307 21.038 28.5588 20.9033 28.3713 21.0184C27.8814 21.319 27.6854 21.2806 27.2807 21.6853C27.0533 21.9131 26.5596 21.9155 26.3643 22.1714C27.5135 25.1812 30.4275 27.3237 33.8307 27.3237H55.9197C59.3228 27.3237 62.2369 25.1812 63.3861 22.1714C62.8432 21.4599 62.1721 20.8517 61.4072 20.382Z" fill="#FFDDBB"/>
<path d="M28.8283 20.5816C28.7744 20.3679 28.5322 20.2661 28.3447 20.3804C27.8549 20.681 27.4041 21.038 26.9994 21.4427C26.7721 21.6704 26.5596 21.9139 26.3643 22.1706C26.5838 22.7468 26.8689 23.2908 27.2088 23.7941C27.576 22.908 28.1143 22.1104 28.7807 21.4427C28.8619 21.3612 28.9439 21.283 29.0291 21.2063C28.9494 21.0035 28.8822 20.7945 28.8283 20.5808V20.5816Z" fill="#FED6AE"/>
<path d="M42.1912 31.5804C42.0412 31.5804 41.8912 31.5233 41.7771 31.4082C41.5482 31.1789 41.5482 30.807 41.7771 30.5777L56.4045 15.9217C56.6334 15.6924 57.0045 15.6924 57.2334 15.9217C57.4623 16.1511 57.4623 16.5229 57.2334 16.7522L42.6053 31.409C42.4912 31.5233 42.3412 31.5812 42.1912 31.5812V31.5804Z" fill="#FFDEBE"/>
<path d="M42.4518 35.7902L38.0705 40.1792C37.9486 40.3021 37.751 40.3021 37.6283 40.1792L33.0221 35.564C32.9002 35.4419 32.9002 35.2438 33.0221 35.1217L37.4033 30.7319C38.6533 29.4787 40.6807 29.4787 41.9307 30.7319L42.3963 31.1976C42.3963 31.1976 42.3979 31.1992 42.3979 31.2L42.4518 31.2532C43.7018 32.5064 43.7018 34.537 42.4518 35.7902Z" fill="#FFDDBB"/>
<path d="M42.74 31.6047C41.4893 30.71 39.7408 30.825 38.6182 31.9491L34.2377 36.3389C34.115 36.461 34.115 36.6591 34.2377 36.782L33.0221 35.564C32.9002 35.4419 32.9002 35.2438 33.0221 35.1217L37.4033 30.7319C38.6533 29.4787 40.6807 29.4787 41.9307 30.7319L42.3963 31.1976C42.3963 31.1976 42.3979 31.1992 42.3979 31.2C42.526 31.3276 42.6393 31.463 42.74 31.6047Z" fill="#FED6AE"/>
</g>
<path d="M26.86 63.692C27.164 63.74 27.44 63.864 27.688 64.064C27.944 64.264 28.144 64.512 28.288 64.808C28.44 65.104 28.516 65.42 28.516 65.756C28.516 66.18 28.408 66.564 28.192 66.908C27.976 67.244 27.66 67.512 27.244 67.712C26.836 67.904 26.352 68 25.792 68H22.672V59.636H25.672C26.24 59.636 26.724 59.732 27.124 59.924C27.524 60.108 27.824 60.36 28.024 60.68C28.224 61 28.324 61.36 28.324 61.76C28.324 62.256 28.188 62.668 27.916 62.996C27.652 63.316 27.3 63.548 26.86 63.692ZM23.764 63.248H25.6C26.112 63.248 26.508 63.128 26.788 62.888C27.068 62.648 27.208 62.316 27.208 61.892C27.208 61.468 27.068 61.136 26.788 60.896C26.508 60.656 26.104 60.536 25.576 60.536H23.764V63.248ZM25.696 67.1C26.24 67.1 26.664 66.972 26.968 66.716C27.272 66.46 27.424 66.104 27.424 65.648C27.424 65.184 27.264 64.82 26.944 64.556C26.624 64.284 26.196 64.148 25.66 64.148H23.764V67.1H25.696ZM32.8994 68.108C32.2834 68.108 31.7234 67.968 31.2194 67.688C30.7234 67.408 30.3314 67.012 30.0434 66.5C29.7634 65.98 29.6234 65.38 29.6234 64.7C29.6234 64.028 29.7674 63.436 30.0554 62.924C30.3514 62.404 30.7514 62.008 31.2554 61.736C31.7594 61.456 32.3234 61.316 32.9474 61.316C33.5714 61.316 34.1354 61.456 34.6394 61.736C35.1434 62.008 35.5394 62.4 35.8274 62.912C36.1234 63.424 36.2714 64.02 36.2714 64.7C36.2714 65.38 36.1194 65.98 35.8154 66.5C35.5194 67.012 35.1154 67.408 34.6034 67.688C34.0914 67.968 33.5234 68.108 32.8994 68.108ZM32.8994 67.148C33.2914 67.148 33.6594 67.056 34.0034 66.872C34.3474 66.688 34.6234 66.412 34.8314 66.044C35.0474 65.676 35.1554 65.228 35.1554 64.7C35.1554 64.172 35.0514 63.724 34.8434 63.356C34.6354 62.988 34.3634 62.716 34.0274 62.54C33.6914 62.356 33.3274 62.264 32.9354 62.264C32.5354 62.264 32.1674 62.356 31.8314 62.54C31.5034 62.716 31.2394 62.988 31.0394 63.356C30.8394 63.724 30.7394 64.172 30.7394 64.7C30.7394 65.236 30.8354 65.688 31.0274 66.056C31.2274 66.424 31.4914 66.7 31.8194 66.884C32.1474 67.06 32.5074 67.148 32.8994 67.148ZM37.2992 64.688C37.2992 64.016 37.4352 63.428 37.7072 62.924C37.9792 62.412 38.3512 62.016 38.8232 61.736C39.3032 61.456 39.8352 61.316 40.4192 61.316C40.9952 61.316 41.4952 61.44 41.9192 61.688C42.3432 61.936 42.6592 62.248 42.8672 62.624V61.424H43.9712V68H42.8672V66.776C42.6512 67.16 42.3272 67.48 41.8952 67.736C41.4712 67.984 40.9752 68.108 40.4072 68.108C39.8232 68.108 39.2952 67.964 38.8232 67.676C38.3512 67.388 37.9792 66.984 37.7072 66.464C37.4352 65.944 37.2992 65.352 37.2992 64.688ZM42.8672 64.7C42.8672 64.204 42.7672 63.772 42.5672 63.404C42.3672 63.036 42.0952 62.756 41.7512 62.564C41.4152 62.364 41.0432 62.264 40.6352 62.264C40.2272 62.264 39.8552 62.36 39.5192 62.552C39.1832 62.744 38.9152 63.024 38.7152 63.392C38.5152 63.76 38.4152 64.192 38.4152 64.688C38.4152 65.192 38.5152 65.632 38.7152 66.008C38.9152 66.376 39.1832 66.66 39.5192 66.86C39.8552 67.052 40.2272 67.148 40.6352 67.148C41.0432 67.148 41.4152 67.052 41.7512 66.86C42.0952 66.66 42.3672 66.376 42.5672 66.008C42.7672 65.632 42.8672 65.196 42.8672 64.7ZM47.1486 62.324V66.2C47.1486 66.52 47.2166 66.748 47.3526 66.884C47.4886 67.012 47.7246 67.076 48.0606 67.076H48.8646V68H47.8806C47.2726 68 46.8166 67.86 46.5126 67.58C46.2086 67.3 46.0566 66.84 46.0566 66.2V62.324H45.2046V61.424H46.0566V59.768H47.1486V61.424H48.8646V62.324H47.1486ZM50.7517 60.356C50.5437 60.356 50.3677 60.284 50.2237 60.14C50.0797 59.996 50.0077 59.82 50.0077 59.612C50.0077 59.404 50.0797 59.228 50.2237 59.084C50.3677 58.94 50.5437 58.868 50.7517 58.868C50.9517 58.868 51.1197 58.94 51.2557 59.084C51.3997 59.228 51.4717 59.404 51.4717 59.612C51.4717 59.82 51.3997 59.996 51.2557 60.14C51.1197 60.284 50.9517 60.356 50.7517 60.356ZM51.2797 61.424V68H50.1877V61.424H51.2797ZM56.3448 61.304C57.1448 61.304 57.7928 61.548 58.2888 62.036C58.7848 62.516 59.0328 63.212 59.0328 64.124V68H57.9528V64.28C57.9528 63.624 57.7888 63.124 57.4608 62.78C57.1328 62.428 56.6848 62.252 56.1168 62.252C55.5408 62.252 55.0808 62.432 54.7368 62.792C54.4008 63.152 54.2328 63.676 54.2328 64.364V68H53.1408V61.424H54.2328V62.36C54.4488 62.024 54.7408 61.764 55.1088 61.58C55.4848 61.396 55.8968 61.304 56.3448 61.304ZM63.5286 61.316C64.0966 61.316 64.5926 61.44 65.0166 61.688C65.4486 61.936 65.7686 62.248 65.9766 62.624V61.424H67.0806V68.144C67.0806 68.744 66.9526 69.276 66.6966 69.74C66.4406 70.212 66.0726 70.58 65.5926 70.844C65.1206 71.108 64.5686 71.24 63.9366 71.24C63.0726 71.24 62.3526 71.036 61.7766 70.628C61.2006 70.22 60.8606 69.664 60.7566 68.96H61.8366C61.9566 69.36 62.2046 69.68 62.5806 69.92C62.9566 70.168 63.4086 70.292 63.9366 70.292C64.5366 70.292 65.0246 70.104 65.4006 69.728C65.7846 69.352 65.9766 68.824 65.9766 68.144V66.764C65.7606 67.148 65.4406 67.468 65.0166 67.724C64.5926 67.98 64.0966 68.108 63.5286 68.108C62.9446 68.108 62.4126 67.964 61.9326 67.676C61.4606 67.388 61.0886 66.984 60.8166 66.464C60.5446 65.944 60.4086 65.352 60.4086 64.688C60.4086 64.016 60.5446 63.428 60.8166 62.924C61.0886 62.412 61.4606 62.016 61.9326 61.736C62.4126 61.456 62.9446 61.316 63.5286 61.316ZM65.9766 64.7C65.9766 64.204 65.8766 63.772 65.6766 63.404C65.4766 63.036 65.2046 62.756 64.8606 62.564C64.5246 62.364 64.1526 62.264 63.7446 62.264C63.3366 62.264 62.9646 62.36 62.6286 62.552C62.2926 62.744 62.0246 63.024 61.8246 63.392C61.6246 63.76 61.5246 64.192 61.5246 64.688C61.5246 65.192 61.6246 65.632 61.8246 66.008C62.0246 66.376 62.2926 66.66 62.6286 66.86C62.9646 67.052 63.3366 67.148 63.7446 67.148C64.1526 67.148 64.5246 67.052 64.8606 66.86C65.2046 66.66 65.4766 66.376 65.6766 66.008C65.8766 65.632 65.9766 65.196 65.9766 64.7Z" fill="#27272A"/>
<defs>
<clipPath id="clip0_2317_1869">
<rect width="40" height="40" fill="white" transform="translate(24.875 8)"/>
</clipPath>
</defs>
</svg>
