<svg width="91" height="96" viewBox="0 0 91 96" fill="none" xmlns="http://www.w3.org/2000/svg">
<path d="M56.9996 25.0704V20.7582C56.9996 20.0542 56.4236 19.2074 55.7205 18.8744L41.4578 12.1414C40.7538 11.8094 40.1787 12.1136 40.1787 12.8167V17.1288L48.5896 22.7914L57.0005 25.0694L56.9996 25.0704Z" fill="#F1DC54"/>
<path d="M51.8668 43.328C47.5668 44.0886 46.514 41.1335 46.732 40.6632C47.3609 39.3034 48.8635 38.3054 51.0376 37.9205C52.7062 37.6255 54.4101 37.9103 55.5668 38.2099C56.4387 38.4362 56.1678 42.5674 51.8678 43.328H51.8668Z" fill="#F1DC54"/>
<path d="M36.4801 36.0635C32.18 36.8241 31.1273 33.869 31.3453 33.3987C31.9741 32.0389 33.4767 31.0409 35.6509 30.656C37.3195 30.361 39.0234 30.6458 40.1801 30.9454C41.0519 31.1717 40.7811 35.3029 36.481 36.0635H36.4801Z" fill="#F1DC54"/>
<path d="M56.9995 25.0704L40.1777 17.1297V30.9454C40.1777 33.421 38.5128 35.0006 36.3117 35.3892C34.0346 35.7918 32.0933 34.842 31.3438 33.3987C31.1268 33.869 31.0127 34.3828 31.0127 34.9301C31.0127 37.0569 33.3853 38.7747 36.3117 38.2562C39.2381 37.7377 41.6107 35.5181 41.6107 31.4054V20.672L55.5655 27.2594V38.2089C55.5655 40.6845 53.9006 42.2641 51.6995 42.6528C49.4224 43.0553 47.4811 42.1055 46.7317 40.6623C46.5146 41.1325 46.4005 41.6464 46.4005 42.1936C46.4005 44.3205 48.7732 46.0383 51.6995 45.5198C54.6259 45.0013 56.9986 42.7817 56.9986 38.669V25.0694L56.9995 25.0704Z" fill="#EBCB00"/>
<path d="M61.5977 33.1492C62.2643 33.1492 62.8047 32.6088 62.8047 31.9422C62.8047 31.2756 62.2643 30.7352 61.5977 30.7352C60.931 30.7352 60.3906 31.2756 60.3906 31.9422C60.3906 32.6088 60.931 33.1492 61.5977 33.1492Z" fill="#F1DC54"/>
<path d="M35.4775 14.9516C36.1442 14.9516 36.6846 14.4112 36.6846 13.7445C36.6846 13.0779 36.1442 12.5375 35.4775 12.5375C34.8109 12.5375 34.2705 13.0779 34.2705 13.7445C34.2705 14.4112 34.8109 14.9516 35.4775 14.9516Z" fill="#F1DC54"/>
<path d="M31.8555 41.7828C32.5221 41.7828 33.0625 41.2424 33.0625 40.5758C33.0625 39.9092 32.5221 39.3687 31.8555 39.3687C31.1888 39.3687 30.6484 39.9092 30.6484 40.5758C30.6484 41.2424 31.1888 41.7828 31.8555 41.7828Z" fill="#F1DC54"/>
<path d="M57.2335 11.5141C55.6858 11.5141 52.3655 10.3539 51.9983 11.261C51.7546 11.8625 51.6929 12.5438 51.8624 13.2211C52.5429 15.9352 54.7921 16.4039 59.1468 18.436C62.028 14.5891 63.7905 13.1156 63.1101 10.4008C63.0991 10.3578 63.0874 10.3149 63.0749 10.2719C62.596 8.65001 58.7811 11.5133 57.2335 11.5133V11.5141Z" fill="#EBCB00"/>
<path d="M59.2623 8.0961C58.2029 8.36172 57.4021 9.13204 57.0537 10.0859C56.2959 9.40938 55.2271 9.10782 54.1678 9.37344C53.1459 9.62969 52.3662 10.3547 51.999 11.2609C52.8146 13.5805 55.0475 14.1086 59.1467 16.0219C61.1303 13.3742 62.5826 11.8508 63.074 10.2734C62.5951 8.65157 60.9178 7.68125 59.2623 8.09688V8.0961Z" fill="#F1DC54"/>
<path d="M27.6035 18.9531C27.048 21.1695 28.4871 22.3734 30.8394 25.5141C34.3957 23.8547 36.2324 23.4719 36.7879 21.2555C36.9465 20.6242 36.8582 19.9883 36.5832 19.45C36.3894 19.0695 34.4347 19.7195 31.9965 19.5102C30.3121 19.3656 27.9004 18.1391 27.7082 18.625C27.6668 18.7305 27.6308 18.8399 27.6027 18.9524L27.6035 18.9531Z" fill="#EBCB00"/>
<path d="M34.9059 18.1141C34.0402 17.8969 33.1676 18.1438 32.5488 18.6961C32.2637 17.9172 31.6105 17.2883 30.7449 17.0711C29.4707 16.7516 28.1809 17.4375 27.709 18.6258C28.1707 19.8391 29.3121 21.0609 30.8387 23.1C34.041 21.6055 35.848 21.1461 36.5824 19.4508C36.2543 18.807 35.6605 18.3031 34.9051 18.1133L34.9059 18.1141Z" fill="#F1DC54"/>
<path d="M38.5933 44.5336C38.2996 45.7047 39.0597 46.3406 40.3035 48C42.1824 47.1234 43.1527 46.9211 43.4464 45.75C43.5457 45.3539 43.4613 44.9555 43.248 44.6437C43.066 44.3781 42.1293 44.9609 41.2074 44.9609C40.2855 44.9609 39.0183 43.6734 38.7253 44.2023C38.6691 44.3039 38.6246 44.4148 38.5949 44.5336H38.5933Z" fill="#EBCB00"/>
<path d="M42.4512 44.0899C41.9941 43.975 41.5332 44.1055 41.2059 44.3977C41.0551 43.9859 40.7105 43.6539 40.2527 43.5391C39.6379 43.3852 39.0176 43.6742 38.7246 44.2031C39.0051 44.7891 39.5699 45.4117 40.3027 46.3906C41.8738 45.657 42.8098 45.3953 43.2457 44.6445C43.0637 44.3789 42.7887 44.175 42.4512 44.0906V44.0899Z" fill="#F1DC54"/>
<path d="M59.6652 41.9844C59.3316 41.9844 59.0612 41.7141 59.0612 41.3805V39.9344L57.9066 39.4602C57.598 39.3336 57.4511 38.9813 57.5777 38.6727C57.7042 38.3641 58.0566 38.2172 58.3652 38.3438L59.0612 38.6297V37.6789C59.0612 37.3453 59.3316 37.075 59.6652 37.075C59.9987 37.075 60.2691 37.3453 60.2691 37.6789V39.125L61.4237 39.5992C61.7323 39.7258 61.8792 40.0781 61.7527 40.3867C61.6261 40.6953 61.2737 40.8422 60.9652 40.7156L60.2691 40.4297V41.3805C60.2691 41.7141 59.9987 41.9844 59.6652 41.9844Z" fill="#EBCB00"/>
<path d="M37.5213 59.696V68H36.4293V61.808L33.6693 68H32.9013L30.1293 61.796V68H29.0373V59.696H30.2133L33.2853 66.56L36.3573 59.696H37.5213ZM45.2052 61.424V68H44.1132V67.028C43.9052 67.364 43.6132 67.628 43.2372 67.82C42.8692 68.004 42.4612 68.096 42.0132 68.096C41.5012 68.096 41.0412 67.992 40.6332 67.784C40.2252 67.568 39.9012 67.248 39.6612 66.824C39.4292 66.4 39.3132 65.884 39.3132 65.276V61.424H40.3932V65.132C40.3932 65.78 40.5572 66.28 40.8852 66.632C41.2132 66.976 41.6612 67.148 42.2292 67.148C42.8132 67.148 43.2732 66.968 43.6092 66.608C43.9452 66.248 44.1132 65.724 44.1132 65.036V61.424H45.2052ZM49.377 68.108C48.873 68.108 48.421 68.024 48.021 67.856C47.621 67.68 47.305 67.44 47.073 67.136C46.841 66.824 46.713 66.468 46.689 66.068H47.817C47.849 66.396 48.001 66.664 48.273 66.872C48.553 67.08 48.917 67.184 49.365 67.184C49.781 67.184 50.109 67.092 50.349 66.908C50.589 66.724 50.709 66.492 50.709 66.212C50.709 65.924 50.581 65.712 50.325 65.576C50.069 65.432 49.673 65.292 49.137 65.156C48.649 65.028 48.249 64.9 47.937 64.772C47.633 64.636 47.369 64.44 47.145 64.184C46.929 63.92 46.821 63.576 46.821 63.152C46.821 62.816 46.921 62.508 47.121 62.228C47.321 61.948 47.605 61.728 47.973 61.568C48.341 61.4 48.761 61.316 49.233 61.316C49.961 61.316 50.549 61.5 50.997 61.868C51.445 62.236 51.685 62.74 51.717 63.38H50.625C50.601 63.036 50.461 62.76 50.205 62.552C49.957 62.344 49.621 62.24 49.197 62.24C48.805 62.24 48.493 62.324 48.261 62.492C48.029 62.66 47.913 62.88 47.913 63.152C47.913 63.368 47.981 63.548 48.117 63.692C48.261 63.828 48.437 63.94 48.645 64.028C48.861 64.108 49.157 64.2 49.533 64.304C50.005 64.432 50.389 64.56 50.685 64.688C50.981 64.808 51.233 64.992 51.441 65.24C51.657 65.488 51.769 65.812 51.777 66.212C51.777 66.572 51.677 66.896 51.477 67.184C51.277 67.472 50.993 67.7 50.625 67.868C50.265 68.028 49.849 68.108 49.377 68.108ZM53.8825 60.356C53.6745 60.356 53.4985 60.284 53.3545 60.14C53.2105 59.996 53.1385 59.82 53.1385 59.612C53.1385 59.404 53.2105 59.228 53.3545 59.084C53.4985 58.94 53.6745 58.868 53.8825 58.868C54.0825 58.868 54.2505 58.94 54.3865 59.084C54.5305 59.228 54.6025 59.404 54.6025 59.612C54.6025 59.82 54.5305 59.996 54.3865 60.14C54.2505 60.284 54.0825 60.356 53.8825 60.356ZM54.4105 61.424V68H53.3185V61.424H54.4105ZM55.8637 64.7C55.8637 64.02 55.9997 63.428 56.2717 62.924C56.5437 62.412 56.9197 62.016 57.3997 61.736C57.8877 61.456 58.4437 61.316 59.0677 61.316C59.8757 61.316 60.5397 61.512 61.0597 61.904C61.5877 62.296 61.9357 62.84 62.1037 63.536H60.9277C60.8157 63.136 60.5957 62.82 60.2677 62.588C59.9477 62.356 59.5477 62.24 59.0677 62.24C58.4437 62.24 57.9397 62.456 57.5557 62.888C57.1717 63.312 56.9797 63.916 56.9797 64.7C56.9797 65.492 57.1717 66.104 57.5557 66.536C57.9397 66.968 58.4437 67.184 59.0677 67.184C59.5477 67.184 59.9477 67.072 60.2677 66.848C60.5877 66.624 60.8077 66.304 60.9277 65.888H62.1037C61.9277 66.56 61.5757 67.1 61.0477 67.508C60.5197 67.908 59.8597 68.108 59.0677 68.108C58.4437 68.108 57.8877 67.968 57.3997 67.688C56.9197 67.408 56.5437 67.012 56.2717 66.5C55.9997 65.988 55.8637 65.388 55.8637 64.7Z" fill="#27272A"/>
</svg>
