<svg width="91" height="96" viewBox="0 0 91 96" fill="none" xmlns="http://www.w3.org/2000/svg">
<g clip-path="url(#clip0_2317_1881)">
<path d="M33.3398 14.25H30.7461V9.94766C30.7461 9.77813 30.8836 9.64062 31.0531 9.64062H33.0328C33.2023 9.64062 33.3398 9.77813 33.3398 9.94766V14.25Z" fill="#CBDBFF"/>
<path d="M34.5355 20.3765C33.9809 19.0773 33.6949 17.6789 33.6949 16.2664V13.7805C33.6949 13.5953 33.5449 13.4445 33.359 13.4445H30.7254C30.5402 13.4445 30.3895 13.5945 30.3895 13.7805V16.2664C30.3895 17.6789 30.1035 19.0773 29.5488 20.3765C28.709 22.3453 28.2754 24.4641 28.2754 26.6047V27.3633L29.8848 30.9367L28.2754 35.4265V39.9133L32.041 40.718L35.8066 39.9133V26.6047C35.8066 24.4641 35.3738 22.3453 34.5332 20.3765H34.5355Z" fill="#4882FF"/>
<path d="M34.5348 20.3765C33.9801 19.0773 33.6941 17.6789 33.6941 16.2664V13.7805C33.6941 13.5953 33.5441 13.4445 33.3582 13.4445H31.2793V16.2656C31.2793 17.6781 31.5652 19.0766 32.1199 20.3758C32.9598 22.3445 33.3934 24.4633 33.3934 26.6039V39.9125L34.6004 40.7172L35.8074 39.9125V26.6039C35.8074 24.4633 35.3746 22.3445 34.534 20.3758L34.5348 20.3765Z" fill="#3877FF"/>
<path d="M28.2773 27.3633H35.8086V35.4266H28.2773V27.3633Z" fill="#D2E0FF"/>
<path d="M33.3936 27.3633H35.8084V35.4266H33.3936V27.3633Z" fill="#BFD3FF"/>
<path d="M51.2271 24.1653C51.337 23.4785 50.8693 22.8327 50.1825 22.7228C49.4957 22.6129 48.8499 23.0806 48.74 23.7674C48.6301 24.4542 49.0978 25.1 49.7846 25.2099C50.4714 25.3198 51.1172 24.8521 51.2271 24.1653Z" fill="#3575FF"/>
<path d="M61.7551 38.3187V35.943C61.7551 29.6141 56.6246 24.4844 50.2965 24.4844H49.6988C43.3699 24.4844 38.2402 29.6148 38.2402 35.943V38.3187H61.7551Z" fill="#AAC5FF"/>
<path d="M59.341 35.943V38.3187H61.7559V35.943C61.7559 29.6141 56.6254 24.4844 50.2973 24.4844H49.6996C49.3941 24.4844 49.091 24.4969 48.791 24.5203C54.6949 24.9836 59.341 29.9203 59.341 35.9437V35.943Z" fill="#90B3FF"/>
<path d="M63.6039 39.932L49.7062 40.7367L35.8086 39.932V39.0477C35.8086 37.8406 36.7875 36.8617 37.9945 36.8617H61.4172C62.6242 36.8617 63.6031 37.8406 63.6031 39.0477V39.932H63.6039Z" fill="#3575FF"/>
<path d="M61.4168 36.8617H59.002C60.209 36.8617 61.1879 37.8406 61.1879 39.0477V39.932L62.3895 40.7367L63.6027 39.932V39.0477C63.6027 37.8406 62.6238 36.8617 61.4168 36.8617Z" fill="#125DFF"/>
<path d="M35.809 41.7812C35.4754 41.7812 35.2051 41.5109 35.2051 41.1773V29.0234C35.2051 28.6898 35.4754 28.4195 35.809 28.4195C36.1426 28.4195 36.4129 28.6898 36.4129 29.0234V41.1773C36.4129 41.5109 36.1426 41.7812 35.809 41.7812Z" fill="#C6D8FF"/>
<path d="M30.6979 30.9359H29.8861C29.5525 30.9359 29.2822 30.6656 29.2822 30.332C29.2822 29.9984 29.5525 29.7281 29.8861 29.7281H30.6986C31.0322 29.7281 31.3025 29.9984 31.3025 30.332C31.3025 30.6656 31.0322 30.9359 30.6986 30.9359H30.6979Z" fill="#B1CAFF"/>
<path d="M32.5898 33.4586H29.8852C29.5516 33.4586 29.2812 33.1883 29.2812 32.8547C29.2812 32.5211 29.5516 32.2508 29.8852 32.2508H32.5898C32.9234 32.2508 33.1937 32.5211 33.1937 32.8547C33.1937 33.1883 32.9234 33.4586 32.5898 33.4586Z" fill="#B1CAFF"/>
<path d="M64.4592 46.3516L62.4998 46.0359C61.2576 45.8359 59.9912 45.8359 58.749 46.0359L57.4998 46.2367C56.2576 46.4367 54.9912 46.4367 53.749 46.2367L52.4998 46.0359C51.2576 45.8359 49.9912 45.8359 48.749 46.0359L47.4998 46.2367C46.2576 46.4367 44.9912 46.4367 43.749 46.2367L42.4998 46.0359C41.2576 45.8359 39.9912 45.8359 38.749 46.0359L37.4998 46.2367C36.2576 46.4367 34.9912 46.4367 33.749 46.2367L32.4998 46.0359C31.2576 45.8359 29.9912 45.8359 28.749 46.0359L26.7896 46.3516C26.1779 46.45 25.624 45.9781 25.624 45.3586V42.0359C25.624 40.8641 26.574 39.9133 27.7467 39.9133H63.5021C64.674 39.9133 65.6248 40.8633 65.6248 42.0359V45.3586C65.6248 45.9781 65.0709 46.45 64.4592 46.3516Z" fill="#F1F5FF"/>
<path d="M63.5027 39.9141H61.0879C62.2598 39.9141 63.2105 40.8641 63.2105 42.0367V45.3594C63.2105 45.6547 63.0832 45.9164 62.8848 46.0984L64.4598 46.3523C65.0715 46.4508 65.6254 45.9789 65.6254 45.3594V42.0367C65.6254 40.8648 64.6754 39.9141 63.5027 39.9141Z" fill="#DBE7FF"/>
<path d="M55.5746 43.6953C55.241 43.6953 54.9707 43.9656 54.9707 44.2992V46.3688C55.373 46.3914 55.7754 46.393 56.1777 46.3734V44.2992C56.1777 43.9656 55.9074 43.6953 55.5738 43.6953H55.5746Z" fill="#DBE7FF"/>
<path d="M35.6762 43.6953C35.3426 43.6953 35.0723 43.9656 35.0723 44.2992V46.3734C35.4746 46.3922 35.8777 46.3906 36.2793 46.3688V44.2992C36.2793 43.9656 36.009 43.6953 35.6754 43.6953H35.6762Z" fill="#DBE7FF"/>
<path d="M45.6254 43.6953C45.2918 43.6953 45.0215 43.9656 45.0215 44.2992V46.3711C45.4238 46.3914 45.8262 46.3914 46.2285 46.3711V44.2992C46.2285 43.9656 45.9582 43.6953 45.6246 43.6953H45.6254Z" fill="#DBE7FF"/>
<path d="M35.8085 29.8289C33.8335 29.8289 32.2999 28.1078 32.5273 26.1453L33.1296 20.9469C33.171 20.5906 33.4726 20.3211 33.832 20.3211H37.7866C38.1452 20.3211 38.4476 20.5899 38.489 20.9469L39.0913 26.1453C39.3187 28.107 37.7851 29.8289 35.8101 29.8289H35.8085Z" fill="#F1F5FF"/>
<path d="M39.0896 26.1453L38.4873 20.9469C38.4459 20.5906 38.1443 20.3211 37.785 20.3211H35.3701C35.7287 20.3211 36.0311 20.5899 36.0725 20.9469L36.6748 26.1453C36.8529 27.682 35.9498 29.0719 34.6006 29.6016C34.9732 29.7477 35.3803 29.8289 35.8076 29.8289C37.7826 29.8289 39.3162 28.1078 39.0889 26.1453H39.0896Z" fill="#E5EDFF"/>
<path d="M38.839 23.9781H32.778L32.5273 26.1461C32.2999 28.1078 33.8335 29.8297 35.8085 29.8297C37.7835 29.8297 39.3171 28.1078 39.0898 26.1461L38.839 23.9781Z" fill="#8BB0FF"/>
<path d="M39.0896 26.1453L38.8389 23.9774H36.424L36.6748 26.1453C36.8529 27.682 35.9498 29.0719 34.6006 29.6016C34.9732 29.7477 35.3803 29.8289 35.8076 29.8289C37.7826 29.8289 39.3162 28.1078 39.0889 26.1453H39.0896Z" fill="#6A99FF"/>
</g>
<path d="M42.1723 59.636L39.7483 68H38.5243L36.5803 61.268L34.5643 68L33.3523 68.012L31.0123 59.636H32.1763L34.0003 66.728L36.0163 59.636H37.2403L39.1603 66.704L40.9963 59.636H42.1723ZM43.9314 60.356C43.7234 60.356 43.5474 60.284 43.4034 60.14C43.2594 59.996 43.1874 59.82 43.1874 59.612C43.1874 59.404 43.2594 59.228 43.4034 59.084C43.5474 58.94 43.7234 58.868 43.9314 58.868C44.1314 58.868 44.2994 58.94 44.4354 59.084C44.5794 59.228 44.6514 59.404 44.6514 59.612C44.6514 59.82 44.5794 59.996 44.4354 60.14C44.2994 60.284 44.1314 60.356 43.9314 60.356ZM44.4594 61.424V68H43.3674V61.424H44.4594ZM49.5245 61.304C50.3245 61.304 50.9725 61.548 51.4685 62.036C51.9645 62.516 52.2125 63.212 52.2125 64.124V68H51.1325V64.28C51.1325 63.624 50.9685 63.124 50.6405 62.78C50.3125 62.428 49.8645 62.252 49.2965 62.252C48.7205 62.252 48.2605 62.432 47.9165 62.792C47.5805 63.152 47.4125 63.676 47.4125 64.364V68H46.3205V61.424H47.4125V62.36C47.6285 62.024 47.9205 61.764 48.2885 61.58C48.6645 61.396 49.0765 61.304 49.5245 61.304ZM59.9963 64.46C59.9963 64.668 59.9843 64.888 59.9603 65.12H54.7043C54.7443 65.768 54.9643 66.276 55.3643 66.644C55.7723 67.004 56.2643 67.184 56.8403 67.184C57.3123 67.184 57.7043 67.076 58.0163 66.86C58.3363 66.636 58.5603 66.34 58.6883 65.972H59.8643C59.6883 66.604 59.3363 67.12 58.8083 67.52C58.2803 67.912 57.6243 68.108 56.8403 68.108C56.2163 68.108 55.6563 67.968 55.1603 67.688C54.6723 67.408 54.2883 67.012 54.0083 66.5C53.7283 65.98 53.5883 65.38 53.5883 64.7C53.5883 64.02 53.7243 63.424 53.9963 62.912C54.2683 62.4 54.6483 62.008 55.1363 61.736C55.6323 61.456 56.2003 61.316 56.8403 61.316C57.4643 61.316 58.0163 61.452 58.4963 61.724C58.9763 61.996 59.3443 62.372 59.6003 62.852C59.8643 63.324 59.9963 63.86 59.9963 64.46ZM58.8683 64.232C58.8683 63.816 58.7763 63.46 58.5923 63.164C58.4083 62.86 58.1563 62.632 57.8363 62.48C57.5243 62.32 57.1763 62.24 56.7923 62.24C56.2403 62.24 55.7683 62.416 55.3763 62.768C54.9923 63.12 54.7723 63.608 54.7163 64.232H58.8683ZM26.9513 78.324V82.2C26.9513 82.52 27.0193 82.748 27.1553 82.884C27.2913 83.012 27.5273 83.076 27.8633 83.076H28.6673V84H27.6833C27.0753 84 26.6193 83.86 26.3153 83.58C26.0113 83.3 25.8593 82.84 25.8593 82.2V78.324H25.0073V77.424H25.8593V75.768H26.9513V77.424H28.6673V78.324H26.9513ZM29.5824 80.688C29.5824 80.016 29.7184 79.428 29.9904 78.924C30.2624 78.412 30.6344 78.016 31.1064 77.736C31.5864 77.456 32.1184 77.316 32.7024 77.316C33.2784 77.316 33.7784 77.44 34.2024 77.688C34.6264 77.936 34.9424 78.248 35.1504 78.624V77.424H36.2544V84H35.1504V82.776C34.9344 83.16 34.6104 83.48 34.1784 83.736C33.7544 83.984 33.2584 84.108 32.6904 84.108C32.1064 84.108 31.5784 83.964 31.1064 83.676C30.6344 83.388 30.2624 82.984 29.9904 82.464C29.7184 81.944 29.5824 81.352 29.5824 80.688ZM35.1504 80.7C35.1504 80.204 35.0504 79.772 34.8504 79.404C34.6504 79.036 34.3784 78.756 34.0344 78.564C33.6984 78.364 33.3264 78.264 32.9184 78.264C32.5104 78.264 32.1384 78.36 31.8024 78.552C31.4664 78.744 31.1984 79.024 30.9984 79.392C30.7984 79.76 30.6984 80.192 30.6984 80.688C30.6984 81.192 30.7984 81.632 30.9984 82.008C31.1984 82.376 31.4664 82.66 31.8024 82.86C32.1384 83.052 32.5104 83.148 32.9184 83.148C33.3264 83.148 33.6984 83.052 34.0344 82.86C34.3784 82.66 34.6504 82.376 34.8504 82.008C35.0504 81.632 35.1504 81.196 35.1504 80.7ZM40.4278 84.108C39.9238 84.108 39.4718 84.024 39.0718 83.856C38.6718 83.68 38.3558 83.44 38.1238 83.136C37.8918 82.824 37.7638 82.468 37.7398 82.068H38.8678C38.8998 82.396 39.0518 82.664 39.3238 82.872C39.6038 83.08 39.9678 83.184 40.4158 83.184C40.8318 83.184 41.1598 83.092 41.3998 82.908C41.6398 82.724 41.7598 82.492 41.7598 82.212C41.7598 81.924 41.6318 81.712 41.3758 81.576C41.1198 81.432 40.7238 81.292 40.1878 81.156C39.6998 81.028 39.2998 80.9 38.9878 80.772C38.6838 80.636 38.4198 80.44 38.1958 80.184C37.9798 79.92 37.8718 79.576 37.8718 79.152C37.8718 78.816 37.9718 78.508 38.1718 78.228C38.3718 77.948 38.6558 77.728 39.0238 77.568C39.3918 77.4 39.8118 77.316 40.2838 77.316C41.0118 77.316 41.5998 77.5 42.0478 77.868C42.4958 78.236 42.7358 78.74 42.7678 79.38H41.6758C41.6518 79.036 41.5118 78.76 41.2558 78.552C41.0078 78.344 40.6718 78.24 40.2478 78.24C39.8558 78.24 39.5438 78.324 39.3118 78.492C39.0798 78.66 38.9638 78.88 38.9638 79.152C38.9638 79.368 39.0318 79.548 39.1678 79.692C39.3118 79.828 39.4878 79.94 39.6958 80.028C39.9118 80.108 40.2078 80.2 40.5838 80.304C41.0558 80.432 41.4398 80.56 41.7358 80.688C42.0318 80.808 42.2838 80.992 42.4918 81.24C42.7078 81.488 42.8198 81.812 42.8278 82.212C42.8278 82.572 42.7278 82.896 42.5278 83.184C42.3278 83.472 42.0438 83.7 41.6758 83.868C41.3158 84.028 40.8998 84.108 40.4278 84.108ZM45.7013 78.324V82.2C45.7013 82.52 45.7693 82.748 45.9053 82.884C46.0413 83.012 46.2773 83.076 46.6133 83.076H47.4173V84H46.4333C45.8253 84 45.3693 83.86 45.0653 83.58C44.7613 83.3 44.6093 82.84 44.6093 82.2V78.324H43.7573V77.424H44.6093V75.768H45.7013V77.424H47.4173V78.324H45.7013ZM49.3044 76.356C49.0964 76.356 48.9204 76.284 48.7764 76.14C48.6324 75.996 48.5604 75.82 48.5604 75.612C48.5604 75.404 48.6324 75.228 48.7764 75.084C48.9204 74.94 49.0964 74.868 49.3044 74.868C49.5044 74.868 49.6724 74.94 49.8084 75.084C49.9524 75.228 50.0244 75.404 50.0244 75.612C50.0244 75.82 49.9524 75.996 49.8084 76.14C49.6724 76.284 49.5044 76.356 49.3044 76.356ZM49.8324 77.424V84H48.7404V77.424H49.8324ZM54.8975 77.304C55.6975 77.304 56.3455 77.548 56.8415 78.036C57.3375 78.516 57.5855 79.212 57.5855 80.124V84H56.5055V80.28C56.5055 79.624 56.3415 79.124 56.0135 78.78C55.6855 78.428 55.2375 78.252 54.6695 78.252C54.0935 78.252 53.6335 78.432 53.2895 78.792C52.9535 79.152 52.7855 79.676 52.7855 80.364V84H51.6935V77.424H52.7855V78.36C53.0015 78.024 53.2935 77.764 53.6615 77.58C54.0375 77.396 54.4495 77.304 54.8975 77.304ZM62.0813 77.316C62.6493 77.316 63.1453 77.44 63.5693 77.688C64.0013 77.936 64.3213 78.248 64.5293 78.624V77.424H65.6333V84.144C65.6333 84.744 65.5053 85.276 65.2493 85.74C64.9933 86.212 64.6253 86.58 64.1453 86.844C63.6733 87.108 63.1213 87.24 62.4893 87.24C61.6253 87.24 60.9053 87.036 60.3293 86.628C59.7533 86.22 59.4133 85.664 59.3093 84.96H60.3893C60.5093 85.36 60.7573 85.68 61.1333 85.92C61.5093 86.168 61.9613 86.292 62.4893 86.292C63.0893 86.292 63.5773 86.104 63.9533 85.728C64.3373 85.352 64.5293 84.824 64.5293 84.144V82.764C64.3133 83.148 63.9933 83.468 63.5693 83.724C63.1453 83.98 62.6493 84.108 62.0813 84.108C61.4973 84.108 60.9653 83.964 60.4853 83.676C60.0133 83.388 59.6413 82.984 59.3693 82.464C59.0973 81.944 58.9613 81.352 58.9613 80.688C58.9613 80.016 59.0973 79.428 59.3693 78.924C59.6413 78.412 60.0133 78.016 60.4853 77.736C60.9653 77.456 61.4973 77.316 62.0813 77.316ZM64.5293 80.7C64.5293 80.204 64.4293 79.772 64.2293 79.404C64.0293 79.036 63.7573 78.756 63.4133 78.564C63.0773 78.364 62.7053 78.264 62.2973 78.264C61.8893 78.264 61.5173 78.36 61.1813 78.552C60.8453 78.744 60.5773 79.024 60.3773 79.392C60.1773 79.76 60.0773 80.192 60.0773 80.688C60.0773 81.192 60.1773 81.632 60.3773 82.008C60.5773 82.376 60.8453 82.66 61.1813 82.86C61.5173 83.052 61.8893 83.148 62.2973 83.148C62.7053 83.148 63.0773 83.052 63.4133 82.86C63.7573 82.66 64.0293 82.376 64.2293 82.008C64.4293 81.632 64.5293 81.196 64.5293 80.7Z" fill="#27272A"/>
<defs>
<clipPath id="clip0_2317_1881">
<rect width="40" height="40" fill="white" transform="translate(25.625 8)"/>
</clipPath>
</defs>
</svg>
