<svg width="72" height="96" viewBox="0 0 72 96" fill="none" xmlns="http://www.w3.org/2000/svg">
<g clip-path="url(#clip0_2470_2613)">
<path d="M29.5116 15.2929C29.5163 16.654 28.4182 17.7616 27.057 17.7671H20.1854C18.8344 17.7444 17.752 16.643 17.752 15.2921C17.752 13.9412 18.8352 12.8398 20.1854 12.8171C20.4012 12.8171 20.6155 12.8469 20.8235 12.9066C21.2011 11.6781 22.3362 10.8382 23.622 10.8382C24.9078 10.8382 26.0428 11.6773 26.4196 12.9066C26.6269 12.8469 26.8411 12.8171 27.057 12.8171C28.4182 12.8234 29.5171 13.931 29.5116 15.2921V15.2929Z" fill="#E2CCBD"/>
<path d="M40.2936 19.3402C40.3517 19.2256 40.4694 19.1534 40.5982 19.1534C40.7269 19.1534 40.8447 19.2256 40.9027 19.3402L54.4569 44.7921H27.4326L40.2936 19.3402Z" fill="#A46130"/>
<path d="M46.3774 44.7943L30.6784 15.0513C30.6175 14.9327 30.4957 14.858 30.3633 14.858C30.231 14.858 30.1084 14.9327 30.0474 15.0513L16.0254 44.9656L46.3774 44.7943Z" fill="#CFAB91"/>
<path d="M44.1181 25.3759L43.3559 26.5604L43.0717 27.0039C42.9846 27.1687 42.8284 27.2857 42.6463 27.3234C42.4642 27.3611 42.2742 27.3147 42.129 27.1986L41.0693 26.3531C40.9405 26.2495 40.7749 26.2016 40.6109 26.2213C40.4468 26.2409 40.2969 26.3257 40.1956 26.4568L39.676 27.0738L37.9922 23.893L39.9114 20.0891L40.2929 19.3402C40.351 19.2256 40.4688 19.1534 40.5975 19.1534C40.7262 19.1534 40.844 19.2256 40.9021 19.3402L44.1173 25.3759H44.1181Z" fill="#F0E6DE"/>
<path d="M33.8039 20.9656L32.7855 21.7688L30.9218 23.2451C30.6067 23.5034 30.1633 23.5318 29.8174 23.3166L26.7705 21.4813L29.6534 15.8252L30.0472 15.0505C30.1081 14.9319 30.2299 14.8572 30.3631 14.8572C30.4963 14.8572 30.6181 14.9319 30.6782 15.0505L33.8039 20.9648V20.9656Z" fill="#F0E6DE"/>
<path d="M55.1505 15.2929C55.156 16.654 54.0578 17.7616 52.6967 17.7671H45.825C44.4741 17.7444 43.3916 16.643 43.3916 15.2921C43.3916 13.9412 44.4749 12.8398 45.825 12.8171C46.0409 12.8171 46.2552 12.8469 46.4632 12.9066C46.84 11.6781 47.9751 10.8382 49.2608 10.8382C50.5466 10.8382 51.6817 11.6773 52.0585 12.9066C52.2657 12.8469 52.4808 12.8171 52.6967 12.8171C54.0578 12.8234 55.156 13.9317 55.1505 15.2921V15.2929Z" fill="#E2CCBD"/>
<path d="M46.3771 44.7943C45.6708 44.7935 45.067 44.7935 44.752 44.7935L37.0018 29.7466L36.2709 28.3628L32.7871 21.768L33.8054 20.9648L36.9742 26.9717L37.705 28.3628L46.3788 44.7935L46.3771 44.7943Z" fill="#C29675"/>
<path d="M33.8038 20.9656L32.7855 21.7688L29.6533 15.8252L30.0472 15.0505C30.1081 14.9319 30.2299 14.8572 30.3631 14.8572C30.4963 14.8572 30.6181 14.9319 30.6782 15.0505L33.8038 20.9648V20.9656Z" fill="#E2CCBD"/>
<path d="M54.2715 44.4978C54.2079 44.4868 54.1427 44.4813 54.0776 44.4837H52.8789L43.3564 26.5604L44.1187 25.3759L54.2715 44.4978Z" fill="#9A4F1A"/>
<path d="M44.118 25.3758L43.3558 26.5604L39.9121 20.0883L40.2936 19.3394C40.3517 19.2248 40.4694 19.1526 40.5982 19.1526C40.7269 19.1526 40.8447 19.2248 40.9027 19.3394L44.118 25.3751V25.3758Z" fill="#E2CCBD"/>
</g>
<path d="M25.1801 59.636V68H24.0881V64.208H19.8281V68H18.7361V59.636H19.8281V63.308H24.0881V59.636H25.1801ZM27.6087 60.356C27.4007 60.356 27.2247 60.284 27.0807 60.14C26.9367 59.996 26.8647 59.82 26.8647 59.612C26.8647 59.404 26.9367 59.228 27.0807 59.084C27.2247 58.94 27.4007 58.868 27.6087 58.868C27.8087 58.868 27.9767 58.94 28.1127 59.084C28.2567 59.228 28.3287 59.404 28.3287 59.612C28.3287 59.82 28.2567 59.996 28.1127 60.14C27.9767 60.284 27.8087 60.356 27.6087 60.356ZM28.1367 61.424V68H27.0447V61.424H28.1367ZM33.6698 68L31.0898 65.096V68H29.9978V59.12H31.0898V64.34L33.6218 61.424H35.1458L32.0498 64.7L35.1578 68H33.6698ZM36.7376 60.356C36.5296 60.356 36.3536 60.284 36.2096 60.14C36.0656 59.996 35.9936 59.82 35.9936 59.612C35.9936 59.404 36.0656 59.228 36.2096 59.084C36.3536 58.94 36.5296 58.868 36.7376 58.868C36.9376 58.868 37.1056 58.94 37.2416 59.084C37.3856 59.228 37.4576 59.404 37.4576 59.612C37.4576 59.82 37.3856 59.996 37.2416 60.14C37.1056 60.284 36.9376 60.356 36.7376 60.356ZM37.2656 61.424V68H36.1736V61.424H37.2656ZM42.3307 61.304C43.1307 61.304 43.7787 61.548 44.2747 62.036C44.7707 62.516 45.0187 63.212 45.0187 64.124V68H43.9387V64.28C43.9387 63.624 43.7747 63.124 43.4467 62.78C43.1187 62.428 42.6707 62.252 42.1027 62.252C41.5267 62.252 41.0667 62.432 40.7227 62.792C40.3867 63.152 40.2187 63.676 40.2187 64.364V68H39.1267V61.424H40.2187V62.36C40.4347 62.024 40.7267 61.764 41.0947 61.58C41.4707 61.396 41.8827 61.304 42.3307 61.304ZM49.5145 61.316C50.0825 61.316 50.5785 61.44 51.0025 61.688C51.4345 61.936 51.7545 62.248 51.9625 62.624V61.424H53.0665V68.144C53.0665 68.744 52.9385 69.276 52.6825 69.74C52.4265 70.212 52.0585 70.58 51.5785 70.844C51.1065 71.108 50.5545 71.24 49.9225 71.24C49.0585 71.24 48.3385 71.036 47.7625 70.628C47.1865 70.22 46.8465 69.664 46.7425 68.96H47.8225C47.9425 69.36 48.1905 69.68 48.5665 69.92C48.9425 70.168 49.3945 70.292 49.9225 70.292C50.5225 70.292 51.0105 70.104 51.3865 69.728C51.7705 69.352 51.9625 68.824 51.9625 68.144V66.764C51.7465 67.148 51.4265 67.468 51.0025 67.724C50.5785 67.98 50.0825 68.108 49.5145 68.108C48.9305 68.108 48.3985 67.964 47.9185 67.676C47.4465 67.388 47.0745 66.984 46.8025 66.464C46.5305 65.944 46.3945 65.352 46.3945 64.688C46.3945 64.016 46.5305 63.428 46.8025 62.924C47.0745 62.412 47.4465 62.016 47.9185 61.736C48.3985 61.456 48.9305 61.316 49.5145 61.316ZM51.9625 64.7C51.9625 64.204 51.8625 63.772 51.6625 63.404C51.4625 63.036 51.1905 62.756 50.8465 62.564C50.5105 62.364 50.1385 62.264 49.7305 62.264C49.3225 62.264 48.9505 62.36 48.6145 62.552C48.2785 62.744 48.0105 63.024 47.8105 63.392C47.6105 63.76 47.5105 64.192 47.5105 64.688C47.5105 65.192 47.6105 65.632 47.8105 66.008C48.0105 66.376 48.2785 66.66 48.6145 66.86C48.9505 67.052 49.3225 67.148 49.7305 67.148C50.1385 67.148 50.5105 67.052 50.8465 66.86C51.1905 66.66 51.4625 66.376 51.6625 66.008C51.8625 65.632 51.9625 65.196 51.9625 64.7Z" fill="#27272A"/>
<defs>
<clipPath id="clip0_2470_2613">
<rect width="40" height="40" fill="white" transform="translate(15.9004 8)"/>
</clipPath>
</defs>
</svg>
