<svg width="90" height="96" viewBox="0 0 90 96" fill="none" xmlns="http://www.w3.org/2000/svg">
<g clip-path="url(#clip0_2317_1771)">
<path d="M45.2563 13.7103C44.882 13.7103 44.5781 13.4061 44.5781 13.0317V8.6786C44.5781 8.30412 44.882 8 45.2563 8C45.6305 8 45.9344 8.30412 45.9344 8.6786V13.0317C45.9344 13.4061 45.6305 13.7103 45.2563 13.7103Z" fill="#F24429"/>
<path d="M47.968 15.6609V12.7205C47.968 12.3461 47.6641 12.0419 47.2898 12.0419H43.2219C42.8523 12.0419 42.5437 12.3507 42.5437 12.7205V15.6609C34.8484 16.9532 28.9844 23.6493 28.9844 31.7175C28.9844 40.7097 36.2695 48 45.2555 48C54.2414 48 61.5266 40.7097 61.5266 31.7175C61.5266 23.6493 55.6625 16.9532 47.9672 15.6609H47.968Z" fill="#F78D7D"/>
<path d="M47.9684 16.1128H42.5449V12.7205C42.5449 12.3461 42.8488 12.0419 43.223 12.0419H47.291C47.6652 12.0419 47.9691 12.3461 47.9691 12.7205V16.1128H47.9684Z" fill="#F78D7D"/>
<path d="M44.5783 12.0427H43.2221C42.8479 12.0427 42.5439 12.3468 42.5439 12.7213V16.1135H43.9002V12.7213C43.9002 12.3468 44.2041 12.0427 44.5783 12.0427Z" fill="#F5715C"/>
<path d="M54.5723 23.3733C58.777 25.2129 61.527 28.2643 61.527 31.7167C61.527 22.7244 54.2418 15.4341 45.2559 15.4341C49.2145 15.4341 52.6777 18.6184 54.5723 23.3733Z" fill="#F78D7D"/>
<path d="M54.5723 40.0608C52.6785 44.8157 49.2152 48 45.2559 48C54.2418 48 61.527 40.7097 61.527 31.7175C61.527 35.1707 58.777 38.2213 54.5723 40.0616V40.0608Z" fill="#F6806E"/>
<path d="M35.94 40.0608C31.7354 38.2212 28.9854 35.1699 28.9854 31.7167C28.9854 40.7089 36.2705 47.9992 45.2564 47.9992C41.2979 47.9992 37.8346 44.8149 35.94 40.0608Z" fill="#F78D7D"/>
<path d="M35.94 23.3733C37.8338 18.6184 41.2971 15.4341 45.2564 15.4341C36.2705 15.4341 28.9854 22.7244 28.9854 31.7167C28.9854 28.2635 31.7354 25.2129 35.94 23.3733Z" fill="#F78D7D"/>
<path d="M54.5723 23.3733C55.2676 25.1183 55.7512 27.0752 55.9707 29.1641C59.3762 29.7857 61.5277 30.6988 61.5277 31.7167C61.5277 28.2635 58.777 25.2129 54.573 23.3726L54.5723 23.3733Z" fill="#FAAFA3"/>
<path d="M34.5426 29.1641C34.7621 27.0751 35.2457 25.1183 35.941 23.3733C31.7363 25.2129 28.9863 28.2642 28.9863 31.7174C28.9863 30.6995 31.1371 29.7864 34.5434 29.1649L34.5426 29.1641Z" fill="#FAAFA3"/>
<path d="M55.9707 34.27C55.752 36.359 55.2676 38.3158 54.5723 40.0608C58.777 38.2212 61.527 35.1699 61.527 31.7167C61.527 32.7346 59.3754 33.6477 55.9699 34.2693L55.9707 34.27Z" fill="#F78D7D"/>
<path d="M35.9398 40.0608C35.2445 38.3159 34.7609 36.359 34.5414 34.27C31.1359 33.6485 28.9844 32.7354 28.9844 31.7175C28.9844 35.1707 31.7352 38.2213 35.9391 40.0616L35.9398 40.0608Z" fill="#F5715C"/>
<path d="M55.9707 29.1641C56.0582 29.996 56.1035 30.8481 56.1035 31.7167C56.1035 32.5853 56.0574 33.4374 55.9707 34.2693C59.3762 33.6477 61.5277 32.7346 61.5277 31.7167C61.5277 30.6988 59.3762 29.7857 55.9707 29.1641Z" fill="#F6806E"/>
<path d="M34.5424 34.27C34.4549 33.4382 34.4096 32.586 34.4096 31.7174C34.4096 30.8489 34.4557 29.9967 34.5424 29.1649C31.1369 29.7864 28.9854 30.6995 28.9854 31.7174C28.9854 32.7353 31.1361 33.6485 34.5424 34.27Z" fill="#F78D7D"/>
<path d="M54.5725 40.0608C52.6256 40.913 50.367 41.5048 47.9256 41.7565C47.3053 45.5576 46.3404 48 45.2568 48C49.2154 48 52.6787 44.8157 54.5732 40.0608H54.5725Z" fill="#F9AB9F"/>
<path d="M47.9254 21.6776C50.3676 21.9293 52.6262 22.5212 54.5723 23.3733C52.6785 18.6184 49.2152 15.4341 45.2559 15.4341C46.3395 15.4341 47.3043 17.8765 47.9246 21.6768L47.9254 21.6776Z" fill="#F9AB9F"/>
<path d="M35.9402 23.3733C37.8871 22.5212 40.1457 21.9293 42.5871 21.6776C43.2074 17.8765 44.1723 15.4341 45.2559 15.4341C41.2973 15.4341 37.834 18.6184 35.9395 23.3733H35.9402Z" fill="#FAAFA3"/>
<path d="M42.5873 41.7565C40.1451 41.5048 37.8865 40.9122 35.9404 40.0608C37.8342 44.8157 41.2975 48 45.2568 48C44.1732 48 43.2084 45.5576 42.5881 41.7573L42.5873 41.7565Z" fill="#F45941"/>
<path d="M55.9711 29.1641C55.7523 27.0752 55.268 25.1183 54.5727 23.3733C52.6258 22.5212 50.3672 21.9294 47.9258 21.6776C48.2414 23.6126 48.4688 25.8993 48.5758 28.3956C51.3703 28.5168 53.9023 28.7865 55.9711 29.1641Z" fill="#F78D7D"/>
<path d="M42.5873 21.6776C40.1451 21.9294 37.8865 22.5212 35.9404 23.3733C35.2451 25.1183 34.7615 27.0752 34.542 29.1641C36.6107 28.7865 39.1428 28.516 41.9373 28.3956C42.0451 25.8993 42.2717 23.6126 42.5873 21.6776Z" fill="#F78D7D"/>
<path d="M34.542 34.27C34.7615 36.359 35.2451 38.3158 35.9404 40.0608C37.8873 40.913 40.1459 41.5048 42.5873 41.7565C42.2717 39.8216 42.0443 37.5348 41.9373 35.0385C39.1428 34.9181 36.6107 34.6476 34.542 34.27Z" fill="#F78D7D"/>
<path d="M48.5758 35.0385C48.468 37.5348 48.2414 39.8216 47.9258 41.7565C50.368 41.5048 52.6266 40.9122 54.5727 40.0608C55.268 38.3158 55.7516 36.359 55.9711 34.27C53.9023 34.6476 51.3703 34.9181 48.5758 35.0385Z" fill="#FAAFA3"/>
<path d="M41.866 31.7174C41.866 30.5791 41.8902 29.4682 41.9363 28.3964C39.1418 28.5175 36.6098 28.7873 34.541 29.1649C34.4535 29.9967 34.4082 30.8489 34.4082 31.7174C34.4082 32.586 34.4543 33.4382 34.541 34.27C36.6098 34.6476 39.1418 34.9181 41.9363 35.0385C41.8902 33.9659 41.866 32.8557 41.866 31.7167V31.7174Z" fill="#F45941"/>
<path d="M48.6465 31.7174C48.6465 32.8557 48.6223 33.9667 48.5762 35.0385C51.3707 34.9174 53.9027 34.6476 55.9715 34.27C56.059 33.4382 56.1043 32.586 56.1043 31.7174C56.1043 30.8489 56.0582 29.9967 55.9715 29.1649C53.9027 28.7873 51.3707 28.5168 48.5762 28.3964C48.6223 29.469 48.6465 30.5799 48.6465 31.7182V31.7174Z" fill="#F9AB9F"/>
<path d="M42.5879 21.6776C43.4566 21.5877 44.348 21.5408 45.2566 21.5408C46.1652 21.5408 47.0574 21.5885 47.9254 21.6776C47.3051 17.8765 46.3402 15.4341 45.2566 15.4341C44.173 15.4341 43.2082 17.8765 42.5879 21.6776Z" fill="#F78D7D"/>
<path d="M47.9254 41.7565C47.0566 41.8464 46.1652 41.8933 45.2566 41.8933C44.348 41.8933 43.4566 41.8457 42.5879 41.7565C43.2082 45.5576 44.173 48 45.2566 48C46.3402 48 47.3051 45.5576 47.9254 41.7565Z" fill="#F78D7D"/>
<path d="M45.2561 35.1097C44.1186 35.1097 43.0084 35.0854 41.9365 35.0393C42.0443 37.5356 42.2709 39.8224 42.5865 41.7573C43.4553 41.8472 44.3467 41.8941 45.2553 41.8941C46.1639 41.8941 47.0561 41.8464 47.924 41.7573C48.2396 39.8224 48.467 37.5356 48.574 35.0393C47.5021 35.0854 46.3928 35.1097 45.2553 35.1097H45.2561Z" fill="#F6806E"/>
<path d="M45.2564 28.3252C46.3939 28.3252 47.5041 28.3495 48.576 28.3956C48.4682 25.8993 48.2416 23.6125 47.926 21.6776C47.0572 21.5877 46.1658 21.5408 45.2572 21.5408C44.3486 21.5408 43.4572 21.5885 42.5885 21.6776C42.2729 23.6125 42.0455 25.8993 41.9385 28.3956C43.0104 28.3495 44.1205 28.3252 45.2572 28.3252H45.2564Z" fill="#FAAFA3"/>
<path d="M48.5756 28.3956C47.5037 28.3495 46.3936 28.3253 45.2561 28.3253C44.1186 28.3253 43.0084 28.3495 41.9365 28.3956C41.8904 29.4682 41.8662 30.5792 41.8662 31.7167C41.8662 32.8542 41.8904 33.9659 41.9365 35.0378C43.0084 35.0839 44.1186 35.1081 45.2561 35.1081C46.3936 35.1081 47.5037 35.0839 48.5748 35.0378C48.6209 33.9652 48.6451 32.8542 48.6451 31.7167C48.6451 30.5784 48.6209 29.4675 48.5748 28.3956H48.5756Z" fill="#F78D7D"/>
<path d="M31.1471 36.7874C29.7721 35.295 28.9854 33.5633 28.9854 31.7167C28.9854 40.7089 36.2705 47.9992 45.2564 47.9992C44.326 47.9992 43.4236 47.821 42.5619 47.4903C37.1736 46.1088 32.8643 42.0349 31.1471 36.7866V36.7874Z" fill="#F5715C"/>
<path d="M30.4002 33.102C29.4916 32.6791 28.9854 32.2108 28.9854 31.7175C28.9854 33.5641 29.7721 35.295 31.1471 36.7874C30.7627 35.6124 30.508 34.3779 30.4002 33.102Z" fill="#F35138"/>
<path d="M30.3418 31.7175C30.3418 31.2507 30.3629 30.7895 30.4012 30.3329C29.4926 30.7558 28.9863 31.2241 28.9863 31.7175C28.9863 32.2108 29.4934 32.6791 30.4012 33.102C30.3629 32.6454 30.3418 32.1842 30.3418 31.7175Z" fill="#F5715C"/>
<path d="M31.1471 26.6467C29.7721 28.1392 28.9854 29.8709 28.9854 31.7167C28.9854 31.2234 29.4916 30.7551 30.4002 30.3321C30.508 29.0562 30.7619 27.8218 31.1471 26.6467Z" fill="#F78D7D"/>
<path d="M42.5621 15.9431C43.4238 15.6124 44.3262 15.4341 45.2574 15.4341C36.2715 15.4341 28.9863 22.7244 28.9863 31.7167C28.9863 29.8701 29.773 28.1392 31.148 26.6467C32.8652 21.3985 37.1746 17.3245 42.5629 15.9431H42.5621Z" fill="#F5715C"/>
<path d="M64.4443 13.4757L61.0654 12.321L60.11 8.49563C60.0396 8.21262 59.785 8.01404 59.4936 8.01404C59.2021 8.01404 58.9475 8.21262 58.8772 8.49563L57.9217 12.321L54.5428 13.4757C54.2857 13.5633 54.1123 13.8056 54.1123 14.0777C54.1123 14.3497 54.285 14.5913 54.5428 14.6797L57.9217 15.8344L58.8772 19.6597C58.9475 19.9427 59.2021 20.1413 59.4936 20.1413C59.785 20.1413 60.0396 19.9427 60.11 19.6597L61.0654 15.8344L64.4443 14.6797C64.7014 14.5921 64.8748 14.3497 64.8748 14.0777C64.8748 13.8056 64.7021 13.5633 64.4443 13.4757Z" fill="#FDE3DF"/>
<path d="M35.208 16.1894L31.8291 15.0347L30.8736 11.2093C30.8041 10.9294 30.5455 10.7277 30.2572 10.7277C29.9689 10.7277 29.7104 10.9294 29.6408 11.2093L28.6854 15.0347L25.3064 16.1894C25.0518 16.2762 24.876 16.5224 24.876 16.7914C24.876 17.0603 25.0518 17.3066 25.3064 17.3933L28.6854 18.5481L29.6408 22.3734C29.7111 22.6533 29.9689 22.855 30.2572 22.855C30.5455 22.855 30.8041 22.6533 30.8736 22.3734L31.8291 18.5481L35.208 17.3933C35.465 17.3058 35.6385 17.0634 35.6385 16.7914C35.6385 16.5193 35.4658 16.2777 35.208 16.1894Z" fill="#FDE3DF"/>
<path d="M57.7744 41.1366L54.3955 39.9819L53.44 36.1565C53.3697 35.8735 53.115 35.6749 52.8236 35.6749C52.5322 35.6749 52.2775 35.8735 52.2072 36.1565L51.2518 39.9819L47.8729 41.1366C47.6158 41.2241 47.4424 41.4665 47.4424 41.7386C47.4424 42.0106 47.615 42.253 47.8729 42.3406L51.2518 43.4953L52.2072 47.3206C52.2775 47.6036 52.5322 47.8022 52.8236 47.8022C53.115 47.8022 53.3697 47.6036 53.44 47.3206L54.3955 43.4953L57.7744 42.3406C58.0314 42.253 58.2049 42.0106 58.2049 41.7386C58.2049 41.4665 58.0322 41.2241 57.7744 41.1366Z" fill="#FDE3DF"/>
</g>
<path d="M28.903 59.636C29.815 59.636 30.603 59.808 31.267 60.152C31.939 60.488 32.451 60.972 32.803 61.604C33.163 62.236 33.343 62.98 33.343 63.836C33.343 64.692 33.163 65.436 32.803 66.068C32.451 66.692 31.939 67.172 31.267 67.508C30.603 67.836 29.815 68 28.903 68H26.299V59.636H28.903ZM28.903 67.1C29.983 67.1 30.807 66.816 31.375 66.248C31.943 65.672 32.227 64.868 32.227 63.836C32.227 62.796 31.939 61.984 31.363 61.4C30.795 60.816 29.975 60.524 28.903 60.524H27.391V67.1H28.903ZM34.3754 64.688C34.3754 64.016 34.5114 63.428 34.7834 62.924C35.0554 62.412 35.4274 62.016 35.8994 61.736C36.3794 61.456 36.9114 61.316 37.4954 61.316C38.0714 61.316 38.5714 61.44 38.9954 61.688C39.4194 61.936 39.7354 62.248 39.9434 62.624V61.424H41.0474V68H39.9434V66.776C39.7274 67.16 39.4034 67.48 38.9714 67.736C38.5474 67.984 38.0514 68.108 37.4834 68.108C36.8994 68.108 36.3714 67.964 35.8994 67.676C35.4274 67.388 35.0554 66.984 34.7834 66.464C34.5114 65.944 34.3754 65.352 34.3754 64.688ZM39.9434 64.7C39.9434 64.204 39.8434 63.772 39.6434 63.404C39.4434 63.036 39.1714 62.756 38.8274 62.564C38.4914 62.364 38.1194 62.264 37.7114 62.264C37.3034 62.264 36.9314 62.36 36.5954 62.552C36.2594 62.744 35.9914 63.024 35.7914 63.392C35.5914 63.76 35.4914 64.192 35.4914 64.688C35.4914 65.192 35.5914 65.632 35.7914 66.008C35.9914 66.376 36.2594 66.66 36.5954 66.86C36.9314 67.052 37.3034 67.148 37.7114 67.148C38.1194 67.148 38.4914 67.052 38.8274 66.86C39.1714 66.66 39.4434 66.376 39.6434 66.008C39.8434 65.632 39.9434 65.196 39.9434 64.7ZM46.0968 61.304C46.8968 61.304 47.5448 61.548 48.0408 62.036C48.5368 62.516 48.7848 63.212 48.7848 64.124V68H47.7048V64.28C47.7048 63.624 47.5408 63.124 47.2128 62.78C46.8848 62.428 46.4368 62.252 45.8688 62.252C45.2928 62.252 44.8328 62.432 44.4888 62.792C44.1528 63.152 43.9848 63.676 43.9848 64.364V68H42.8928V61.424H43.9848V62.36C44.2008 62.024 44.4928 61.764 44.8608 61.58C45.2368 61.396 45.6488 61.304 46.0968 61.304ZM50.1605 64.7C50.1605 64.02 50.2965 63.428 50.5685 62.924C50.8405 62.412 51.2165 62.016 51.6965 61.736C52.1845 61.456 52.7405 61.316 53.3645 61.316C54.1725 61.316 54.8365 61.512 55.3565 61.904C55.8845 62.296 56.2325 62.84 56.4005 63.536H55.2245C55.1125 63.136 54.8925 62.82 54.5645 62.588C54.2445 62.356 53.8445 62.24 53.3645 62.24C52.7405 62.24 52.2365 62.456 51.8525 62.888C51.4685 63.312 51.2765 63.916 51.2765 64.7C51.2765 65.492 51.4685 66.104 51.8525 66.536C52.2365 66.968 52.7405 67.184 53.3645 67.184C53.8445 67.184 54.2445 67.072 54.5645 66.848C54.8845 66.624 55.1045 66.304 55.2245 65.888H56.4005C56.2245 66.56 55.8725 67.1 55.3445 67.508C54.8165 67.908 54.1565 68.108 53.3645 68.108C52.7405 68.108 52.1845 67.968 51.6965 67.688C51.2165 67.408 50.8405 67.012 50.5685 66.5C50.2965 65.988 50.1605 65.388 50.1605 64.7ZM63.8576 64.46C63.8576 64.668 63.8456 64.888 63.8216 65.12H58.5656C58.6056 65.768 58.8256 66.276 59.2256 66.644C59.6336 67.004 60.1256 67.184 60.7016 67.184C61.1736 67.184 61.5656 67.076 61.8776 66.86C62.1976 66.636 62.4216 66.34 62.5496 65.972H63.7256C63.5496 66.604 63.1976 67.12 62.6696 67.52C62.1416 67.912 61.4856 68.108 60.7016 68.108C60.0776 68.108 59.5176 67.968 59.0216 67.688C58.5336 67.408 58.1496 67.012 57.8696 66.5C57.5896 65.98 57.4496 65.38 57.4496 64.7C57.4496 64.02 57.5856 63.424 57.8576 62.912C58.1296 62.4 58.5096 62.008 58.9976 61.736C59.4936 61.456 60.0616 61.316 60.7016 61.316C61.3256 61.316 61.8776 61.452 62.3576 61.724C62.8376 61.996 63.2056 62.372 63.4616 62.852C63.7256 63.324 63.8576 63.86 63.8576 64.46ZM62.7296 64.232C62.7296 63.816 62.6376 63.46 62.4536 63.164C62.2696 62.86 62.0176 62.632 61.6976 62.48C61.3856 62.32 61.0376 62.24 60.6536 62.24C60.1016 62.24 59.6296 62.416 59.2376 62.768C58.8536 63.12 58.6336 63.608 58.5776 64.232H62.7296Z" fill="#27272A"/>
<defs>
<clipPath id="clip0_2317_1771">
<rect width="40" height="40" fill="white" transform="translate(24.875 8)"/>
</clipPath>
</defs>
</svg>
