<svg width="91" height="96" viewBox="0 0 91 96" fill="none" xmlns="http://www.w3.org/2000/svg">
<g clip-path="url(#clip0_2317_1906)">
<path d="M33.8105 15.8295H38.8035V26.7363H33.8105V15.8295Z" fill="#F7E1E4"/>
<path d="M35.749 19.9597H38.8029V26.7363H35.749V19.9597Z" fill="#FBEFF1"/>
<path d="M43.7955 27.6468V29.6259H28.8174V27.6468C28.8174 26.475 29.7666 25.5238 30.9377 25.5238H41.6768C42.8463 25.5238 43.7955 26.4742 43.7955 27.6468Z" fill="#C63249"/>
<path d="M43.7955 27.6468V29.6259H31.7705V27.6468C31.7705 26.475 32.7189 25.5238 33.8893 25.5238H41.676C42.8455 25.5238 43.7947 26.4742 43.7947 27.6468H43.7955Z" fill="#DE8A96"/>
<path d="M47.2391 30.7085V36.3548H25.375V30.7085C25.375 29.1831 26.6094 27.9472 28.132 27.9472H44.4813C46.0047 27.9472 47.2391 29.1831 47.2391 30.7085Z" fill="#BF1932"/>
<path d="M47.2389 30.7085V36.3548H30.6396V30.7085C30.6396 29.1831 31.874 27.9472 33.3967 27.9472H44.4818C46.0053 27.9472 47.2396 29.1831 47.2396 30.7085H47.2389Z" fill="#C7374D"/>
<path d="M41.4949 13.1941C41.4949 14.7899 40.7762 16.2167 39.6457 17.1695C38.7434 17.9306 37.5785 18.3882 36.3066 18.3882C33.4426 18.3882 31.1191 16.0626 31.1191 13.1949C31.1191 10.3272 33.4426 8 36.3066 8C37.5793 8 38.7449 8.45839 39.6473 9.21952C40.777 10.1723 41.4949 11.5999 41.4949 13.1941Z" fill="#C63249"/>
<path d="M41.4949 13.1941C41.4949 14.7899 40.7762 16.2167 39.6457 17.1695C39.1809 17.3455 38.6785 17.4409 38.1527 17.4409C35.8105 17.4409 33.9121 15.5401 33.9121 13.1941C33.9121 10.8482 35.8105 8.94809 38.1527 8.94809C38.6785 8.94809 39.1824 9.04352 39.6473 9.21953C40.777 10.1723 41.4949 11.5999 41.4949 13.1941Z" fill="#DE8A96"/>
<path d="M49.2453 34.7652C48.907 34.7652 48.6328 34.4907 48.6328 34.1519V25.2258C48.6328 23.7896 49.7992 22.6217 51.2336 22.6217C52.668 22.6217 53.8344 23.7896 53.8344 25.2258V26.59C53.8344 27.3535 54.4547 27.9746 55.2172 27.9746C55.9797 27.9746 56.6 27.3535 56.6 26.59V20.2789C56.6 19.9402 56.8742 19.6656 57.2125 19.6656C57.5508 19.6656 57.825 19.9402 57.825 20.2789V26.59C57.825 28.0293 56.6555 29.2003 55.218 29.2003C53.7805 29.2003 52.6109 28.0293 52.6109 26.59V25.2258C52.6109 24.4662 51.9937 23.8482 51.2352 23.8482C50.4766 23.8482 49.8594 24.4662 49.8594 25.2258V34.1519C49.8594 34.4907 49.5852 34.7652 49.2469 34.7652H49.2453Z" fill="#C7374D"/>
<path d="M57.3098 31.8498H41.1801C36.7262 31.8498 33.1152 35.4646 33.1152 39.9249C33.1152 44.3853 36.7254 48 41.1801 48C44.0566 48 46.5816 46.4911 48.009 44.2218H50.4809C51.9082 46.4918 54.4332 48 57.3098 48C61.7637 48 65.3746 44.3845 65.3746 39.9249C65.3746 35.4653 61.7637 31.8498 57.3098 31.8498Z" fill="#F7E1E4"/>
<path d="M45.2832 38.1273H42.7699V35.6108H39.1793V38.1273H36.666V41.7225H39.1793V44.239H42.7699V41.7225H45.2832V38.1273Z" fill="#C7374D"/>
<path d="M55.5801 39.9249C55.5801 41.1131 54.6184 42.0761 53.4316 42.0761C52.2449 42.0761 51.2832 41.1131 51.2832 39.9249C51.2832 38.7367 52.2449 37.7737 53.4316 37.7737C54.6184 37.7737 55.5801 38.7367 55.5801 39.9249Z" fill="#DE8A96"/>
<path d="M49.6355 40.5374H47.6379C47.2996 40.5374 47.0254 40.2628 47.0254 39.9241C47.0254 39.5854 47.2996 39.3109 47.6379 39.3109H49.6355C49.9738 39.3109 50.248 39.5854 50.248 39.9241C50.248 40.2628 49.9738 40.5374 49.6355 40.5374Z" fill="#F3D6DA"/>
<path d="M59.459 36.0411C59.459 37.2293 58.4973 38.1922 57.3105 38.1922C56.1238 38.1922 55.1621 37.2293 55.1621 36.0411C55.1621 34.8528 56.1238 33.8899 57.3105 33.8899C58.4973 33.8899 59.459 34.8528 59.459 36.0411Z" fill="#DE8A96"/>
<path d="M63.3379 39.9249C63.3379 41.1131 62.3762 42.0761 61.1895 42.0761C60.0027 42.0761 59.041 41.1131 59.041 39.9249C59.041 38.7367 60.0027 37.7737 61.1895 37.7737C62.3762 37.7737 63.3379 38.7367 63.3379 39.9249Z" fill="#E7A8B1"/>
<path d="M59.459 43.8087C59.459 44.997 58.4973 45.9599 57.3105 45.9599C56.1238 45.9599 55.1621 44.997 55.1621 43.8087C55.1621 42.6205 56.1238 41.6576 57.3105 41.6576C58.4973 41.6576 59.459 42.6205 59.459 43.8087Z" fill="#E7A8B1"/>
<path d="M57.8223 45.8981C57.6582 45.9388 57.4871 45.9599 57.3105 45.9599C56.1246 45.9599 55.1621 44.997 55.1621 43.8087C55.1621 42.6205 56.1246 41.6576 57.3105 41.6576C57.4871 41.6576 57.6582 41.6787 57.8223 41.7194C56.8824 41.9493 56.1855 42.7981 56.1855 43.8087C56.1855 44.8194 56.8824 45.6697 57.8223 45.8981Z" fill="#D46576"/>
<path d="M61.7012 42.0135C61.5371 42.0542 61.366 42.0761 61.1895 42.0761C60.0035 42.0761 59.041 41.1131 59.041 39.9249C59.041 38.7367 60.0035 37.7737 61.1895 37.7737C61.366 37.7737 61.5371 37.7949 61.7012 37.8355C60.7613 38.0655 60.0645 38.9135 60.0645 39.9249C60.0645 40.9364 60.7613 41.7851 61.7012 42.0143V42.0135Z" fill="#D46576"/>
<path d="M57.8223 38.1304C57.6582 38.1711 57.4871 38.1922 57.3105 38.1922C56.1246 38.1922 55.1621 37.2293 55.1621 36.0411C55.1621 34.8528 56.1246 33.8899 57.3105 33.8899C57.4871 33.8899 57.6582 33.911 57.8223 33.9525C56.8824 34.1817 56.1855 35.0304 56.1855 36.0418C56.1855 37.0533 56.8824 37.902 57.8223 38.1312V38.1304Z" fill="#C63249"/>
<path d="M53.9434 42.0135C53.7793 42.0542 53.6074 42.0761 53.4316 42.0761C52.2457 42.0761 51.2832 41.1131 51.2832 39.9249C51.2832 38.7367 52.2457 37.7737 53.4316 37.7737C53.6074 37.7737 53.7793 37.7949 53.9434 37.8355C53.0035 38.0655 52.3066 38.9135 52.3066 39.9249C52.3066 40.9364 53.0043 41.7851 53.9434 42.0143V42.0135Z" fill="#C63249"/>
</g>
<path d="M28.3596 62.06C28.1276 61.572 27.7916 61.196 27.3516 60.932C26.9116 60.66 26.3996 60.524 25.8156 60.524C25.2316 60.524 24.7036 60.66 24.2316 60.932C23.7676 61.196 23.3996 61.58 23.1276 62.084C22.8636 62.58 22.7316 63.156 22.7316 63.812C22.7316 64.468 22.8636 65.044 23.1276 65.54C23.3996 66.036 23.7676 66.42 24.2316 66.692C24.7036 66.956 25.2316 67.088 25.8156 67.088C26.6316 67.088 27.3036 66.844 27.8316 66.356C28.3596 65.868 28.6676 65.208 28.7556 64.376H25.4196V63.488H29.9196V64.328C29.8556 65.016 29.6396 65.648 29.2716 66.224C28.9036 66.792 28.4196 67.244 27.8196 67.58C27.2196 67.908 26.5516 68.072 25.8156 68.072C25.0396 68.072 24.3316 67.892 23.6916 67.532C23.0516 67.164 22.5436 66.656 22.1676 66.008C21.7996 65.36 21.6156 64.628 21.6156 63.812C21.6156 62.996 21.7996 62.264 22.1676 61.616C22.5436 60.96 23.0516 60.452 23.6916 60.092C24.3316 59.724 25.0396 59.54 25.8156 59.54C26.7036 59.54 27.4876 59.76 28.1676 60.2C28.8556 60.64 29.3556 61.26 29.6676 62.06H28.3596ZM30.9555 64.688C30.9555 64.016 31.0915 63.428 31.3635 62.924C31.6355 62.412 32.0075 62.016 32.4795 61.736C32.9595 61.456 33.4915 61.316 34.0755 61.316C34.6515 61.316 35.1515 61.44 35.5755 61.688C35.9995 61.936 36.3155 62.248 36.5235 62.624V61.424H37.6275V68H36.5235V66.776C36.3075 67.16 35.9835 67.48 35.5515 67.736C35.1275 67.984 34.6315 68.108 34.0635 68.108C33.4795 68.108 32.9515 67.964 32.4795 67.676C32.0075 67.388 31.6355 66.984 31.3635 66.464C31.0915 65.944 30.9555 65.352 30.9555 64.688ZM36.5235 64.7C36.5235 64.204 36.4235 63.772 36.2235 63.404C36.0235 63.036 35.7515 62.756 35.4075 62.564C35.0715 62.364 34.6995 62.264 34.2915 62.264C33.8835 62.264 33.5115 62.36 33.1755 62.552C32.8395 62.744 32.5715 63.024 32.3715 63.392C32.1715 63.76 32.0715 64.192 32.0715 64.688C32.0715 65.192 32.1715 65.632 32.3715 66.008C32.5715 66.376 32.8395 66.66 33.1755 66.86C33.5115 67.052 33.8835 67.148 34.2915 67.148C34.6995 67.148 35.0715 67.052 35.4075 66.86C35.7515 66.66 36.0235 66.376 36.2235 66.008C36.4235 65.632 36.5235 65.196 36.5235 64.7ZM47.3808 61.304C47.8928 61.304 48.3488 61.412 48.7488 61.628C49.1488 61.836 49.4648 62.152 49.6968 62.576C49.9288 63 50.0448 63.516 50.0448 64.124V68H48.9648V64.28C48.9648 63.624 48.8008 63.124 48.4728 62.78C48.1528 62.428 47.7168 62.252 47.1648 62.252C46.5968 62.252 46.1448 62.436 45.8088 62.804C45.4728 63.164 45.3048 63.688 45.3048 64.376V68H44.2248V64.28C44.2248 63.624 44.0608 63.124 43.7328 62.78C43.4128 62.428 42.9768 62.252 42.4248 62.252C41.8568 62.252 41.4048 62.436 41.0688 62.804C40.7328 63.164 40.5648 63.688 40.5648 64.376V68H39.4728V61.424H40.5648V62.372C40.7808 62.028 41.0688 61.764 41.4288 61.58C41.7968 61.396 42.2008 61.304 42.6408 61.304C43.1928 61.304 43.6808 61.428 44.1048 61.676C44.5288 61.924 44.8448 62.288 45.0528 62.768C45.2368 62.304 45.5408 61.944 45.9648 61.688C46.3888 61.432 46.8608 61.304 47.3808 61.304ZM52.4001 60.356C52.1921 60.356 52.0161 60.284 51.8721 60.14C51.7281 59.996 51.6561 59.82 51.6561 59.612C51.6561 59.404 51.7281 59.228 51.8721 59.084C52.0161 58.94 52.1921 58.868 52.4001 58.868C52.6001 58.868 52.7681 58.94 52.9041 59.084C53.0481 59.228 53.1201 59.404 53.1201 59.612C53.1201 59.82 53.0481 59.996 52.9041 60.14C52.7681 60.284 52.6001 60.356 52.4001 60.356ZM52.9281 61.424V68H51.8361V61.424H52.9281ZM57.9932 61.304C58.7932 61.304 59.4412 61.548 59.9372 62.036C60.4332 62.516 60.6812 63.212 60.6812 64.124V68H59.6012V64.28C59.6012 63.624 59.4372 63.124 59.1092 62.78C58.7812 62.428 58.3332 62.252 57.7652 62.252C57.1892 62.252 56.7292 62.432 56.3852 62.792C56.0492 63.152 55.8812 63.676 55.8812 64.364V68H54.7892V61.424H55.8812V62.36C56.0972 62.024 56.3892 61.764 56.7572 61.58C57.1332 61.396 57.5452 61.304 57.9932 61.304ZM65.177 61.316C65.745 61.316 66.241 61.44 66.665 61.688C67.097 61.936 67.417 62.248 67.625 62.624V61.424H68.729V68.144C68.729 68.744 68.601 69.276 68.345 69.74C68.089 70.212 67.721 70.58 67.241 70.844C66.769 71.108 66.217 71.24 65.585 71.24C64.721 71.24 64.001 71.036 63.425 70.628C62.849 70.22 62.509 69.664 62.405 68.96H63.485C63.605 69.36 63.853 69.68 64.229 69.92C64.605 70.168 65.057 70.292 65.585 70.292C66.185 70.292 66.673 70.104 67.049 69.728C67.433 69.352 67.625 68.824 67.625 68.144V66.764C67.409 67.148 67.089 67.468 66.665 67.724C66.241 67.98 65.745 68.108 65.177 68.108C64.593 68.108 64.061 67.964 63.581 67.676C63.109 67.388 62.737 66.984 62.465 66.464C62.193 65.944 62.057 65.352 62.057 64.688C62.057 64.016 62.193 63.428 62.465 62.924C62.737 62.412 63.109 62.016 63.581 61.736C64.061 61.456 64.593 61.316 65.177 61.316ZM67.625 64.7C67.625 64.204 67.525 63.772 67.325 63.404C67.125 63.036 66.853 62.756 66.509 62.564C66.173 62.364 65.801 62.264 65.393 62.264C64.985 62.264 64.613 62.36 64.277 62.552C63.941 62.744 63.673 63.024 63.473 63.392C63.273 63.76 63.173 64.192 63.173 64.688C63.173 65.192 63.273 65.632 63.473 66.008C63.673 66.376 63.941 66.66 64.277 66.86C64.613 67.052 64.985 67.148 65.393 67.148C65.801 67.148 66.173 67.052 66.509 66.86C66.853 66.66 67.125 66.376 67.325 66.008C67.525 65.632 67.625 65.196 67.625 64.7Z" fill="#27272A"/>
<defs>
<clipPath id="clip0_2317_1906">
<rect width="40" height="40" fill="white" transform="translate(25.375 8)"/>
</clipPath>
</defs>
</svg>
