<svg width="90" height="96" viewBox="0 0 90 96" fill="none" xmlns="http://www.w3.org/2000/svg">
<g clip-path="url(#clip0_2317_1929)">
<path d="M45.1938 15.7266C45.5204 13.8726 44.2822 12.1049 42.4282 11.7784C40.5742 11.4518 38.8066 12.69 38.48 14.544C38.1534 16.3979 39.3916 18.1656 41.2456 18.4922C43.0996 18.8188 44.8672 17.5806 45.1938 15.7266Z" fill="#E296D3"/>
<path d="M31.1898 21.9781C33.0724 21.9781 34.5984 20.4521 34.5984 18.5695C34.5984 16.687 33.0724 15.1609 31.1898 15.1609C29.3073 15.1609 27.7812 16.687 27.7812 18.5695C27.7812 20.4521 29.3073 21.9781 31.1898 21.9781Z" fill="#E296D3"/>
<path d="M40.3425 16.8484C40.03 16.8484 39.7651 16.607 39.7409 16.2906C39.6675 15.3195 40.1355 14.3969 40.962 13.8828L41.0378 13.8352C41.3206 13.6594 41.6933 13.7453 41.8691 14.0289C42.0456 14.3117 41.9589 14.6844 41.6753 14.8602L41.5995 14.9078C41.1558 15.1836 40.905 15.6789 40.9448 16.1992C40.9698 16.5312 40.7206 16.8219 40.3886 16.8469C40.373 16.8484 40.3573 16.8484 40.3425 16.8484Z" fill="#DC81CA"/>
<path d="M33.0213 19.2594C32.8182 19.2594 32.6198 19.1563 32.5057 18.9703C32.2331 18.5242 31.7409 18.2695 31.2198 18.3047L31.1307 18.3109C30.7987 18.3336 30.5104 18.082 30.4877 17.7492C30.4651 17.4164 30.7167 17.1289 31.0495 17.1063L31.1385 17.1C32.1104 17.0344 33.0292 17.5102 33.5362 18.3406C33.7096 18.625 33.6198 18.9969 33.3354 19.1703C33.237 19.2305 33.1284 19.2586 33.0213 19.2586V19.2594Z" fill="#DC81CA"/>
<path d="M50.4482 27.1492L45.3975 22.7664L48.6006 19.075C49.2521 18.3242 50.3889 18.2438 51.1396 18.8953L53.4717 20.9188C54.2225 21.5703 54.3029 22.707 53.6514 23.4578L50.4482 27.1492Z" fill="#E6A7DA"/>
<path d="M46.1762 28.768L41.4473 24.0391L44.9035 20.5828C45.6066 19.8797 46.7465 19.8797 47.4488 20.5828L49.6316 22.7656C50.3348 23.4688 50.3348 24.6086 49.6316 25.311L46.1762 28.7672V28.768Z" fill="#E090D0"/>
<path d="M42.1463 23.3406L41.4479 24.0391L40.4697 27.8898L46.1768 28.7672L49.5939 25.35C50.1369 24.8062 50.2729 24.0102 50.001 23.3398H42.1463V23.3406Z" fill="#DB7FC9"/>
<path d="M34.1113 25.3234C33.3831 24.675 32.8128 23.8297 32.4917 22.8344C31.5316 19.857 33.1667 16.6648 36.1441 15.7047C39.1214 14.7445 42.3136 16.3797 43.2738 19.357C44.2339 22.3344 42.5988 25.5266 39.6214 26.4867C37.6394 27.1258 35.562 26.6148 34.1113 25.3234Z" fill="#D66CC1"/>
<path d="M43.0809 23.3406C42.4559 24.7859 41.2371 25.9656 39.6207 26.4867C36.8168 27.3906 33.8238 25.993 32.6816 23.3406H43.0809Z" fill="#C940AE"/>
<path d="M53.2902 37.4664L54.3551 29.3914L41.1699 27.782L29.1582 29.3914L30.223 37.4664L41.4777 38.0719L53.2902 37.4664Z" fill="#E7ABDC"/>
<path d="M53.291 37.4664L54.3559 29.3914L53.291 27.782L51.623 29.3914L50.4785 38.0727L53.2918 37.4672L53.291 37.4664Z" fill="#E194D2"/>
<path d="M38.0477 22.7852C38.9197 22.7852 39.6266 22.0783 39.6266 21.2063C39.6266 20.3342 38.9197 19.6273 38.0477 19.6273C37.1757 19.6273 36.4688 20.3342 36.4688 21.2063C36.4688 22.0783 37.1757 22.7852 38.0477 22.7852Z" fill="#F2D1EC"/>
<path d="M55.0035 29.3906H28.5113C28.1738 29.3906 27.9004 29.1172 27.9004 28.7797V25.9344C27.9004 25.5969 28.1738 25.3234 28.5113 25.3234H55.0035C55.341 25.3234 55.6145 25.5969 55.6145 25.9344V28.7797C55.6145 29.1172 55.341 29.3906 55.0035 29.3906Z" fill="#E6A7DA"/>
<path d="M54.9842 25.3227H52.5693C52.917 25.3227 53.199 25.6047 53.199 25.9523V28.7609C53.199 29.1086 52.917 29.3906 52.5693 29.3906H54.9842C55.3318 29.3906 55.6139 29.1086 55.6139 28.7609V25.9523C55.6139 25.6047 55.3318 25.3227 54.9842 25.3227Z" fill="#DA7AC7"/>
<path d="M30.2236 37.4664L31.0494 43.7297C31.1799 44.7219 32.026 45.4625 33.026 45.4625H50.4877C51.4877 45.4625 52.3338 44.7211 52.4643 43.7297L53.29 37.4664H30.2236Z" fill="#D568BF"/>
<path d="M50.5566 37.4664L50.0488 41.3148C49.9184 42.307 49.0723 43.0476 48.0723 43.0476H30.959L31.0488 43.7297C31.1793 44.7219 32.0254 45.4625 33.0254 45.4625H50.4871C51.4871 45.4625 52.3332 44.7211 52.4637 43.7297L53.2895 37.4664H50.5566Z" fill="#CE52B6"/>
<path d="M36.0314 48.0086C37.4376 48.0086 38.5775 46.8687 38.5775 45.4625C38.5775 44.0563 37.4376 42.9164 36.0314 42.9164C34.6253 42.9164 33.4854 44.0563 33.4854 45.4625C33.4854 46.8687 34.6253 48.0086 36.0314 48.0086Z" fill="#E6A7DA"/>
<path d="M50.0154 45.7104C50.1538 44.3111 49.1317 43.0645 47.7323 42.926C46.333 42.7876 45.0864 43.8097 44.9479 45.2091C44.8095 46.6084 45.8317 47.855 47.231 47.9935C48.6303 48.1319 49.8769 47.1097 50.0154 45.7104Z" fill="#E6A7DA"/>
<path d="M47.0807 31.2352L46.9635 31.1609C46.1924 30.6719 45.9635 29.65 46.4526 28.8789L59.4745 8.34921C59.6963 7.99921 60.1612 7.89531 60.5112 8.11718L62.1534 9.15859C62.5034 9.38046 62.6073 9.84453 62.3854 10.1953L49.3627 30.725C48.8737 31.4961 47.8518 31.725 47.0807 31.2359V31.2352Z" fill="#DB7FC9"/>
</g>
<path d="M41.462 68L38.018 64.184V68H36.926V59.636H38.018V63.512L41.474 59.636H42.854L39.062 63.824L42.89 68H41.462ZM44.6735 60.356C44.4655 60.356 44.2895 60.284 44.1455 60.14C44.0015 59.996 43.9295 59.82 43.9295 59.612C43.9295 59.404 44.0015 59.228 44.1455 59.084C44.2895 58.94 44.4655 58.868 44.6735 58.868C44.8735 58.868 45.0415 58.94 45.1775 59.084C45.3215 59.228 45.3935 59.404 45.3935 59.612C45.3935 59.82 45.3215 59.996 45.1775 60.14C45.0415 60.284 44.8735 60.356 44.6735 60.356ZM45.2015 61.424V68H44.1095V61.424H45.2015ZM46.6547 64.688C46.6547 64.016 46.7907 63.428 47.0627 62.924C47.3347 62.412 47.7067 62.016 48.1787 61.736C48.6587 61.456 49.1947 61.316 49.7867 61.316C50.2987 61.316 50.7747 61.436 51.2147 61.676C51.6547 61.908 51.9907 62.216 52.2227 62.6V59.12H53.3267V68H52.2227V66.764C52.0067 67.156 51.6867 67.48 51.2627 67.736C50.8387 67.984 50.3427 68.108 49.7747 68.108C49.1907 68.108 48.6587 67.964 48.1787 67.676C47.7067 67.388 47.3347 66.984 47.0627 66.464C46.7907 65.944 46.6547 65.352 46.6547 64.688ZM52.2227 64.7C52.2227 64.204 52.1227 63.772 51.9227 63.404C51.7227 63.036 51.4507 62.756 51.1067 62.564C50.7707 62.364 50.3987 62.264 49.9907 62.264C49.5827 62.264 49.2107 62.36 48.8747 62.552C48.5387 62.744 48.2707 63.024 48.0707 63.392C47.8707 63.76 47.7707 64.192 47.7707 64.688C47.7707 65.192 47.8707 65.632 48.0707 66.008C48.2707 66.376 48.5387 66.66 48.8747 66.86C49.2107 67.052 49.5827 67.148 49.9907 67.148C50.3987 67.148 50.7707 67.052 51.1067 66.86C51.4507 66.66 51.7227 66.376 51.9227 66.008C52.1227 65.632 52.2227 65.196 52.2227 64.7ZM17.0238 78.636C17.2398 78.26 17.5598 77.948 17.9838 77.7C18.4158 77.444 18.9158 77.316 19.4838 77.316C20.0678 77.316 20.5958 77.456 21.0678 77.736C21.5478 78.016 21.9238 78.412 22.1958 78.924C22.4678 79.428 22.6038 80.016 22.6038 80.688C22.6038 81.352 22.4678 81.944 22.1958 82.464C21.9238 82.984 21.5478 83.388 21.0678 83.676C20.5958 83.964 20.0678 84.108 19.4838 84.108C18.9238 84.108 18.4278 83.984 17.9958 83.736C17.5718 83.48 17.2478 83.164 17.0238 82.788V87.12H15.9318V77.424H17.0238V78.636ZM21.4878 80.688C21.4878 80.192 21.3878 79.76 21.1878 79.392C20.9878 79.024 20.7158 78.744 20.3718 78.552C20.0358 78.36 19.6638 78.264 19.2558 78.264C18.8558 78.264 18.4838 78.364 18.1398 78.564C17.8038 78.756 17.5318 79.04 17.3238 79.416C17.1238 79.784 17.0238 80.212 17.0238 80.7C17.0238 81.196 17.1238 81.632 17.3238 82.008C17.5318 82.376 17.8038 82.66 18.1398 82.86C18.4838 83.052 18.8558 83.148 19.2558 83.148C19.6638 83.148 20.0358 83.052 20.3718 82.86C20.7158 82.66 20.9878 82.376 21.1878 82.008C21.3878 81.632 21.4878 81.192 21.4878 80.688ZM25.1332 75.12V84H24.0412V75.12H25.1332ZM26.5863 80.688C26.5863 80.016 26.7223 79.428 26.9943 78.924C27.2663 78.412 27.6383 78.016 28.1103 77.736C28.5903 77.456 29.1223 77.316 29.7063 77.316C30.2823 77.316 30.7823 77.44 31.2063 77.688C31.6303 77.936 31.9463 78.248 32.1543 78.624V77.424H33.2583V84H32.1543V82.776C31.9383 83.16 31.6143 83.48 31.1823 83.736C30.7583 83.984 30.2623 84.108 29.6943 84.108C29.1103 84.108 28.5823 83.964 28.1103 83.676C27.6383 83.388 27.2663 82.984 26.9943 82.464C26.7223 81.944 26.5863 81.352 26.5863 80.688ZM32.1543 80.7C32.1543 80.204 32.0543 79.772 31.8543 79.404C31.6543 79.036 31.3823 78.756 31.0383 78.564C30.7023 78.364 30.3303 78.264 29.9223 78.264C29.5143 78.264 29.1423 78.36 28.8063 78.552C28.4703 78.744 28.2023 79.024 28.0023 79.392C27.8023 79.76 27.7023 80.192 27.7023 80.688C27.7023 81.192 27.8023 81.632 28.0023 82.008C28.2023 82.376 28.4703 82.66 28.8063 82.86C29.1423 83.052 29.5143 83.148 29.9223 83.148C30.3303 83.148 30.7023 83.052 31.0383 82.86C31.3823 82.66 31.6543 82.376 31.8543 82.008C32.0543 81.632 32.1543 81.196 32.1543 80.7ZM40.7677 77.424L36.8077 87.096H35.6797L36.9757 83.928L34.3237 77.424H35.5357L37.5997 82.752L39.6397 77.424H40.7677ZM41.4574 80.688C41.4574 80.016 41.5934 79.428 41.8654 78.924C42.1374 78.412 42.5094 78.016 42.9814 77.736C43.4614 77.456 43.9974 77.316 44.5894 77.316C45.1014 77.316 45.5774 77.436 46.0174 77.676C46.4574 77.908 46.7934 78.216 47.0254 78.6V75.12H48.1294V84H47.0254V82.764C46.8094 83.156 46.4894 83.48 46.0654 83.736C45.6414 83.984 45.1454 84.108 44.5774 84.108C43.9934 84.108 43.4614 83.964 42.9814 83.676C42.5094 83.388 42.1374 82.984 41.8654 82.464C41.5934 81.944 41.4574 81.352 41.4574 80.688ZM47.0254 80.7C47.0254 80.204 46.9254 79.772 46.7254 79.404C46.5254 79.036 46.2534 78.756 45.9094 78.564C45.5734 78.364 45.2014 78.264 44.7934 78.264C44.3854 78.264 44.0134 78.36 43.6774 78.552C43.3414 78.744 43.0734 79.024 42.8734 79.392C42.6734 79.76 42.5734 80.192 42.5734 80.688C42.5734 81.192 42.6734 81.632 42.8734 82.008C43.0734 82.376 43.3414 82.66 43.6774 82.86C44.0134 83.052 44.3854 83.148 44.7934 83.148C45.2014 83.148 45.5734 83.052 45.9094 82.86C46.2534 82.66 46.5254 82.376 46.7254 82.008C46.9254 81.632 47.0254 81.196 47.0254 80.7ZM49.5668 80.688C49.5668 80.016 49.7028 79.428 49.9748 78.924C50.2468 78.412 50.6188 78.016 51.0908 77.736C51.5708 77.456 52.1028 77.316 52.6868 77.316C53.2628 77.316 53.7628 77.44 54.1868 77.688C54.6108 77.936 54.9268 78.248 55.1348 78.624V77.424H56.2388V84H55.1348V82.776C54.9188 83.16 54.5948 83.48 54.1628 83.736C53.7388 83.984 53.2428 84.108 52.6748 84.108C52.0908 84.108 51.5628 83.964 51.0908 83.676C50.6188 83.388 50.2468 82.984 49.9748 82.464C49.7028 81.944 49.5668 81.352 49.5668 80.688ZM55.1348 80.7C55.1348 80.204 55.0348 79.772 54.8348 79.404C54.6348 79.036 54.3628 78.756 54.0188 78.564C53.6828 78.364 53.3108 78.264 52.9028 78.264C52.4948 78.264 52.1228 78.36 51.7868 78.552C51.4508 78.744 51.1828 79.024 50.9828 79.392C50.7828 79.76 50.6828 80.192 50.6828 80.688C50.6828 81.192 50.7828 81.632 50.9828 82.008C51.1828 82.376 51.4508 82.66 51.7868 82.86C52.1228 83.052 52.4948 83.148 52.9028 83.148C53.3108 83.148 53.6828 83.052 54.0188 82.86C54.3628 82.66 54.6348 82.376 54.8348 82.008C55.0348 81.632 55.1348 81.196 55.1348 80.7ZM59.4162 78.324V82.2C59.4162 82.52 59.4842 82.748 59.6202 82.884C59.7562 83.012 59.9922 83.076 60.3282 83.076H61.1322V84H60.1482C59.5402 84 59.0842 83.86 58.7802 83.58C58.4762 83.3 58.3242 82.84 58.3242 82.2V78.324H57.4722V77.424H58.3242V75.768H59.4162V77.424H61.1322V78.324H59.4162ZM68.4553 80.46C68.4553 80.668 68.4433 80.888 68.4193 81.12H63.1633C63.2033 81.768 63.4233 82.276 63.8233 82.644C64.2313 83.004 64.7233 83.184 65.2993 83.184C65.7713 83.184 66.1633 83.076 66.4753 82.86C66.7953 82.636 67.0193 82.34 67.1473 81.972H68.3233C68.1473 82.604 67.7953 83.12 67.2673 83.52C66.7393 83.912 66.0833 84.108 65.2993 84.108C64.6753 84.108 64.1153 83.968 63.6193 83.688C63.1313 83.408 62.7473 83.012 62.4673 82.5C62.1873 81.98 62.0473 81.38 62.0473 80.7C62.0473 80.02 62.1833 79.424 62.4553 78.912C62.7273 78.4 63.1073 78.008 63.5953 77.736C64.0913 77.456 64.6593 77.316 65.2993 77.316C65.9233 77.316 66.4753 77.452 66.9553 77.724C67.4353 77.996 67.8033 78.372 68.0593 78.852C68.3233 79.324 68.4553 79.86 68.4553 80.46ZM67.3273 80.232C67.3273 79.816 67.2353 79.46 67.0513 79.164C66.8673 78.86 66.6153 78.632 66.2953 78.48C65.9833 78.32 65.6353 78.24 65.2513 78.24C64.6993 78.24 64.2273 78.416 63.8353 78.768C63.4513 79.12 63.2313 79.608 63.1753 80.232H67.3273ZM72.2247 84.108C71.7207 84.108 71.2687 84.024 70.8687 83.856C70.4687 83.68 70.1527 83.44 69.9207 83.136C69.6887 82.824 69.5607 82.468 69.5367 82.068H70.6647C70.6967 82.396 70.8487 82.664 71.1207 82.872C71.4007 83.08 71.7647 83.184 72.2127 83.184C72.6287 83.184 72.9567 83.092 73.1967 82.908C73.4367 82.724 73.5567 82.492 73.5567 82.212C73.5567 81.924 73.4287 81.712 73.1727 81.576C72.9167 81.432 72.5207 81.292 71.9847 81.156C71.4967 81.028 71.0967 80.9 70.7847 80.772C70.4807 80.636 70.2167 80.44 69.9927 80.184C69.7767 79.92 69.6687 79.576 69.6687 79.152C69.6687 78.816 69.7687 78.508 69.9687 78.228C70.1687 77.948 70.4527 77.728 70.8207 77.568C71.1887 77.4 71.6087 77.316 72.0807 77.316C72.8087 77.316 73.3967 77.5 73.8447 77.868C74.2927 78.236 74.5327 78.74 74.5647 79.38H73.4727C73.4487 79.036 73.3087 78.76 73.0527 78.552C72.8047 78.344 72.4687 78.24 72.0447 78.24C71.6527 78.24 71.3407 78.324 71.1087 78.492C70.8767 78.66 70.7607 78.88 70.7607 79.152C70.7607 79.368 70.8287 79.548 70.9647 79.692C71.1087 79.828 71.2847 79.94 71.4927 80.028C71.7087 80.108 72.0047 80.2 72.3807 80.304C72.8527 80.432 73.2367 80.56 73.5327 80.688C73.8287 80.808 74.0807 80.992 74.2887 81.24C74.5047 81.488 74.6167 81.812 74.6247 82.212C74.6247 82.572 74.5247 82.896 74.3247 83.184C74.1247 83.472 73.8407 83.7 73.4727 83.868C73.1127 84.028 72.6967 84.108 72.2247 84.108Z" fill="#27272A"/>
<defs>
<clipPath id="clip0_2317_1929">
<rect width="40" height="40" fill="white" transform="translate(25.125 8)"/>
</clipPath>
</defs>
</svg>
