<svg width="91" height="96" viewBox="0 0 91 96" fill="none" xmlns="http://www.w3.org/2000/svg">
<path d="M45.3754 18.0742C45.0418 18.0742 44.7715 17.8039 44.7715 17.4703V12.3242C44.7715 11.9906 45.0418 11.7203 45.3754 11.7203C45.709 11.7203 45.9793 11.9906 45.9793 12.3242V17.4703C45.9793 17.8039 45.709 18.0742 45.3754 18.0742Z" fill="#F8D7E3"/>
<path d="M50.9174 30.525L50.0432 28.9711L45.3752 22.7523L40.7072 28.9711L39.833 30.525L45.3752 36.5062L50.9174 30.525Z" fill="#FFCBDE"/>
<path d="M39.8326 30.525L30.0029 48H34.7248L45.3756 36.5063L39.8334 30.525H39.8326Z" fill="#FFB1CE"/>
<path d="M45.375 36.5063L56.0258 48H60.7477L50.918 30.525L45.3758 36.5063H45.375Z" fill="#FFB1CE"/>
<path d="M34.7246 48H56.0262L45.3754 36.5062L34.7246 48Z" fill="#FF92BA"/>
<path d="M35.375 8H55.375V10.8352H35.375V8Z" fill="#F8D7E3"/>
<path d="M52.375 8H55.5945V10.8352H52.375V8Z" fill="#F5C8D9"/>
<path d="M45.3752 13.9344C44.0596 13.9344 42.9932 12.8679 42.9932 11.5523V10.8344H47.7572V11.5523C47.7572 12.8679 46.6908 13.9344 45.3752 13.9344Z" fill="#DB306E"/>
<path d="M49.3086 25.1672V19.7946C49.3086 17.6219 47.5477 15.861 45.375 15.861C43.2023 15.861 41.4414 17.6219 41.4414 19.7946V25.0914L49.3086 25.1672Z" fill="#DB306E"/>
<path d="M45.375 15.861C44.8016 15.861 44.257 15.9852 43.7656 16.2055C45.1352 16.8203 46.0898 18.1953 46.0898 19.7946V25.136L49.3094 25.1672V19.7946C49.3094 17.6219 47.5484 15.861 45.3758 15.861H45.375Z" fill="#D92365"/>
<path d="M40.2832 25.1875C40.2832 23.8422 42.5629 22.7523 45.3754 22.7523C48.1879 22.7523 50.4676 23.8429 50.4676 25.1875V27.7633C50.4676 26.4179 48.1879 25.3281 45.3754 25.3281C42.5629 25.3281 40.2832 26.4187 40.2832 27.7633V25.1875Z" fill="#DF487F"/>
<path d="M45.3754 30.1828C48.1877 30.1828 50.4676 29.0926 50.4676 27.7477C50.4676 26.4028 48.1877 25.3125 45.3754 25.3125C42.5631 25.3125 40.2832 26.4028 40.2832 27.7477C40.2832 29.0926 42.5631 30.1828 45.3754 30.1828Z" fill="#E87DA4"/>
<path d="M31.6058 62.084C31.6058 62.78 31.3658 63.36 30.8858 63.824C30.4138 64.28 29.6898 64.508 28.7138 64.508H27.1058V68H26.0138V59.636H28.7138C29.6578 59.636 30.3738 59.864 30.8618 60.32C31.3578 60.776 31.6058 61.364 31.6058 62.084ZM28.7138 63.608C29.3218 63.608 29.7698 63.476 30.0578 63.212C30.3458 62.948 30.4898 62.572 30.4898 62.084C30.4898 61.052 29.8978 60.536 28.7138 60.536H27.1058V63.608H28.7138ZM32.5551 64.688C32.5551 64.016 32.6911 63.428 32.9631 62.924C33.2351 62.412 33.6071 62.016 34.0791 61.736C34.5591 61.456 35.0911 61.316 35.6751 61.316C36.2511 61.316 36.7511 61.44 37.1751 61.688C37.5991 61.936 37.9151 62.248 38.1231 62.624V61.424H39.2271V68H38.1231V66.776C37.9071 67.16 37.5831 67.48 37.1511 67.736C36.7271 67.984 36.2311 68.108 35.6631 68.108C35.0791 68.108 34.5511 67.964 34.0791 67.676C33.6071 67.388 33.2351 66.984 32.9631 66.464C32.6911 65.944 32.5551 65.352 32.5551 64.688ZM38.1231 64.7C38.1231 64.204 38.0231 63.772 37.8231 63.404C37.6231 63.036 37.3511 62.756 37.0071 62.564C36.6711 62.364 36.2991 62.264 35.8911 62.264C35.4831 62.264 35.1111 62.36 34.7751 62.552C34.4391 62.744 34.1711 63.024 33.9711 63.392C33.7711 63.76 33.6711 64.192 33.6711 64.688C33.6711 65.192 33.7711 65.632 33.9711 66.008C34.1711 66.376 34.4391 66.66 34.7751 66.86C35.1111 67.052 35.4831 67.148 35.8911 67.148C36.2991 67.148 36.6711 67.052 37.0071 66.86C37.3511 66.66 37.6231 66.376 37.8231 66.008C38.0231 65.632 38.1231 65.196 38.1231 64.7ZM42.1644 62.492C42.3564 62.116 42.6284 61.824 42.9804 61.616C43.3404 61.408 43.7764 61.304 44.2884 61.304V62.432H44.0004C42.7764 62.432 42.1644 63.096 42.1644 64.424V68H41.0724V61.424H42.1644V62.492ZM46.881 62.324V66.2C46.881 66.52 46.949 66.748 47.085 66.884C47.221 67.012 47.457 67.076 47.793 67.076H48.597V68H47.613C47.005 68 46.549 67.86 46.245 67.58C45.941 67.3 45.789 66.84 45.789 66.2V62.324H44.937V61.424H45.789V59.768H46.881V61.424H48.597V62.324H46.881ZM50.4841 60.356C50.2761 60.356 50.1001 60.284 49.9561 60.14C49.8121 59.996 49.7401 59.82 49.7401 59.612C49.7401 59.404 49.8121 59.228 49.9561 59.084C50.1001 58.94 50.2761 58.868 50.4841 58.868C50.6841 58.868 50.8521 58.94 50.9881 59.084C51.1321 59.228 51.2041 59.404 51.2041 59.612C51.2041 59.82 51.1321 59.996 50.9881 60.14C50.8521 60.284 50.6841 60.356 50.4841 60.356ZM51.0121 61.424V68H49.9201V61.424H51.0121ZM58.8732 64.46C58.8732 64.668 58.8612 64.888 58.8372 65.12H53.5812C53.6212 65.768 53.8412 66.276 54.2412 66.644C54.6492 67.004 55.1412 67.184 55.7172 67.184C56.1892 67.184 56.5812 67.076 56.8932 66.86C57.2132 66.636 57.4372 66.34 57.5652 65.972H58.7412C58.5652 66.604 58.2132 67.12 57.6852 67.52C57.1572 67.912 56.5012 68.108 55.7172 68.108C55.0932 68.108 54.5332 67.968 54.0372 67.688C53.5492 67.408 53.1652 67.012 52.8852 66.5C52.6052 65.98 52.4652 65.38 52.4652 64.7C52.4652 64.02 52.6012 63.424 52.8732 62.912C53.1452 62.4 53.5252 62.008 54.0132 61.736C54.5092 61.456 55.0772 61.316 55.7172 61.316C56.3412 61.316 56.8932 61.452 57.3732 61.724C57.8532 61.996 58.2212 62.372 58.4772 62.852C58.7412 63.324 58.8732 63.86 58.8732 64.46ZM57.7452 64.232C57.7452 63.816 57.6532 63.46 57.4692 63.164C57.2852 62.86 57.0332 62.632 56.7132 62.48C56.4012 62.32 56.0532 62.24 55.6692 62.24C55.1172 62.24 54.6452 62.416 54.2532 62.768C53.8692 63.12 53.6492 63.608 53.5932 64.232H57.7452ZM62.6426 68.108C62.1386 68.108 61.6866 68.024 61.2866 67.856C60.8866 67.68 60.5706 67.44 60.3386 67.136C60.1066 66.824 59.9786 66.468 59.9546 66.068H61.0826C61.1146 66.396 61.2666 66.664 61.5386 66.872C61.8186 67.08 62.1826 67.184 62.6306 67.184C63.0466 67.184 63.3746 67.092 63.6146 66.908C63.8546 66.724 63.9746 66.492 63.9746 66.212C63.9746 65.924 63.8466 65.712 63.5906 65.576C63.3346 65.432 62.9386 65.292 62.4026 65.156C61.9146 65.028 61.5146 64.9 61.2026 64.772C60.8986 64.636 60.6346 64.44 60.4106 64.184C60.1946 63.92 60.0866 63.576 60.0866 63.152C60.0866 62.816 60.1866 62.508 60.3866 62.228C60.5866 61.948 60.8706 61.728 61.2386 61.568C61.6066 61.4 62.0266 61.316 62.4986 61.316C63.2266 61.316 63.8146 61.5 64.2626 61.868C64.7106 62.236 64.9506 62.74 64.9826 63.38H63.8906C63.8666 63.036 63.7266 62.76 63.4706 62.552C63.2226 62.344 62.8866 62.24 62.4626 62.24C62.0706 62.24 61.7586 62.324 61.5266 62.492C61.2946 62.66 61.1786 62.88 61.1786 63.152C61.1786 63.368 61.2466 63.548 61.3826 63.692C61.5266 63.828 61.7026 63.94 61.9106 64.028C62.1266 64.108 62.4226 64.2 62.7986 64.304C63.2706 64.432 63.6546 64.56 63.9506 64.688C64.2466 64.808 64.4986 64.992 64.7066 65.24C64.9226 65.488 65.0346 65.812 65.0426 66.212C65.0426 66.572 64.9426 66.896 64.7426 67.184C64.5426 67.472 64.2586 67.7 63.8906 67.868C63.5306 68.028 63.1146 68.108 62.6426 68.108Z" fill="#27272A"/>
</svg>
