<svg width="48" height="40" viewBox="0 0 48 40" fill="none" xmlns="http://www.w3.org/2000/svg">
<g clip-path="url(#clip0_2545_2790)">
<path d="M17.0615 12.6977H20.0573V19.2418H17.0615V12.6977Z" fill="#F7E1E4"/>
<path d="M18.2246 15.1758H20.057V19.2418H18.2246V15.1758Z" fill="#FBEFF1"/>
<path d="M23.0523 19.7881V20.9755H14.0654V19.7881C14.0654 19.085 14.635 18.5143 15.3376 18.5143H21.7811C22.4828 18.5143 23.0523 19.0845 23.0523 19.7881Z" fill="#C63249"/>
<path d="M23.0519 19.7881V20.9755H15.8369V19.7881C15.8369 19.085 16.406 18.5143 17.1082 18.5143H21.7802C22.4819 18.5143 23.0514 19.0845 23.0514 19.7881H23.0519Z" fill="#DE8A96"/>
<path d="M25.1184 21.6251V25.0129H12V21.6251C12 20.7099 12.7406 19.9683 13.6542 19.9683H23.4637C24.3778 19.9683 25.1184 20.7099 25.1184 21.6251Z" fill="#BF1932"/>
<path d="M25.1187 21.6251V25.0129H15.1592V21.6251C15.1592 20.7099 15.8998 19.9683 16.8134 19.9683H23.4645C24.3786 19.9683 25.1192 20.7099 25.1192 21.6251H25.1187Z" fill="#C7374D"/>
<path d="M21.6718 11.1165C21.6718 12.0739 21.2405 12.93 20.5622 13.5017C20.0208 13.9583 19.3219 14.2329 18.5588 14.2329C16.8404 14.2329 15.4463 12.8375 15.4463 11.1169C15.4463 9.3963 16.8404 8 18.5588 8C19.3224 8 20.0218 8.27504 20.5632 8.73171C21.241 9.30337 21.6718 10.1599 21.6718 11.1165Z" fill="#C63249"/>
<path d="M21.6718 11.1165C21.6718 12.0739 21.2405 12.93 20.5622 13.5017C20.2833 13.6073 19.9819 13.6645 19.6664 13.6645C18.2611 13.6645 17.1221 12.524 17.1221 11.1165C17.1221 9.70889 18.2611 8.56885 19.6664 8.56885C19.9819 8.56885 20.2843 8.62611 20.5632 8.73171C21.241 9.30337 21.6718 10.1599 21.6718 11.1165Z" fill="#DE8A96"/>
<path d="M26.3226 24.0591C26.1196 24.0591 25.9551 23.8944 25.9551 23.6912V18.3355C25.9551 17.4738 26.6549 16.773 27.5155 16.773C28.3762 16.773 29.076 17.4738 29.076 18.3355V19.154C29.076 19.6121 29.4482 19.9848 29.9057 19.9848C30.3632 19.9848 30.7354 19.6121 30.7354 19.154V15.3673C30.7354 15.1641 30.8999 14.9994 31.1029 14.9994C31.3059 14.9994 31.4704 15.1641 31.4704 15.3673V19.154C31.4704 20.0176 30.7687 20.7202 29.9062 20.7202C29.0437 20.7202 28.342 20.0176 28.342 19.154V18.3355C28.342 17.8797 27.9716 17.509 27.5165 17.509C27.0613 17.509 26.691 17.8797 26.691 18.3355V23.6912C26.691 23.8944 26.5265 24.0591 26.3235 24.0591H26.3226Z" fill="#C7374D"/>
<path d="M31.1612 22.3099H21.4834C18.8111 22.3099 16.6445 24.4787 16.6445 27.1549C16.6445 29.8311 18.8106 32 21.4834 32C23.2094 32 24.7244 31.0946 25.5808 29.733H27.0639C27.9203 31.0951 29.4353 32 31.1612 32C33.8336 32 36.0002 29.8307 36.0002 27.1549C36.0002 24.4792 33.8336 22.3099 31.1612 22.3099Z" fill="#F7E1E4"/>
<path d="M23.9447 26.0764H22.4368V24.5665H20.2824V26.0764H18.7744V28.2335H20.2824V29.7434H22.4368V28.2335H23.9447V26.0764Z" fill="#C7374D"/>
<path d="M30.123 27.1549C30.123 27.8679 29.546 28.4456 28.834 28.4456C28.122 28.4456 27.5449 27.8679 27.5449 27.1549C27.5449 26.442 28.122 25.8642 28.834 25.8642C29.546 25.8642 30.123 26.442 30.123 27.1549Z" fill="#DE8A96"/>
<path d="M26.5563 27.5224H25.3577C25.1548 27.5224 24.9902 27.3577 24.9902 27.1545C24.9902 26.9512 25.1548 26.7865 25.3577 26.7865H26.5563C26.7593 26.7865 26.9238 26.9512 26.9238 27.1545C26.9238 27.3577 26.7593 27.5224 26.5563 27.5224Z" fill="#F3D6DA"/>
<path d="M32.4502 24.8246C32.4502 25.5376 31.8732 26.1153 31.1611 26.1153C30.4491 26.1153 29.8721 25.5376 29.8721 24.8246C29.8721 24.1117 30.4491 23.5339 31.1611 23.5339C31.8732 23.5339 32.4502 24.1117 32.4502 24.8246Z" fill="#DE8A96"/>
<path d="M34.7773 27.1549C34.7773 27.8679 34.2003 28.4456 33.4883 28.4456C32.7763 28.4456 32.1992 27.8679 32.1992 27.1549C32.1992 26.442 32.7763 25.8642 33.4883 25.8642C34.2003 25.8642 34.7773 26.442 34.7773 27.1549Z" fill="#E7A8B1"/>
<path d="M32.4502 29.4853C32.4502 30.1982 31.8732 30.776 31.1611 30.776C30.4491 30.776 29.8721 30.1982 29.8721 29.4853C29.8721 28.7723 30.4491 28.1945 31.1611 28.1945C31.8732 28.1945 32.4502 28.7723 32.4502 29.4853Z" fill="#E7A8B1"/>
<path d="M31.4682 30.7389C31.3697 30.7633 31.2671 30.776 31.1611 30.776C30.4496 30.776 29.8721 30.1982 29.8721 29.4853C29.8721 28.7723 30.4496 28.1945 31.1611 28.1945C31.2671 28.1945 31.3697 28.2072 31.4682 28.2316C30.9043 28.3696 30.4861 28.8789 30.4861 29.4853C30.4861 30.0916 30.9043 30.6018 31.4682 30.7389Z" fill="#D46576"/>
<path d="M33.7953 28.4081C33.6969 28.4325 33.5942 28.4456 33.4883 28.4456C32.7767 28.4456 32.1992 27.8679 32.1992 27.1549C32.1992 26.442 32.7767 25.8642 33.4883 25.8642C33.5942 25.8642 33.6969 25.8769 33.7953 25.9013C33.2314 26.0393 32.8133 26.5481 32.8133 27.1549C32.8133 27.7618 33.2314 28.271 33.7953 28.4086V28.4081Z" fill="#D46576"/>
<path d="M31.4682 26.0783C31.3697 26.1027 31.2671 26.1153 31.1611 26.1153C30.4496 26.1153 29.8721 25.5376 29.8721 24.8246C29.8721 24.1117 30.4496 23.5339 31.1611 23.5339C31.2671 23.5339 31.3697 23.5466 31.4682 23.5715C30.9043 23.709 30.4861 24.2182 30.4861 24.8251C30.4861 25.432 30.9043 25.9412 31.4682 26.0787V26.0783Z" fill="#C63249"/>
<path d="M29.141 28.4081C29.0426 28.4325 28.9395 28.4456 28.834 28.4456C28.1224 28.4456 27.5449 27.8679 27.5449 27.1549C27.5449 26.442 28.1224 25.8642 28.834 25.8642C28.9395 25.8642 29.0426 25.8769 29.141 25.9013C28.5771 26.0393 28.159 26.5481 28.159 27.1549C28.159 27.7618 28.5776 28.271 29.141 28.4086V28.4081Z" fill="#C63249"/>
</g>
<defs>
<clipPath id="clip0_2545_2790">
<rect width="24" height="24" fill="white" transform="translate(12 8)"/>
</clipPath>
</defs>
</svg>
