<svg width="48" height="40" viewBox="0 0 48 40" fill="none" xmlns="http://www.w3.org/2000/svg">
<g clip-path="url(#clip0_2545_2812)">
<path d="M24.0413 12.6359C24.2372 11.5236 23.4943 10.463 22.3819 10.267C21.2695 10.0711 20.2089 10.814 20.013 11.9264C19.817 13.0388 20.56 14.0994 21.6724 14.2953C22.7847 14.4913 23.8453 13.7483 24.0413 12.6359Z" fill="#E296D3"/>
<path d="M15.6389 16.3869C16.7684 16.3869 17.6841 15.4712 17.6841 14.3417C17.6841 13.2122 16.7684 12.2966 15.6389 12.2966C14.5094 12.2966 13.5938 13.2122 13.5938 14.3417C13.5938 15.4712 14.5094 16.3869 15.6389 16.3869Z" fill="#E296D3"/>
<path d="M21.1311 13.3091C20.9436 13.3091 20.7847 13.1642 20.7701 12.9744C20.7261 12.3917 21.0069 11.8381 21.5028 11.5297L21.5483 11.5011C21.718 11.3956 21.9415 11.4472 22.047 11.6173C22.153 11.787 22.1009 12.0106 21.9308 12.1161L21.8853 12.1447C21.619 12.3102 21.4686 12.6073 21.4925 12.9195C21.5075 13.1187 21.358 13.2931 21.1587 13.3081C21.1494 13.3091 21.14 13.3091 21.1311 13.3091Z" fill="#DC81CA"/>
<path d="M16.7378 14.7556C16.6159 14.7556 16.4969 14.6937 16.4284 14.5822C16.2648 14.3145 15.9695 14.1617 15.6569 14.1828L15.6034 14.1866C15.4042 14.2002 15.2312 14.0492 15.2176 13.8495C15.2041 13.6498 15.355 13.4773 15.5547 13.4637L15.6081 13.46C16.1912 13.4206 16.7425 13.7061 17.0467 14.2044C17.1508 14.375 17.0969 14.5981 16.9262 14.7022C16.8672 14.7383 16.802 14.7552 16.7378 14.7552V14.7556Z" fill="#DC81CA"/>
<path d="M27.1945 19.4895L24.1641 16.8598L26.0859 14.645C26.4769 14.1945 27.1589 14.1463 27.6094 14.5372L29.0086 15.7513C29.4591 16.1422 29.5073 16.8242 29.1164 17.2747L27.1945 19.4895Z" fill="#E6A7DA"/>
<path d="M24.6303 20.4608L21.793 17.6234L23.8667 15.5497C24.2886 15.1278 24.9725 15.1278 25.3939 15.5497L26.7036 16.8594C27.1255 17.2812 27.1255 17.9652 26.7036 18.3866L24.6303 20.4603V20.4608Z" fill="#E090D0"/>
<path d="M22.213 17.2044L21.7939 17.6234L21.207 19.9339L24.6312 20.4603L26.6816 18.41C27.0073 18.0838 27.0889 17.6061 26.9258 17.2039H22.213V17.2044Z" fill="#DB7FC9"/>
<path d="M17.3916 18.3941C16.9547 18.005 16.6125 17.4978 16.4198 16.9006C15.8437 15.1142 16.8248 13.1989 18.6112 12.6228C20.3977 12.0467 22.313 13.0278 22.8891 14.8142C23.4652 16.6006 22.4841 18.5159 20.6977 19.092C19.5084 19.4755 18.262 19.1689 17.3916 18.3941Z" fill="#D66CC1"/>
<path d="M22.7737 17.2044C22.3987 18.0716 21.6675 18.7794 20.6976 19.092C19.0153 19.6344 17.2195 18.7958 16.5342 17.2044H22.7737Z" fill="#C940AE"/>
<path d="M28.8991 25.6799L29.538 20.8349L21.627 19.8692L14.4199 20.8349L15.0588 25.6799L21.8116 26.0431L28.8991 25.6799Z" fill="#E7ABDC"/>
<path d="M28.8994 25.6799L29.5383 20.8349L28.8994 19.8692L27.8986 20.8349L27.2119 26.0436L28.8999 25.6803L28.8994 25.6799Z" fill="#E194D2"/>
<path d="M19.754 16.8711C20.2772 16.8711 20.7013 16.447 20.7013 15.9238C20.7013 15.4005 20.2772 14.9764 19.754 14.9764C19.2308 14.9764 18.8066 15.4005 18.8066 15.9238C18.8066 16.447 19.2308 16.8711 19.754 16.8711Z" fill="#F2D1EC"/>
<path d="M29.9269 20.8344H14.0316C13.8291 20.8344 13.665 20.6703 13.665 20.4678V18.7606C13.665 18.5581 13.8291 18.3941 14.0316 18.3941H29.9269C30.1294 18.3941 30.2935 18.5581 30.2935 18.7606V20.4678C30.2935 20.6703 30.1294 20.8344 29.9269 20.8344Z" fill="#E6A7DA"/>
<path d="M29.9157 18.3936H28.4668C28.6754 18.3936 28.8446 18.5628 28.8446 18.7714V20.4566C28.8446 20.6651 28.6754 20.8344 28.4668 20.8344H29.9157C30.1243 20.8344 30.2935 20.6651 30.2935 20.4566V18.7714C30.2935 18.5628 30.1243 18.3936 29.9157 18.3936Z" fill="#DA7AC7"/>
<path d="M15.0586 25.6798L15.5541 29.4378C15.6323 30.0331 16.14 30.4775 16.74 30.4775H27.217C27.817 30.4775 28.3247 30.0327 28.403 29.4378L28.8984 25.6798H15.0586Z" fill="#D568BF"/>
<path d="M27.2596 25.6798L26.9549 27.9889C26.8766 28.5842 26.3689 29.0286 25.7689 29.0286H15.501L15.5549 29.4378C15.6332 30.0331 16.1408 30.4775 16.7408 30.4775H27.2179C27.8179 30.4775 28.3255 30.0327 28.4038 29.4378L28.8993 25.6798H27.2596Z" fill="#CE52B6"/>
<path d="M18.5433 32.0051C19.387 32.0051 20.0709 31.3212 20.0709 30.4775C20.0709 29.6338 19.387 28.9498 18.5433 28.9498C17.6996 28.9498 17.0156 29.6338 17.0156 30.4775C17.0156 31.3212 17.6996 32.0051 18.5433 32.0051Z" fill="#E6A7DA"/>
<path d="M26.934 30.6262C27.0171 29.7866 26.4038 29.0387 25.5642 28.9556C24.7246 28.8725 23.9766 29.4858 23.8936 30.3254C23.8105 31.165 24.4238 31.913 25.2634 31.9961C26.103 32.0791 26.851 31.4658 26.934 30.6262Z" fill="#E6A7DA"/>
<path d="M25.1728 21.9411L25.1025 21.8966C24.6399 21.6031 24.5025 20.99 24.796 20.5274L32.6091 8.20954C32.7422 7.99954 33.0211 7.9372 33.2311 8.07032L34.2164 8.69516C34.4264 8.82829 34.4888 9.10673 34.3557 9.3172L26.5421 21.635C26.2486 22.0977 25.6355 22.235 25.1728 21.9416V21.9411Z" fill="#DB7FC9"/>
</g>
<defs>
<clipPath id="clip0_2545_2812">
<rect width="24" height="24" fill="white" transform="translate(12 8)"/>
</clipPath>
</defs>
</svg>
