<svg width="48" height="40" viewBox="0 0 48 40" fill="none" xmlns="http://www.w3.org/2000/svg">
<path d="M20.1671 12.3757C20.17 13.1924 19.5111 13.857 18.6944 13.8603H14.5714C13.7608 13.8466 13.1113 13.1858 13.1113 12.3753C13.1113 11.5647 13.7613 10.9039 14.5714 10.8903C14.7009 10.8903 14.8295 10.9082 14.9543 10.944C15.1808 10.2069 15.8619 9.70291 16.6333 9.70291C17.4048 9.70291 18.0859 10.2064 18.3119 10.944C18.4363 10.9082 18.5648 10.8903 18.6944 10.8903C19.5111 10.894 20.1704 11.5586 20.1671 12.3753V12.3757Z" fill="#E2CCBD"/>
<path d="M26.6365 14.8041C26.6714 14.7354 26.742 14.692 26.8193 14.692C26.8965 14.692 26.9671 14.7354 27.002 14.8041L35.1345 30.0753H18.9199L26.6365 14.8041Z" fill="#A46130"/>
<path d="M30.2864 30.0766L20.867 12.2308C20.8305 12.1597 20.7574 12.1148 20.678 12.1148C20.5985 12.1148 20.525 12.1597 20.4884 12.2308L12.0752 30.1794L30.2864 30.0766Z" fill="#CFAB91"/>
<path d="M28.9314 18.4255L28.4741 19.1362L28.3036 19.4024C28.2513 19.5013 28.1576 19.5714 28.0483 19.594C27.9391 19.6166 27.8251 19.5889 27.7379 19.5192L27.1021 19.0119C27.0249 18.9497 26.9255 18.921 26.8271 18.9328C26.7286 18.9446 26.6387 18.9954 26.5779 19.0741L26.2661 19.4443L25.2559 17.5358L26.4074 15.2535L26.6363 14.8041C26.6712 14.7354 26.7418 14.692 26.8191 14.692C26.8963 14.692 26.9669 14.7354 27.0018 14.8041L28.9309 18.4255H28.9314Z" fill="#F0E6DE"/>
<path d="M22.7425 15.7794L22.1315 16.2613L21.0132 17.1471C20.8242 17.302 20.5582 17.3191 20.3506 17.19L18.5225 16.0888L20.2522 12.6951L20.4885 12.2303C20.525 12.1592 20.5981 12.1143 20.678 12.1143C20.7579 12.1143 20.831 12.1592 20.8671 12.2303L22.7425 15.7789V15.7794Z" fill="#F0E6DE"/>
<path d="M35.5504 12.3757C35.5537 13.1924 34.8948 13.857 34.0782 13.8603H29.9552C29.1446 13.8466 28.4951 13.1858 28.4951 12.3753C28.4951 11.5647 29.1451 10.9039 29.9552 10.8903C30.0847 10.8903 30.2133 10.9082 30.3381 10.944C30.5641 10.2069 31.2452 9.70291 32.0167 9.70291C32.7881 9.70291 33.4692 10.2064 33.6952 10.944C33.8196 10.9082 33.9486 10.8903 34.0782 10.8903C34.8948 10.894 35.5537 11.5591 35.5504 12.3753V12.3757Z" fill="#E2CCBD"/>
<path d="M30.2868 30.0766C29.863 30.0761 29.5008 30.0761 29.3118 30.0761L24.6616 21.048L24.2231 20.2177L22.1328 16.2608L22.7438 15.7789L24.645 19.383L25.0836 20.2177L30.2878 30.0761L30.2868 30.0766Z" fill="#C29675"/>
<path d="M22.7423 15.7794L22.1313 16.2613L20.252 12.6951L20.4883 12.2303C20.5248 12.1592 20.5979 12.1143 20.6778 12.1143C20.7577 12.1143 20.8308 12.1592 20.8669 12.2303L22.7423 15.7789V15.7794Z" fill="#E2CCBD"/>
<path d="M35.0227 29.8987C34.9845 29.8921 34.9454 29.8888 34.9063 29.8902H34.1871L28.4736 19.1363L28.931 18.4255L35.0227 29.8987Z" fill="#9A4F1A"/>
<path d="M28.9308 18.4255L28.4734 19.1362L26.4072 15.253L26.6361 14.8037C26.671 14.7349 26.7416 14.6916 26.8189 14.6916C26.8961 14.6916 26.9668 14.7349 27.0016 14.8037L28.9308 18.425V18.4255Z" fill="#E2CCBD"/>
</svg>
