<svg width="48" height="40" viewBox="0 0 48 40" fill="none" xmlns="http://www.w3.org/2000/svg">
<path d="M24.1035 29.9521C29.6695 29.9521 34.1816 25.4409 34.1816 19.8761C34.1816 14.3112 29.6695 9.79999 24.1035 9.79999C18.5375 9.79999 14.0254 14.3112 14.0254 19.8761C14.0254 25.4409 18.5375 29.9521 24.1035 29.9521Z" fill="#9FD198"/>
<path d="M27.3656 10.3398C29.1637 15.6104 26.3482 21.3398 21.0766 23.1375C18.9656 23.8573 16.6758 23.8573 14.5654 23.1375C16.3678 28.4037 22.099 31.2118 27.3656 29.4092C32.6329 27.6072 35.4416 21.8772 33.6386 16.6116C32.6298 13.6637 30.3135 11.3484 27.3656 10.3398Z" fill="#8DC986"/>
<path d="M32.4504 25.5244C33.8099 19.8241 31.1911 16.8521 29.5007 14.8201C28.8673 14.0588 28.3069 13.3842 27.9798 12.7126C29.8625 12.8078 31.2523 13.4986 32.4547 14.2345C32.1566 13.7942 31.8238 13.3786 31.4608 12.9909C30.3184 12.4504 29.1191 12.1091 27.7447 12.075C27.6223 11.5556 27.6433 11.0126 27.8047 10.5037V10.5019C27.6142 10.4264 27.42 10.3565 27.2233 10.2928C27.0334 10.8692 26.9951 11.4851 27.1126 12.0806C26.1607 12.1295 25.2175 12.2909 24.3033 12.5617C23.2036 11.2062 22.1781 10.3998 21.7321 10.0801C21.4662 10.1444 21.2039 10.2186 20.946 10.304L21.1711 10.4456C21.1847 10.4542 22.3525 11.1994 23.6631 12.759C23.023 12.9699 22.0748 13.2784 20.6472 14.2147C19.2667 12.9624 17.6524 12.9111 16.7172 13.0199C16.4927 13.2617 16.2805 13.514 16.0801 13.7769L16.1265 13.762C16.15 13.7546 18.3532 13.0855 20.1227 14.5771C16.578 17.1496 15.1165 20.8104 14.6074 23.2574C14.7373 23.6223 14.8888 23.9797 15.0602 24.3272C15.1264 23.6915 15.8166 18.4117 20.5712 15.0192C21.4049 16.0074 21.1476 17.0494 20.7375 18.7073C20.1555 21.0609 19.3613 24.2734 21.1884 29.5248C21.426 29.5966 21.6672 29.6596 21.9115 29.714C20.0454 24.4936 20.6714 21.5494 21.3375 18.8563C21.7439 17.212 22.0704 15.8887 21.0845 14.6717C22.4682 13.7806 23.4281 13.4819 24.0812 13.279C27.2159 17.3629 26.9815 27.0248 26.8912 29.5416L27.5091 29.3821C27.5876 27.2066 27.9748 17.4798 24.7177 13.096C25.5607 12.8666 26.4273 12.7355 27.3 12.7064C27.6371 13.5468 28.2841 14.326 29.0257 15.2171C30.9326 17.5095 33.3064 20.3627 31.6581 26.1094L32.451 25.5263L32.4504 25.5244Z" fill="#29991A"/>
</svg>
