<svg width="48" height="40" viewBox="0 0 48 40" fill="none" xmlns="http://www.w3.org/2000/svg">
<g clip-path="url(#clip0_2545_1178)">
<path d="M24.2291 11.4262C24.0046 11.4262 23.8223 11.2437 23.8223 11.019V8.40716C23.8223 8.18247 24.0046 8 24.2291 8C24.4537 8 24.636 8.18247 24.636 8.40716V11.019C24.636 11.2437 24.4537 11.4262 24.2291 11.4262Z" fill="#F24429"/>
<path d="M25.856 12.5965V10.8323C25.856 10.6076 25.6736 10.4251 25.4491 10.4251H23.0083C22.7866 10.4251 22.6014 10.6104 22.6014 10.8323V12.5965C17.9843 13.3719 14.4658 17.3896 14.4658 22.2305C14.4658 27.6258 18.8369 32 24.2285 32C29.62 32 33.9911 27.6258 33.9911 22.2305C33.9911 17.3896 30.4727 13.3719 25.8555 12.5965H25.856Z" fill="#F78D7D"/>
<path d="M25.8556 12.8676H22.6016V10.8323C22.6016 10.6076 22.7839 10.4251 23.0084 10.4251H25.4492C25.6738 10.4251 25.8561 10.6076 25.8561 10.8323V12.8676H25.8556Z" fill="#F78D7D"/>
<path d="M23.8222 10.4256H23.0084C22.7839 10.4256 22.6016 10.6081 22.6016 10.8328V12.8681H23.4153V10.8328C23.4153 10.6081 23.5977 10.4256 23.8222 10.4256Z" fill="#F5715C"/>
<path d="M29.8184 17.224C32.3412 18.3277 33.9912 20.1585 33.9912 22.23C33.9912 16.8346 29.6201 12.4605 24.2285 12.4605C26.6037 12.4605 28.6816 14.371 29.8184 17.224Z" fill="#F78D7D"/>
<path d="M29.8184 27.2365C28.6821 30.0894 26.6041 32 24.2285 32C29.6201 32 33.9912 27.6258 33.9912 22.2305C33.9912 24.3024 32.3412 26.1327 29.8184 27.237V27.2365Z" fill="#F6806E"/>
<path d="M18.6386 27.2365C16.1158 26.1328 14.4658 24.3019 14.4658 22.23C14.4658 27.6254 18.8369 31.9995 24.2285 31.9995C21.8533 31.9995 19.7754 30.089 18.6386 27.2365Z" fill="#F78D7D"/>
<path d="M18.6386 17.224C19.7749 14.371 21.8529 12.4605 24.2285 12.4605C18.8369 12.4605 14.4658 16.8346 14.4658 22.23C14.4658 20.1581 16.1158 18.3277 18.6386 17.224Z" fill="#F78D7D"/>
<path d="M29.8184 17.224C30.2355 18.271 30.5257 19.4451 30.6574 20.6985C32.7007 21.0714 33.9916 21.6193 33.9916 22.23C33.9916 20.1581 32.3412 18.3277 29.8188 17.2235L29.8184 17.224Z" fill="#FAAFA3"/>
<path d="M17.8005 20.6985C17.9323 19.4451 18.2224 18.271 18.6396 17.224C16.1168 18.3277 14.4668 20.1586 14.4668 22.2305C14.4668 21.6197 15.7573 21.0719 17.801 20.6989L17.8005 20.6985Z" fill="#FAAFA3"/>
<path d="M30.6574 23.762C30.5262 25.0154 30.2355 26.1895 29.8184 27.2365C32.3412 26.1328 33.9912 24.3019 33.9912 22.23C33.9912 22.8408 32.7002 23.3886 30.657 23.7616L30.6574 23.762Z" fill="#F78D7D"/>
<path d="M18.6391 27.2365C18.2219 26.1895 17.9318 25.0154 17.8 23.762C15.7568 23.3891 14.4658 22.8412 14.4658 22.2305C14.4658 24.3024 16.1163 26.1327 18.6386 27.237L18.6391 27.2365Z" fill="#F5715C"/>
<path d="M30.6572 20.6985C30.7097 21.1976 30.7369 21.7089 30.7369 22.23C30.7369 22.7511 30.7093 23.2624 30.6572 23.7615C32.7005 23.3886 33.9914 22.8407 33.9914 22.23C33.9914 21.6193 32.7005 21.0714 30.6572 20.6985Z" fill="#F6806E"/>
<path d="M17.8 23.762C17.7475 23.2629 17.7204 22.7516 17.7204 22.2305C17.7204 21.7093 17.748 21.198 17.8 20.6989C15.7568 21.0719 14.4658 21.6197 14.4658 22.2305C14.4658 22.8412 15.7563 23.3891 17.8 23.762Z" fill="#F78D7D"/>
<path d="M29.8189 27.2365C28.6507 27.7478 27.2956 28.1029 25.8307 28.2539C25.4586 30.5346 24.8796 32 24.2295 32C26.6046 32 28.6826 30.0894 29.8193 27.2365H29.8189Z" fill="#F9AB9F"/>
<path d="M25.8302 16.2066C27.2955 16.3576 28.6507 16.7127 29.8184 17.224C28.6821 14.371 26.6041 12.4605 24.2285 12.4605C24.8787 12.4605 25.4576 13.9259 25.8298 16.2061L25.8302 16.2066Z" fill="#F9AB9F"/>
<path d="M18.6391 17.224C19.8073 16.7127 21.1624 16.3576 22.6273 16.2066C22.9995 13.9259 23.5784 12.4605 24.2285 12.4605C21.8534 12.4605 19.7754 14.371 18.6387 17.224H18.6391Z" fill="#FAAFA3"/>
<path d="M22.6278 28.2539C21.1625 28.1029 19.8073 27.7473 18.6396 27.2365C19.7759 30.0894 21.8539 32 24.2295 32C23.5793 32 23.0004 30.5346 22.6282 28.2544L22.6278 28.2539Z" fill="#F45941"/>
<path d="M30.6573 20.6985C30.526 19.4451 30.2354 18.271 29.8182 17.224C28.6501 16.7127 27.2949 16.3576 25.8301 16.2065C26.0195 17.3675 26.1559 18.7396 26.2201 20.2373C27.8968 20.3101 29.416 20.4719 30.6573 20.6985Z" fill="#F78D7D"/>
<path d="M22.628 16.2065C21.1627 16.3576 19.8075 16.7127 18.6398 17.224C18.2227 18.271 17.9325 19.4451 17.8008 20.6985C19.042 20.4719 20.5612 20.3096 22.238 20.2373C22.3027 18.7396 22.4386 17.3675 22.628 16.2065Z" fill="#F78D7D"/>
<path d="M17.8008 23.762C17.9325 25.0154 18.2227 26.1895 18.6398 27.2365C19.808 27.7478 21.1631 28.1029 22.628 28.2539C22.4386 27.093 22.3022 25.7209 22.238 24.2231C20.5612 24.1509 19.042 23.9886 17.8008 23.762Z" fill="#F78D7D"/>
<path d="M26.2201 24.2231C26.1554 25.7209 26.0195 27.093 25.8301 28.2539C27.2954 28.1029 28.6505 27.7473 29.8182 27.2365C30.2354 26.1895 30.5255 25.0154 30.6573 23.762C29.416 23.9886 27.8968 24.1509 26.2201 24.2231Z" fill="#FAAFA3"/>
<path d="M22.1944 22.2305C22.1944 21.5475 22.2089 20.8809 22.2366 20.2378C20.5599 20.3105 19.0407 20.4724 17.7994 20.6989C17.7469 21.198 17.7197 21.7093 17.7197 22.2305C17.7197 22.7516 17.7474 23.2629 17.7994 23.762C19.0407 23.9886 20.5599 24.1509 22.2366 24.2231C22.2089 23.5795 22.1944 22.9135 22.1944 22.23V22.2305Z" fill="#F45941"/>
<path d="M26.2629 22.2305C26.2629 22.9135 26.2484 23.58 26.2207 24.2231C27.8974 24.1504 29.4166 23.9886 30.6579 23.762C30.7104 23.2629 30.7376 22.7516 30.7376 22.2305C30.7376 21.7093 30.7099 21.198 30.6579 20.6989C29.4166 20.4724 27.8974 20.3101 26.2207 20.2378C26.2484 20.8814 26.2629 21.548 26.2629 22.2309V22.2305Z" fill="#F9AB9F"/>
<path d="M22.6279 16.2066C23.1492 16.1526 23.684 16.1245 24.2292 16.1245C24.7743 16.1245 25.3096 16.1531 25.8304 16.2066C25.4582 13.9259 24.8793 12.4605 24.2292 12.4605C23.579 12.4605 23.0001 13.9259 22.6279 16.2066Z" fill="#F78D7D"/>
<path d="M25.8304 28.2539C25.3092 28.3079 24.7743 28.336 24.2292 28.336C23.684 28.336 23.1492 28.3074 22.6279 28.2539C23.0001 30.5346 23.579 32 24.2292 32C24.8793 32 25.4582 30.5346 25.8304 28.2539Z" fill="#F78D7D"/>
<path d="M24.229 24.2658C23.5465 24.2658 22.8804 24.2513 22.2373 24.2236C22.302 25.7214 22.4379 27.0934 22.6273 28.2544C23.1486 28.3084 23.6834 28.3365 24.2286 28.3365C24.7737 28.3365 25.309 28.3079 25.8298 28.2544C26.0192 27.0934 26.1556 25.7214 26.2198 24.2236C25.5767 24.2513 24.9111 24.2658 24.2286 24.2658H24.229Z" fill="#F6806E"/>
<path d="M24.2291 20.1951C24.9116 20.1951 25.5777 20.2097 26.2208 20.2373C26.1561 18.7396 26.0202 17.3675 25.8308 16.2065C25.3095 16.1526 24.7747 16.1245 24.2295 16.1245C23.6844 16.1245 23.1495 16.1531 22.6283 16.2065C22.4389 17.3675 22.3025 18.7396 22.2383 20.2373C22.8814 20.2097 23.5475 20.1951 24.2295 20.1951H24.2291Z" fill="#FAAFA3"/>
<path d="M26.2209 20.2373C25.5778 20.2097 24.9117 20.1951 24.2292 20.1951C23.5467 20.1951 22.8806 20.2097 22.2375 20.2373C22.2098 20.8809 22.1953 21.5475 22.1953 22.23C22.1953 22.9125 22.2098 23.5795 22.2375 24.2226C22.8806 24.2503 23.5467 24.2649 24.2292 24.2649C24.9117 24.2649 25.5778 24.2503 26.2205 24.2226C26.2481 23.5791 26.2627 22.9125 26.2627 22.23C26.2627 21.547 26.2481 20.8805 26.2205 20.2373H26.2209Z" fill="#F78D7D"/>
<path d="M15.7629 25.2725C14.9379 24.377 14.4658 23.338 14.4658 22.23C14.4658 27.6254 18.8369 31.9995 24.2285 31.9995C23.6702 31.9995 23.1288 31.8926 22.6118 31.6942C19.3788 30.8653 16.7932 28.4209 15.7629 25.272V25.2725Z" fill="#F5715C"/>
<path d="M15.3147 23.0612C14.7696 22.8074 14.4658 22.5265 14.4658 22.2305C14.4658 23.3384 14.9379 24.377 15.7629 25.2725C15.5322 24.5674 15.3794 23.8267 15.3147 23.0612Z" fill="#F35138"/>
<path d="M15.2801 22.2305C15.2801 21.9504 15.2927 21.6737 15.3157 21.3997C14.7705 21.6535 14.4668 21.9345 14.4668 22.2305C14.4668 22.5264 14.771 22.8074 15.3157 23.0612C15.2927 22.7873 15.2801 22.5105 15.2801 22.2305Z" fill="#F5715C"/>
<path d="M15.7629 19.188C14.9379 20.0835 14.4658 21.1225 14.4658 22.23C14.4658 21.934 14.7696 21.653 15.3147 21.3993C15.3794 20.6337 15.5318 19.893 15.7629 19.188Z" fill="#F78D7D"/>
<path d="M22.6123 12.7659C23.1293 12.5674 23.6707 12.4605 24.2295 12.4605C18.8379 12.4605 14.4668 16.8346 14.4668 22.23C14.4668 21.122 14.9388 20.0835 15.7638 19.188C16.7941 16.0391 19.3798 13.5947 22.6127 12.7659H22.6123Z" fill="#F5715C"/>
<path d="M35.7422 11.2854L33.7148 10.5926L33.1416 8.29738C33.0994 8.12757 32.9466 8.00842 32.7717 8.00842C32.5969 8.00842 32.4441 8.12757 32.4019 8.29738L31.8286 10.5926L29.8013 11.2854C29.647 11.338 29.543 11.4834 29.543 11.6466C29.543 11.8098 29.6466 11.9548 29.8013 12.0078L31.8286 12.7006L32.4019 14.9958C32.4441 15.1656 32.5969 15.2848 32.7717 15.2848C32.9466 15.2848 33.0994 15.1656 33.1416 14.9958L33.7148 12.7006L35.7422 12.0078C35.8964 11.9553 36.0005 11.8098 36.0005 11.6466C36.0005 11.4834 35.8969 11.338 35.7422 11.2854Z" fill="#FDE3DF"/>
<path d="M18.1992 12.9136L16.1719 12.2208L15.5986 9.92558C15.5569 9.75765 15.4017 9.63663 15.2287 9.63663C15.0558 9.63663 14.9006 9.75765 14.8589 9.92558L14.2856 12.2208L12.2583 12.9136C12.1055 12.9657 12 13.1134 12 13.2748C12 13.4362 12.1055 13.5839 12.2583 13.636L14.2856 14.3288L14.8589 16.624C14.9011 16.792 15.0558 16.913 15.2287 16.913C15.4017 16.913 15.5569 16.792 15.5986 16.624L16.1719 14.3288L18.1992 13.636C18.3534 13.5835 18.4575 13.438 18.4575 13.2748C18.4575 13.1116 18.3539 12.9666 18.1992 12.9136Z" fill="#FDE3DF"/>
<path d="M31.7393 27.8819L29.7119 27.1891L29.1386 24.8939C29.0964 24.7241 28.9436 24.6049 28.7688 24.6049C28.5939 24.6049 28.4411 24.7241 28.3989 24.8939L27.8257 27.1891L25.7983 27.8819C25.6441 27.9345 25.54 28.0799 25.54 28.2431C25.54 28.4064 25.6436 28.5518 25.7983 28.6043L27.8257 29.2972L28.3989 31.5924C28.4411 31.7622 28.5939 31.8813 28.7688 31.8813C28.9436 31.8813 29.0964 31.7622 29.1386 31.5924L29.7119 29.2972L31.7393 28.6043C31.8935 28.5518 31.9975 28.4064 31.9975 28.2431C31.9975 28.0799 31.8939 27.9345 31.7393 27.8819Z" fill="#FDE3DF"/>
</g>
<defs>
<clipPath id="clip0_2545_1178">
<rect width="24" height="24" fill="white" transform="translate(12 8)"/>
</clipPath>
</defs>
</svg>
