<svg width="48" height="40" viewBox="0 0 48 40" fill="none" xmlns="http://www.w3.org/2000/svg">
<g clip-path="url(#clip0_2545_2766)">
<path d="M16.6285 11.75H15.0723V9.16859C15.0723 9.06687 15.1548 8.98438 15.2565 8.98438H16.4443C16.546 8.98438 16.6285 9.06687 16.6285 9.16859V11.75Z" fill="#CBDBFF"/>
<path d="M17.3459 15.4259C17.0131 14.6464 16.8416 13.8073 16.8416 12.9598V11.4683C16.8416 11.3572 16.7516 11.2667 16.64 11.2667H15.0598C14.9488 11.2667 14.8583 11.3567 14.8583 11.4683V12.9598C14.8583 13.8073 14.6867 14.6464 14.3539 15.4259C13.85 16.6072 13.5898 17.8784 13.5898 19.1628V19.618L14.5555 21.762L13.5898 24.4559V27.148L15.8492 27.6308L18.1086 27.148V19.1628C18.1086 17.8784 17.8489 16.6072 17.3445 15.4259H17.3459Z" fill="#4882FF"/>
<path d="M17.3459 15.4259C17.013 14.6464 16.8415 13.8073 16.8415 12.9598V11.4683C16.8415 11.3572 16.7515 11.2667 16.6399 11.2667H15.3926V12.9594C15.3926 13.8069 15.5641 14.6459 15.897 15.4255C16.4009 16.6067 16.661 17.878 16.661 19.1623V27.1475L17.3852 27.6303L18.1095 27.1475V19.1623C18.1095 17.878 17.8498 16.6067 17.3454 15.4255L17.3459 15.4259Z" fill="#3877FF"/>
<path d="M13.5918 19.618H18.1105V24.4559H13.5918V19.618Z" fill="#D2E0FF"/>
<path d="M16.6611 19.618H18.11V24.4559H16.6611V19.618Z" fill="#BFD3FF"/>
<path d="M27.3616 17.6992C27.4276 17.2871 27.147 16.8996 26.7349 16.8337C26.3228 16.7677 25.9353 17.0483 25.8694 17.4604C25.8034 17.8725 26.0841 18.26 26.4961 18.3259C26.9082 18.3919 27.2957 18.1112 27.3616 17.6992Z" fill="#3575FF"/>
<path d="M33.6782 26.1912V24.7658C33.6782 20.9684 30.6 17.8906 26.8031 17.8906H26.4445C22.6471 17.8906 19.5693 20.9689 19.5693 24.7658V26.1912H33.6782Z" fill="#AAC5FF"/>
<path d="M32.2294 24.7658V26.1912H33.6783V24.7658C33.6783 20.9684 30.6 17.8906 26.8032 17.8906H26.4446C26.2613 17.8906 26.0794 17.8981 25.8994 17.9122C29.4418 18.1902 32.2294 21.1522 32.2294 24.7662V24.7658Z" fill="#90B3FF"/>
<path d="M34.7875 27.1592L26.4489 27.642L18.1104 27.1592V26.6286C18.1104 25.9044 18.6977 25.317 19.4219 25.317H33.4755C34.1997 25.317 34.7871 25.9044 34.7871 26.6286V27.1592H34.7875Z" fill="#3575FF"/>
<path d="M33.4753 25.317H32.0264C32.7506 25.317 33.3379 25.9044 33.3379 26.6286V27.1592L34.0589 27.642L34.7868 27.1592V26.6286C34.7868 25.9044 34.1995 25.317 33.4753 25.317Z" fill="#125DFF"/>
<path d="M18.1104 28.2687C17.9102 28.2687 17.748 28.1066 17.748 27.9064V20.6141C17.748 20.4139 17.9102 20.2517 18.1104 20.2517C18.3105 20.2517 18.4727 20.4139 18.4727 20.6141V27.9064C18.4727 28.1066 18.3105 28.2687 18.1104 28.2687Z" fill="#C6D8FF"/>
<path d="M15.0437 21.7616H14.5567C14.3565 21.7616 14.1943 21.5994 14.1943 21.3992C14.1943 21.1991 14.3565 21.0369 14.5567 21.0369H15.0442C15.2443 21.0369 15.4065 21.1991 15.4065 21.3992C15.4065 21.5994 15.2443 21.7616 15.0442 21.7616H15.0437Z" fill="#B1CAFF"/>
<path d="M16.1785 23.2752H14.5557C14.3555 23.2752 14.1934 23.113 14.1934 22.9128C14.1934 22.7127 14.3555 22.5505 14.5557 22.5505H16.1785C16.3787 22.5505 16.5409 22.7127 16.5409 22.9128C16.5409 23.113 16.3787 23.2752 16.1785 23.2752Z" fill="#B1CAFF"/>
<path d="M35.3011 31.0109L34.1255 30.8216C33.3802 30.7016 32.6203 30.7016 31.875 30.8216L31.1255 30.942C30.3802 31.062 29.6203 31.062 28.875 30.942L28.1255 30.8216C27.3802 30.7016 26.6203 30.7016 25.875 30.8216L25.1255 30.942C24.3802 31.062 23.6203 31.062 22.875 30.942L22.1255 30.8216C21.3802 30.7016 20.6203 30.7016 19.875 30.8216L19.1255 30.942C18.3802 31.062 17.6203 31.062 16.875 30.942L16.1255 30.8216C15.3802 30.7016 14.6203 30.7016 13.875 30.8216L12.6994 31.0109C12.3323 31.07 12 30.7869 12 30.4152V28.4216C12 27.7184 12.57 27.148 13.2736 27.148H34.7269C35.43 27.148 36.0005 27.718 36.0005 28.4216V30.4152C36.0005 30.7869 35.6681 31.07 35.3011 31.0109Z" fill="#F1F5FF"/>
<path d="M34.7262 27.1484H33.2773C33.9805 27.1484 34.5509 27.7184 34.5509 28.422V30.4156C34.5509 30.5928 34.4745 30.7498 34.3555 30.8591L35.3005 31.0114C35.6675 31.0705 35.9998 30.7873 35.9998 30.4156V28.422C35.9998 27.7189 35.4298 27.1484 34.7262 27.1484Z" fill="#DBE7FF"/>
<path d="M29.9698 29.4172C29.7696 29.4172 29.6074 29.5794 29.6074 29.7795V31.0212C29.8488 31.0348 30.0902 31.0358 30.3316 31.0241V29.7795C30.3316 29.5794 30.1695 29.4172 29.9693 29.4172H29.9698Z" fill="#DBE7FF"/>
<path d="M18.0303 29.4172C17.8302 29.4172 17.668 29.5794 17.668 29.7795V31.0241C17.9094 31.0353 18.1512 31.0344 18.3922 31.0212V29.7795C18.3922 29.5794 18.23 29.4172 18.0298 29.4172H18.0303Z" fill="#DBE7FF"/>
<path d="M24 29.4172C23.7999 29.4172 23.6377 29.5794 23.6377 29.7795V31.0226C23.8791 31.0348 24.1205 31.0348 24.3619 31.0226V29.7795C24.3619 29.5794 24.1997 29.4172 23.9996 29.4172H24Z" fill="#DBE7FF"/>
<path d="M18.1101 21.0974C16.9251 21.0974 16.005 20.0647 16.1414 18.8872L16.5028 15.7681C16.5276 15.5544 16.7085 15.3927 16.9242 15.3927H19.297C19.5121 15.3927 19.6935 15.5539 19.7184 15.7681L20.0798 18.8872C20.2162 20.0642 19.296 21.0974 18.111 21.0974H18.1101Z" fill="#F1F5FF"/>
<path d="M20.0792 18.8872L19.7178 15.7681C19.6929 15.5544 19.512 15.3927 19.2964 15.3927H17.8475C18.0626 15.3927 18.244 15.5539 18.2689 15.7681L18.6303 18.8872C18.7371 19.8092 18.1953 20.6431 17.3857 20.961C17.6093 21.0486 17.8536 21.0974 18.11 21.0974C19.295 21.0974 20.2151 20.0647 20.0787 18.8872H20.0792Z" fill="#E5EDFF"/>
<path d="M19.9284 17.5869H16.2918L16.1414 18.8877C16.005 20.0647 16.9251 21.0978 18.1101 21.0978C19.2951 21.0978 20.2153 20.0647 20.0789 18.8877L19.9284 17.5869Z" fill="#8BB0FF"/>
<path d="M20.0792 18.8872L19.9287 17.5864H18.4798L18.6303 18.8872C18.7371 19.8092 18.1953 20.6431 17.3857 20.9609C17.6093 21.0486 17.8536 21.0973 18.11 21.0973C19.295 21.0973 20.2151 20.0647 20.0787 18.8872H20.0792Z" fill="#6A99FF"/>
</g>
<defs>
<clipPath id="clip0_2545_2766">
<rect width="24" height="24" fill="white" transform="translate(12 8)"/>
</clipPath>
</defs>
</svg>
