<svg width="48" height="40" viewBox="0 0 48 40" fill="none" xmlns="http://www.w3.org/2000/svg">
<g clip-path="url(#clip0_2545_2755)">
<path d="M36 19.149C36 20.3527 35.513 21.4433 34.7255 22.2323C33.938 23.0214 32.8496 23.5098 31.6482 23.5098H27.4008L25.0683 22.1342L22.2919 23.5098H16.3519C13.9486 23.5098 12.5339 21.4485 12.5339 19.0405C12.5339 18.0457 12.3333 17.2365 12.8939 16.5029C12.9708 16.4014 13.0524 16.3042 13.1377 16.2107C13.9435 17.7296 15.54 18.7667 17.3738 18.7667H30.6272C32.4605 18.7667 34.0571 17.7292 34.8633 16.2107C34.9482 16.3042 35.0297 16.4014 35.1071 16.5029C35.6677 17.2365 36.0005 18.1537 36.0005 19.149H36Z" fill="#FEC68E"/>
<path d="M20.5996 18.6746H27.4012V23.5098H20.5996V18.6746Z" fill="#FEBF80"/>
<path d="M20.5996 18.6746H21.6684V23.5098H20.5996V18.6746Z" fill="#FEB164"/>
<path d="M17.4206 23.5094H16.3519C13.9481 23.5094 12 21.5569 12 19.149C12 18.1542 12.3328 17.2365 12.8934 16.5029C12.9703 16.4019 13.0519 16.3047 13.1372 16.2107C13.282 16.4836 13.4527 16.7414 13.6448 16.98C13.2778 17.6193 13.0688 18.3595 13.0688 19.149C13.0688 21.5569 15.0169 23.5094 17.4202 23.5094H17.4206Z" fill="#FEB770"/>
<path d="M33.9193 15.4292C33.8068 15.3602 33.6606 15.4203 33.6282 15.5485C33.49 16.0999 33.204 16.5921 32.8154 16.9824C32.2553 17.5437 31.4814 17.8907 30.6268 17.8907H17.3734C16.0642 17.8907 14.9448 17.0759 14.4925 15.9247C14.4446 15.8031 14.0781 16.0792 14.0457 15.951C14.0134 15.8228 14.2103 15.742 14.0978 15.811C13.8039 15.9914 13.6862 15.9684 13.4434 16.2112C13.307 16.3479 13.0107 16.3493 12.8936 16.5029C13.5831 18.3087 15.3315 19.5942 17.3734 19.5942H30.6268C32.6687 19.5942 34.4171 18.3087 35.1067 16.5029C34.7809 16.0759 34.3782 15.711 33.9193 15.4292Z" fill="#FFDDBB"/>
<path d="M14.372 15.549C14.3396 15.4208 14.1943 15.3597 14.0818 15.4283C13.7879 15.6086 13.5175 15.8228 13.2746 16.0656C13.1382 16.2023 13.0107 16.3483 12.8936 16.5024C13.0253 16.8481 13.1964 17.1745 13.4003 17.4765C13.6206 16.9448 13.9436 16.4662 14.3434 16.0656C14.3921 16.0168 14.4414 15.9698 14.4925 15.9238C14.4446 15.8021 14.4043 15.6767 14.372 15.5485V15.549Z" fill="#FED6AE"/>
<path d="M22.3895 22.1482C22.2995 22.1482 22.2095 22.114 22.1411 22.0449C22.0037 21.9073 22.0037 21.6842 22.1411 21.5466L30.9175 12.753C31.0548 12.6154 31.2775 12.6154 31.4148 12.753C31.5522 12.8906 31.5522 13.1137 31.4148 13.2513L22.638 22.0454C22.5695 22.114 22.4795 22.1487 22.3895 22.1487V22.1482Z" fill="#FFDEBE"/>
<path d="M22.5457 24.6741L19.9169 27.3076C19.8438 27.3813 19.7252 27.3813 19.6516 27.3076L16.8879 24.5384C16.8147 24.4651 16.8147 24.3463 16.8879 24.273L19.5166 21.6391C20.2666 20.8872 21.483 20.8872 22.233 21.6391L22.5124 21.9186C22.5124 21.9186 22.5133 21.9195 22.5133 21.92L22.5457 21.9519C23.2957 22.7039 23.2957 23.9222 22.5457 24.6741Z" fill="#FFDDBB"/>
<path d="M22.7186 22.1628C21.9682 21.626 20.9191 21.695 20.2455 22.3695L17.6172 25.0034C17.5436 25.0766 17.5436 25.1955 17.6172 25.2692L16.8879 24.5384C16.8147 24.4651 16.8147 24.3463 16.8879 24.273L19.5166 21.6391C20.2666 20.8872 21.483 20.8872 22.233 21.6391L22.5124 21.9186C22.5124 21.9186 22.5133 21.9195 22.5133 21.92C22.5902 21.9966 22.6582 22.0778 22.7186 22.1628Z" fill="#FED6AE"/>
</g>
<defs>
<clipPath id="clip0_2545_2755">
<rect width="24" height="24" fill="white" transform="translate(12 8)"/>
</clipPath>
</defs>
</svg>
