<svg width="48" height="40" viewBox="0 0 48 40" fill="none" xmlns="http://www.w3.org/2000/svg">
<g clip-path="url(#clip0_2545_1217)">
<path d="M12.4155 20.7013L12.4155 19.3522C12.4155 19.085 12.6317 18.8684 12.8983 18.8684L35.7418 18.8684C36.0084 18.8684 36.2246 19.085 36.2246 19.3522L36.2246 20.7013C36.2246 20.9685 36.0084 21.1851 35.7418 21.1851L12.8983 21.1851C12.6317 21.1851 12.4155 20.9685 12.4155 20.7013Z" fill="#E7E8F0"/>
<path d="M28.6836 18.8684L28.6836 21.1851L27.3253 21.1851L27.3253 18.8684L28.6836 18.8684Z" fill="#BBC0D5"/>
<path d="M28.6842 24.3455L28.6842 15.7079C28.6842 14.7544 29.4559 13.9812 30.4075 13.9812C31.3591 13.9812 32.1309 14.7544 32.1309 15.7079L32.1309 24.3455C32.1309 25.299 31.3591 26.0722 30.4075 26.0722C29.4559 26.0722 28.6842 25.299 28.6842 24.3455Z" fill="#45518B"/>
<path d="M34.4014 22.0898L34.4014 17.9636C34.4014 17.2308 33.8084 16.6367 33.0771 16.6367L32.1301 16.6367L32.1301 23.4167L33.0771 23.4167C33.8084 23.4167 34.4014 22.8225 34.4014 22.0898Z" fill="#5D689A"/>
<path d="M19.957 24.3455L19.957 15.7079C19.957 14.7544 19.1853 13.9812 18.2337 13.9812C17.2821 13.9812 16.5104 14.7544 16.5104 15.7079L16.5104 24.3455C16.5104 25.299 17.2821 26.0722 18.2337 26.0722C19.1853 26.0722 19.957 25.299 19.957 24.3455Z" fill="#45518B"/>
<path d="M32.1309 24.3455L32.1309 22.8941C32.1309 23.8476 31.3591 24.6208 30.4075 24.6208C29.4559 24.6208 28.6842 23.8476 28.6842 22.8941L28.6842 24.3455C28.6842 25.299 29.4559 26.0722 30.4075 26.0722C31.3591 26.0722 32.1309 25.299 32.1309 24.3455Z" fill="#0E1D69"/>
<path d="M19.957 24.3455L19.957 22.8941C19.957 23.8476 19.1853 24.6208 18.2337 24.6208C17.2821 24.6208 16.5104 23.8476 16.5104 22.8941L16.5104 24.3455C16.5104 25.299 17.2821 26.0722 18.2337 26.0722C19.1853 26.0722 19.957 25.299 19.957 24.3455Z" fill="#0E1D69"/>
<path d="M14.238 22.0898L14.238 17.9636C14.238 17.2308 14.831 16.6367 15.5623 16.6367L16.5098 16.6367L16.5098 23.4167L15.5623 23.4167C14.831 23.4167 14.238 22.8225 14.238 22.0898Z" fill="#5D689A"/>
<path d="M34.4014 22.0899L34.4014 20.6385C34.4014 21.3712 33.8084 21.9654 33.0771 21.9654L32.1301 21.9654L32.1301 23.4173L33.0771 23.4173C33.8084 23.4173 34.4014 22.8232 34.4014 22.0905L34.4014 22.0899Z" fill="#45518B"/>
<path d="M16.5098 21.9648L15.5623 21.9648C14.831 21.9648 14.238 21.3706 14.238 20.6379L14.238 22.0892C14.238 22.8219 14.831 23.4161 15.5623 23.4161L16.5098 23.4161L16.5098 21.9642L16.5098 21.9648Z" fill="#45518B"/>
</g>
<defs>
<clipPath id="clip0_2545_1217">
<rect width="24" height="24" fill="white" transform="translate(12 8)"/>
</clipPath>
</defs>
</svg>
