<svg width="48" height="40" viewBox="0 0 48 40" fill="none" xmlns="http://www.w3.org/2000/svg">
<path d="M30.9744 18.2422V15.655C30.9744 15.2326 30.6288 14.7244 30.2069 14.5247L21.6493 10.4849C21.2269 10.2856 20.8818 10.4682 20.8818 10.89V13.4773L25.9284 16.8748L30.9749 18.2417L30.9744 18.2422Z" fill="#F1DC54"/>
<path d="M27.8949 29.1968C25.3149 29.6531 24.6832 27.8801 24.814 27.5979C25.1913 26.782 26.0929 26.1832 27.3974 25.9523C28.3986 25.7753 29.4209 25.9461 30.1149 26.1259C30.638 26.2617 30.4755 28.7404 27.8955 29.1968H27.8949Z" fill="#F1DC54"/>
<path d="M18.6635 24.8381C16.0834 25.2945 15.4518 23.5214 15.5825 23.2392C15.9599 22.4234 16.8614 21.8245 18.1659 21.5936C19.1671 21.4166 20.1894 21.5875 20.8834 21.7672C21.4066 21.903 21.244 24.3818 18.664 24.8381H18.6635Z" fill="#F1DC54"/>
<path d="M30.9749 18.2422L20.8818 13.4778V21.7672C20.8818 23.2526 19.8828 24.2004 18.5622 24.4335C17.196 24.6751 16.0312 24.1052 15.5815 23.2392C15.4513 23.5214 15.3828 23.8297 15.3828 24.1581C15.3828 25.4342 16.8064 26.4648 18.5622 26.1537C20.318 25.8426 21.7416 24.5109 21.7416 22.0433V15.6032L30.1145 19.5556V26.1254C30.1145 27.6107 29.1155 28.5585 27.7949 28.7917C26.4287 29.0332 25.2639 28.4633 24.8142 27.5974C24.684 27.8795 24.6155 28.1878 24.6155 28.5162C24.6155 29.7923 26.0391 30.823 27.7949 30.5119C29.5507 30.2008 30.9743 28.869 30.9743 26.4014V18.2417L30.9749 18.2422Z" fill="#EBCB00"/>
<path d="M33.734 23.0895C34.134 23.0895 34.4582 22.7653 34.4582 22.3653C34.4582 21.9653 34.134 21.6411 33.734 21.6411C33.334 21.6411 33.0098 21.9653 33.0098 22.3653C33.0098 22.7653 33.334 23.0895 33.734 23.0895Z" fill="#F1DC54"/>
<path d="M18.0611 12.1709C18.4611 12.1709 18.7854 11.8467 18.7854 11.4467C18.7854 11.0467 18.4611 10.7225 18.0611 10.7225C17.6612 10.7225 17.3369 11.0467 17.3369 11.4467C17.3369 11.8467 17.6612 12.1709 18.0611 12.1709Z" fill="#F1DC54"/>
<path d="M15.8883 28.2697C16.2883 28.2697 16.6125 27.9455 16.6125 27.5455C16.6125 27.1455 16.2883 26.8213 15.8883 26.8213C15.4883 26.8213 15.1641 27.1455 15.1641 27.5455C15.1641 27.9455 15.4883 28.2697 15.8883 28.2697Z" fill="#F1DC54"/>
<path d="M31.1151 10.1084C30.1865 10.1084 28.1943 9.41235 27.974 9.95657C27.8277 10.3175 27.7907 10.7263 27.8924 11.1327C28.3007 12.7611 29.6502 13.0424 32.2631 14.2616C33.9918 11.9534 35.0493 11.0694 34.641 9.44048C34.6345 9.4147 34.6274 9.38891 34.6199 9.36313C34.3326 8.39001 32.0437 10.108 31.1151 10.108V10.1084Z" fill="#EBCB00"/>
<path d="M32.3326 8.05766C31.697 8.21703 31.2165 8.67922 31.0074 9.25157C30.5527 8.84563 29.9115 8.66469 29.2759 8.82407C28.6627 8.97782 28.1949 9.41282 27.9746 9.95657C28.464 11.3483 29.8037 11.6652 32.2632 12.8131C33.4534 11.2245 34.3248 10.3105 34.6196 9.36407C34.3323 8.39094 33.3259 7.80875 32.3326 8.05813V8.05766Z" fill="#F1DC54"/>
<path d="M13.3371 14.5719C13.0038 15.9017 13.8673 16.6241 15.2787 18.5084C17.4124 17.5128 18.5144 17.2831 18.8477 15.9533C18.9429 15.5745 18.8899 15.193 18.7249 14.87C18.6087 14.6417 17.4358 15.0317 15.9729 14.9061C14.9623 14.8194 13.5152 14.0834 13.3999 14.375C13.3751 14.4383 13.3535 14.5039 13.3366 14.5714L13.3371 14.5719Z" fill="#EBCB00"/>
<path d="M17.7185 14.0684C17.1991 13.9381 16.6755 14.0862 16.3043 14.4176C16.1332 13.9503 15.7413 13.573 15.222 13.4426C14.4574 13.2509 13.6835 13.6625 13.4004 14.3755C13.6774 15.1034 14.3623 15.8366 15.2782 17.06C17.1996 16.1633 18.2838 15.8876 18.7245 14.8705C18.5276 14.4842 18.1713 14.1819 17.718 14.068L17.7185 14.0684Z" fill="#F1DC54"/>
<path d="M19.9304 29.9202C19.7542 30.6228 20.2102 31.0044 20.9565 32C22.0838 31.4741 22.666 31.3527 22.8423 30.65C22.9018 30.4123 22.8512 30.1733 22.7232 29.9862C22.614 29.8269 22.052 30.1766 21.4988 30.1766C20.9457 30.1766 20.1854 29.4041 20.0096 29.7214C19.9759 29.7823 19.9492 29.8489 19.9313 29.9202H19.9304Z" fill="#EBCB00"/>
<path d="M22.2457 29.6539C21.9715 29.585 21.6949 29.6633 21.4985 29.8386C21.408 29.5916 21.2013 29.3924 20.9266 29.3234C20.5577 29.2311 20.1855 29.4045 20.0098 29.7219C20.178 30.0734 20.517 30.447 20.9566 31.0344C21.8993 30.5942 22.4609 30.4372 22.7224 29.9867C22.6132 29.8274 22.4482 29.705 22.2457 29.6544V29.6539Z" fill="#F1DC54"/>
<path d="M32.5747 28.3906C32.3745 28.3906 32.2123 28.2284 32.2123 28.0283V27.1606L31.5195 26.8761C31.3344 26.8002 31.2462 26.5888 31.3222 26.4036C31.3981 26.2184 31.6095 26.1303 31.7947 26.2063L32.2123 26.3778V25.8074C32.2123 25.6072 32.3745 25.445 32.5747 25.445C32.7748 25.445 32.937 25.6072 32.937 25.8074V26.675L33.6298 26.9595C33.815 27.0355 33.9031 27.2469 33.8272 27.432C33.7512 27.6172 33.5398 27.7053 33.3547 27.6294L32.937 27.4578V28.0283C32.937 28.2284 32.7748 28.3906 32.5747 28.3906Z" fill="#EBCB00"/>
</svg>
