<svg width="48" height="40" viewBox="0 0 48 40" fill="none" xmlns="http://www.w3.org/2000/svg">
<path d="M24 14.0445C23.7999 14.0445 23.6377 13.8823 23.6377 13.6822V10.5945C23.6377 10.3944 23.7999 10.2322 24 10.2322C24.2002 10.2322 24.3624 10.3944 24.3624 10.5945V13.6822C24.3624 13.8823 24.2002 14.0445 24 14.0445Z" fill="#F8D7E3"/>
<path d="M27.3254 21.515L26.8009 20.5827L24.0001 16.8514L21.1993 20.5827L20.6748 21.515L24.0001 25.1038L27.3254 21.515Z" fill="#FFCBDE"/>
<path d="M20.6752 21.515L14.7773 32H17.6105L24.0009 25.1038L20.6756 21.515H20.6752Z" fill="#FFB1CE"/>
<path d="M24 25.1038L30.3905 32H33.2236L27.3258 21.515L24.0005 25.1038H24Z" fill="#FFB1CE"/>
<path d="M17.6094 32H30.3903L23.9998 25.1038L17.6094 32Z" fill="#FF92BA"/>
<path d="M18 8H30V9.70109H18V8Z" fill="#F8D7E3"/>
<path d="M28.2002 8H30.1319V9.70109H28.2002V8Z" fill="#F5C8D9"/>
<path d="M23.9995 11.5606C23.2102 11.5606 22.5703 10.9208 22.5703 10.1314V9.70062H25.4287V10.1314C25.4287 10.9208 24.7889 11.5606 23.9995 11.5606Z" fill="#DB306E"/>
<path d="M26.36 18.3003V15.0767C26.36 13.7731 25.3034 12.7166 23.9998 12.7166C22.6962 12.7166 21.6396 13.7731 21.6396 15.0767V18.2548L26.36 18.3003Z" fill="#DB306E"/>
<path d="M23.9998 12.7166C23.6557 12.7166 23.329 12.7911 23.0342 12.9233C23.8559 13.2922 24.4287 14.1172 24.4287 15.0767V18.2816L26.3604 18.3003V15.0767C26.3604 13.7731 25.3039 12.7166 24.0003 12.7166H23.9998Z" fill="#D92365"/>
<path d="M20.9443 18.3125C20.9443 17.5053 22.3121 16.8514 23.9996 16.8514C25.6871 16.8514 27.055 17.5058 27.055 18.3125V19.858C27.055 19.0508 25.6871 18.3969 23.9996 18.3969C22.3121 18.3969 20.9443 19.0513 20.9443 19.858V18.3125Z" fill="#DF487F"/>
<path d="M23.9996 21.3097C25.6871 21.3097 27.055 20.6555 27.055 19.8486C27.055 19.0417 25.6871 18.3875 23.9996 18.3875C22.3122 18.3875 20.9443 19.0417 20.9443 19.8486C20.9443 20.6555 22.3122 21.3097 23.9996 21.3097Z" fill="#E87DA4"/>
</svg>
