<svg width="31" height="40" viewBox="0 0 31 40" fill="none" xmlns="http://www.w3.org/2000/svg">
<g clip-path="url(#clip0_2545_1244)">
<path d="M13.5155 13.648H12.3961C12.1772 13.648 12 13.8252 12 14.0441V28.5294C12 28.7478 12.1772 28.9255 12.3961 28.9255H23.0138C23.0695 29.1688 23.2866 29.3506 23.5472 29.3506H24.532C24.7922 29.3506 25.0097 29.1688 25.0655 28.9255H35.6044C35.8233 28.9255 36.0005 28.7483 36.0005 28.5294V14.0441C36.0005 13.8252 35.8233 13.648 35.6044 13.648H34.485V27.5984C34.485 27.7484 34.3434 27.8595 34.1939 27.8281C33.2648 27.6317 32.3053 27.2675 31.0556 26.6234C28.4737 25.2931 26.3053 26.0075 25.08 26.6933C25.0327 26.7224 24.4214 27.0561 24.0009 27.4545C23.7506 27.2159 23.2537 26.8766 23.0006 26.7383C21.7908 26.0399 19.5844 25.2645 16.9462 26.6234C15.6966 27.2675 14.737 27.6317 13.808 27.8281C13.658 27.86 13.5169 27.7484 13.5169 27.5984V13.648" fill="#4DB2B4"/>
<path d="M13.4489 13.648H12.3961C12.1772 13.648 12 13.8252 12 14.0441V28.5294C12 28.7478 12.1772 28.9255 12.3961 28.9255H13.4489V13.648Z" fill="#2DAEB1"/>
<path d="M34.3386 26.7566C33.4095 26.5555 32.3052 26.1824 31.0555 25.5238C27.0242 23.398 23.9609 26.3952 23.9609 26.3952L24.0008 27.6959C24.0008 27.6959 27.0242 24.7878 31.0555 26.8649C32.3052 27.5089 33.4095 27.8731 34.3386 28.0695C34.4886 28.1014 34.6297 27.9899 34.6297 27.8399V26.5217C34.6297 26.675 34.4881 26.7889 34.3386 26.7566Z" fill="#D5EDED"/>
<path d="M25.4801 25.3841C24.5215 25.8453 23.96 26.3947 23.96 26.3947L23.9998 27.6955C23.9998 27.6955 24.545 27.1714 25.4801 26.727V25.3841Z" fill="#BFE4E4"/>
<path d="M16.9453 25.5237C15.6956 26.1828 14.5912 26.5559 13.6622 26.7566C13.5122 26.7889 13.3711 26.675 13.3711 26.5217V27.8398C13.3711 27.9898 13.5127 28.1009 13.6622 28.0695C14.5912 27.8731 15.6956 27.5089 16.9453 26.8648C20.9766 24.7878 24 27.6959 24 27.6959V26.3745C24 26.3745 20.9766 23.3984 16.9453 25.5242V25.5237Z" fill="#D5EDED"/>
<path d="M14.82 26.4388C14.4089 26.5747 14.0222 26.6788 13.6622 26.757C13.5122 26.7894 13.3711 26.6755 13.3711 26.5222V27.8403C13.3711 27.9903 13.5127 28.1014 13.6622 28.07C14.0222 27.9941 14.4089 27.8923 14.82 27.7592V26.4392V26.4388Z" fill="#BFE4E4"/>
<path d="M34.4377 12.6917C33.4885 12.4963 32.3495 12.1203 31.0548 11.4378C27.0235 9.31204 23.9785 12.3092 23.9785 12.3092L24.0001 26.3745C24.0001 26.3745 27.0235 23.3984 31.0548 25.5242C32.3045 26.1833 33.4088 26.5564 34.3379 26.757C34.4879 26.7894 34.629 26.6755 34.629 26.5222V12.9266C34.629 12.8127 34.5493 12.7147 34.4373 12.6917H34.4377Z" fill="#E8F5F5"/>
<path d="M25.4804 11.3033C24.5326 11.7636 23.9785 12.3088 23.9785 12.3088L24.0001 26.3745C24.0001 26.3745 24.5452 25.8383 25.4804 25.3836V11.3033Z" fill="#D5EDED"/>
<path d="M32.5467 15.4583C31.9987 15.2506 31.44 14.997 30.8859 14.705C28.7161 13.5608 26.8589 13.9883 25.6832 14.5484C25.5028 14.6347 25.2867 14.5578 25.2004 14.3773C25.1142 14.1969 25.1911 13.9808 25.3715 13.8945C26.6971 13.2631 28.7882 12.7798 31.2234 14.0642C31.7512 14.3427 32.2828 14.5841 32.8031 14.7809C32.9901 14.8517 33.0843 15.0608 33.0131 15.2478C32.9423 15.4348 32.7332 15.5291 32.5462 15.4578L32.5467 15.4583Z" fill="#D5EDED"/>
<path d="M32.5467 17.248C31.9987 17.0403 31.44 16.7867 30.8859 16.4947C28.7161 15.3505 26.8589 15.778 25.6832 16.3381C25.5028 16.4244 25.2867 16.3475 25.2004 16.167C25.1142 15.9866 25.1911 15.7705 25.3715 15.6842C26.6971 15.0528 28.7882 14.5695 31.2234 15.8539C31.7512 16.1323 32.2828 16.3737 32.8031 16.5706C32.9901 16.6414 33.0843 16.8505 33.0131 17.0375C32.9423 17.2245 32.7332 17.3187 32.5462 17.2475L32.5467 17.248Z" fill="#D5EDED"/>
<path d="M32.5467 19.0377C31.9987 18.83 31.44 18.5764 30.8859 18.2844C28.7161 17.1402 26.8589 17.5677 25.6832 18.1278C25.5028 18.2136 25.2867 18.1372 25.2004 17.9567C25.1142 17.7763 25.1911 17.5602 25.3715 17.4739C26.6971 16.8425 28.7882 16.3592 31.2234 17.6436C31.7512 17.922 32.2828 18.163 32.8031 18.3603C32.9901 18.4311 33.0843 18.6402 33.0131 18.8272C32.9423 19.0142 32.7332 19.1084 32.5462 19.0372L32.5467 19.0377Z" fill="#D5EDED"/>
<path d="M32.5467 20.8278C31.9987 20.6202 31.44 20.3666 30.8859 20.0745C28.7161 18.9303 26.8589 19.3578 25.6832 19.918C25.5028 20.0042 25.2867 19.9274 25.2004 19.7469C25.1142 19.5664 25.1911 19.3503 25.3715 19.2641C26.6971 18.6327 28.7882 18.1494 31.2234 19.4338C31.7517 19.7122 32.2828 19.9536 32.8031 20.1505C32.9901 20.2213 33.0843 20.4303 33.0131 20.6174C32.9423 20.8044 32.7332 20.8986 32.5462 20.8274L32.5467 20.8278Z" fill="#D5EDED"/>
<path d="M32.5467 22.6175C31.9992 22.4098 31.44 22.1562 30.8859 21.8642C28.7161 20.72 26.8589 21.1475 25.6832 21.7077C25.5028 21.7934 25.2867 21.717 25.2004 21.5366C25.1142 21.3561 25.1911 21.14 25.3715 21.0537C26.6971 20.4223 28.7882 19.9391 31.2234 21.2234C31.7517 21.5019 32.2832 21.7433 32.8031 21.9402C32.9901 22.0109 33.0843 22.22 33.0131 22.407C32.9423 22.5936 32.7337 22.6883 32.5462 22.6175H32.5467Z" fill="#D5EDED"/>
<path d="M32.5467 24.4072C31.9987 24.1995 31.44 23.946 30.8859 23.6539C28.7161 22.5097 26.8589 22.9372 25.6832 23.4974C25.5028 23.5831 25.2867 23.5067 25.2004 23.3263C25.1142 23.1453 25.1911 22.9297 25.3715 22.8435C26.6967 22.212 28.7882 21.7288 31.2234 23.0131C31.7512 23.2916 32.2828 23.5325 32.8031 23.7299C32.9901 23.8011 33.0843 24.0102 33.0136 24.1967C32.9423 24.3838 32.7332 24.478 32.5467 24.4072Z" fill="#D5EDED"/>
<path d="M13.5623 12.6917C14.5116 12.4963 15.6506 12.1203 16.9453 11.4378C20.9766 9.31204 24 12.2881 24 12.2881V26.3745C24 26.3745 20.9766 23.3984 16.9453 25.5242C15.6956 26.1833 14.5912 26.5564 13.6622 26.757C13.5122 26.7894 13.3711 26.6755 13.3711 26.5222V12.9266C13.3711 12.8127 13.4508 12.7147 13.5628 12.6917H13.5623Z" fill="#E8F5F5"/>
<path d="M14.82 12.3519C14.3709 12.5009 13.9509 12.6116 13.5628 12.6912C13.4513 12.7142 13.3711 12.8122 13.3711 12.9261V26.5217C13.3711 26.675 13.5127 26.7889 13.6622 26.7566C14.0222 26.6787 14.4089 26.5747 14.82 26.4383V12.3519Z" fill="#D5EDED"/>
<path d="M15.0655 15.2478C14.9948 15.0608 15.089 14.8517 15.276 14.7809C15.7963 14.5836 16.3279 14.3427 16.8557 14.0642C19.2908 12.7798 21.3824 13.2631 22.7076 13.8945C22.8885 13.9808 22.9649 14.1969 22.8787 14.3773C22.7929 14.5578 22.5763 14.6347 22.3958 14.5484C21.2198 13.9883 19.363 13.5608 17.1932 14.705C16.6391 14.997 16.0804 15.2506 15.5324 15.4583C15.3454 15.5291 15.1363 15.4353 15.0655 15.2483V15.2478Z" fill="#D5EDED"/>
<path d="M15.0655 17.0375C14.9948 16.8505 15.089 16.6414 15.276 16.5706C15.7963 16.3733 16.3279 16.1323 16.8557 15.8539C19.2908 14.57 21.3824 15.0528 22.7076 15.6842C22.8885 15.7705 22.9649 15.9865 22.8787 16.167C22.7929 16.3475 22.5763 16.4244 22.3958 16.3381C21.2198 15.778 19.363 15.3505 17.1932 16.4947C16.6391 16.7867 16.0804 17.0403 15.5324 17.248C15.3454 17.3187 15.1363 17.225 15.0655 17.0375Z" fill="#D5EDED"/>
<path d="M15.0655 18.8277C14.9948 18.6406 15.089 18.4316 15.276 18.3608C15.7963 18.1634 16.3279 17.9225 16.8557 17.6441C19.2908 16.3597 21.3824 16.843 22.7076 17.4744C22.8885 17.5606 22.9649 17.7767 22.8787 17.9572C22.7929 18.1377 22.5763 18.2145 22.3958 18.1283C21.2198 17.5681 19.363 17.1406 17.1932 18.2848C16.6391 18.5769 16.0804 18.8305 15.5324 19.0381C15.3454 19.1089 15.1363 19.0147 15.0655 18.8281V18.8277Z" fill="#D5EDED"/>
<path d="M15.0655 20.6174C14.9948 20.4303 15.089 20.2213 15.276 20.1505C15.7963 19.9531 16.3279 19.7122 16.8557 19.4338C19.2908 18.1494 21.3824 18.6327 22.7076 19.2641C22.8885 19.3503 22.9649 19.5664 22.8787 19.7469C22.7929 19.9274 22.5763 20.0042 22.3958 19.918C21.2198 19.3578 19.363 18.9303 17.1932 20.0745C16.6391 20.3666 16.0804 20.6202 15.5324 20.8278C15.3454 20.8986 15.1363 20.8044 15.0655 20.6174Z" fill="#D5EDED"/>
<path d="M15.0655 22.407C14.9948 22.22 15.089 22.0109 15.276 21.9402C15.7958 21.7433 16.3274 21.5019 16.8557 21.2234C19.2908 19.9391 21.3824 20.4223 22.7076 21.0537C22.8885 21.14 22.9649 21.3561 22.8787 21.5366C22.7929 21.717 22.5763 21.7939 22.3958 21.7077C21.2198 21.1475 19.363 20.72 17.1932 21.8642C16.6391 22.1567 16.0799 22.4098 15.5324 22.6175C15.3454 22.6887 15.1363 22.5941 15.0655 22.4075V22.407Z" fill="#D5EDED"/>
<path d="M15.0648 24.1967C14.9935 24.0097 15.0882 23.8006 15.2748 23.7299C15.7951 23.5325 16.3266 23.2916 16.8544 23.0131C19.2901 21.7288 21.3812 22.212 22.7063 22.8435C22.8868 22.9297 22.9637 23.1458 22.8774 23.3263C22.7912 23.5072 22.5751 23.5836 22.3946 23.4974C21.219 22.9372 19.3618 22.5097 17.1919 23.6539C16.6379 23.946 16.0791 24.1995 15.5312 24.4072C15.3441 24.4785 15.1351 24.3842 15.0643 24.1972L15.0648 24.1967Z" fill="#D5EDED"/>
<path d="M24.2994 27.4456C24.1222 27.5816 23.8766 27.5802 23.6994 27.4442C23.5311 27.3153 23.2953 27.1494 23 26.9787V28.8022C23 29.1045 23.2452 29.3497 23.5475 29.3497H24.5323C24.8347 29.3497 25.0798 29.1045 25.0798 28.8022V26.9337C24.7466 27.1203 24.4831 27.3045 24.2998 27.4452L24.2994 27.4456Z" fill="#2DAEB1"/>
<path d="M24.4409 28.8027V27.3406C24.3898 27.3777 24.342 27.4128 24.2994 27.4456C24.1222 27.5816 23.8766 27.5802 23.6994 27.4442C23.5311 27.3153 23.2953 27.1494 23 26.9792V28.8027C23 29.105 23.2452 29.3502 23.5475 29.3502H24.5323C24.6139 29.3502 24.6908 29.3319 24.7606 29.3C24.5722 29.2137 24.4414 29.0239 24.4414 28.8027H24.4409Z" fill="#2BA4A6"/>
</g>
<defs>
<clipPath id="clip0_2545_1244">
<rect width="24" height="24" fill="white" transform="translate(12 8)"/>
</clipPath>
</defs>
</svg>
