<svg width="48" height="40" viewBox="0 0 48 40" fill="none" xmlns="http://www.w3.org/2000/svg">
<path d="M34.1644 30.1992H23.3082C22.9398 30.1992 22.6406 29.8971 22.6406 29.5252C22.6406 29.1533 22.9398 28.8512 23.3082 28.8512H34.1644C34.5328 28.8512 34.832 29.1533 34.832 29.5252C34.832 29.8971 34.5328 30.1992 34.1644 30.1992Z" fill="#786DEF"/>
<path d="M23.3082 30.2C28.8988 30.2 33.4309 25.6365 33.4309 20.007C33.4309 14.3776 28.8988 9.81406 23.3082 9.81406C17.7176 9.81406 13.1855 14.3776 13.1855 20.007C13.1855 25.6365 17.7176 30.2 23.3082 30.2Z" fill="#BEB9F8"/>
<path d="M23.3088 16.7507C24.6842 16.7507 25.7993 15.6281 25.7993 14.2433C25.7993 12.8585 24.6842 11.7359 23.3088 11.7359C21.9334 11.7359 20.8184 12.8585 20.8184 14.2433C20.8184 15.6281 21.9334 16.7507 23.3088 16.7507Z" fill="#786DEF"/>
<path d="M29.5214 20.6086C28.2136 21.0369 26.8084 20.3158 26.3833 18.9998C25.9582 17.683 26.6742 16.2686 27.9819 15.8403C29.2897 15.412 30.6941 16.1331 31.12 17.4499C31.5451 18.7668 30.8291 20.1812 29.5214 20.6095V20.6086Z" fill="#786DEF"/>
<path d="M24.6597 26.1402C23.8512 25.0202 24.0971 23.4518 25.2098 22.6382C26.3225 21.8237 27.8794 22.0719 28.6879 23.1918C29.4964 24.3118 29.2505 25.8793 28.1378 26.6938C27.0251 27.5083 25.4682 27.2601 24.6597 26.1402Z" fill="#786DEF"/>
<path d="M17.9316 23.1952C18.7392 22.0744 20.2962 21.8262 21.4097 22.639C22.5224 23.4526 22.7699 25.0202 21.9615 26.141C21.153 27.2618 19.5969 27.51 18.4833 26.6963C17.3706 25.8827 17.1231 24.3151 17.9316 23.1952Z" fill="#786DEF"/>
<path d="M18.6343 15.8428C19.9421 16.2703 20.6589 17.6839 20.2346 19.0015C19.8104 20.3183 18.406 21.0403 17.0974 20.6128C15.7897 20.1854 15.0729 18.771 15.4971 17.4541C15.9213 16.1373 17.3258 15.4162 18.6343 15.8428Z" fill="#786DEF"/>
<path opacity="0.1" d="M22.6228 14.2433C22.6228 13.1789 23.2813 12.2702 24.2106 11.9067C23.9306 11.7973 23.6264 11.7367 23.308 11.7367C21.9327 11.7367 20.8184 12.8592 20.8184 14.2441C20.8184 15.6291 21.9336 16.7516 23.308 16.7516C23.6264 16.7516 23.9306 16.691 24.2106 16.5816C23.2813 16.2173 22.6228 15.3085 22.6228 14.245V14.2433Z" fill="black"/>
<path opacity="0.1" d="M20.2885 26.6963C19.1758 25.8827 18.9282 24.3151 19.7367 23.1952C20.0292 22.7896 20.4193 22.4993 20.8502 22.331C19.8209 21.9271 18.6115 22.2528 17.9322 23.1952C17.1245 24.3159 17.3713 25.8835 18.484 26.6963C19.1941 27.2155 20.0859 27.3013 20.8477 27.0043C20.6527 26.9277 20.4652 26.8259 20.2885 26.6963Z" fill="black"/>
<path opacity="0.1" d="M17.3017 17.4533C17.5417 16.7086 18.0951 16.1541 18.7678 15.8908C18.7236 15.874 18.6794 15.8571 18.6344 15.8428C17.3258 15.4154 15.9214 16.1365 15.4972 17.4541C15.0729 18.771 15.7889 20.1854 17.0975 20.6128C17.6659 20.7988 18.2518 20.7668 18.7686 20.5649C17.5459 20.0878 16.8924 18.7264 17.3025 17.455L17.3017 17.4533Z" fill="black"/>
<path d="M22.6097 21.355C21.8096 20.9452 21.492 19.9599 21.8988 19.1547C22.3063 18.3494 23.2848 18.0288 24.085 18.4394C24.8843 18.8492 25.2027 19.8345 24.7951 20.6406C24.3875 21.4458 23.409 21.7664 22.6089 21.3558L22.6097 21.355Z" fill="#786DEF"/>
</svg>
