<svg width="48" height="40" viewBox="0 0 48 40" fill="none" xmlns="http://www.w3.org/2000/svg">
<g clip-path="url(#clip0_2545_2833)">
<path d="M31.2068 26.3363C31.1163 27.0553 30.8219 27.7218 30.3489 28.276C29.8286 28.8856 29.141 29.3018 28.361 29.4807C28.0858 29.5432 27.8088 29.5746 27.5327 29.5746C27.0255 29.5746 26.523 29.469 26.0486 29.26C24.2093 28.4498 22.1027 28.4423 20.2586 29.2383L20.2094 29.26C19.4768 29.5826 18.6771 29.6592 17.8966 29.4802C17.1166 29.3018 16.4289 28.8852 15.9091 28.276C15.4361 27.7209 15.1422 27.0544 15.0518 26.3363C15.1207 25.7962 15.3082 25.2791 15.6068 24.8122L18.2093 20.7444C19.2888 19.0564 21.1282 18.0485 23.1293 18.0485C25.1304 18.0485 26.9693 19.0564 28.0493 20.7444L30.6518 24.8117C30.9504 25.2791 31.1379 25.7966 31.2068 26.3363Z" fill="#FF8D5C"/>
<path d="M31.2276 26.3434C31.1728 27.1437 30.8685 28.6118 30.3487 29.221C29.8284 29.8306 29.1407 30.2472 28.3607 30.4257C28.0856 30.4881 27.8085 30.5196 27.5324 30.5196C27.0252 30.5196 26.5227 30.4139 26.0484 30.2049C24.209 29.3948 22.1024 29.3872 20.2584 30.1833L20.2092 30.2049C19.4765 30.5276 18.6768 30.6041 17.8963 30.4252C17.1163 30.2467 16.4287 29.8301 15.9088 29.221C15.389 28.6109 15.0853 27.1428 15.0304 26.343C15.0135 26.0969 15.194 25.64 15.2249 25.4C15.3154 26.1181 15.4359 26.9977 15.9088 27.5528C16.4287 28.162 17.1163 28.5786 17.8963 28.7571C18.6768 28.936 19.4765 28.8594 20.2092 28.5368L20.2584 28.5152C22.1024 27.7191 24.209 27.7266 26.0484 28.5368C26.5228 28.7458 27.0253 28.8515 27.5324 28.8515C27.8085 28.8515 28.0856 28.82 28.3607 28.7575C29.1407 28.5786 29.8284 28.1625 30.3487 27.5528C30.8217 26.9986 30.8695 26.1186 30.9599 25.4C30.9909 25.6395 31.2445 26.0973 31.2276 26.3434Z" fill="#FFBA9C"/>
<path d="M17.9633 18.979C17.6698 19.8164 17.0816 20.441 16.3072 20.7393C15.9913 20.8614 15.6645 20.9192 15.3383 20.9192C14.3422 20.9192 13.3545 20.3786 12.7109 19.473C13.2434 19.8497 13.8598 20.0592 14.48 20.0592C14.8058 20.0592 15.133 20.001 15.4489 19.8793C16.2233 19.5811 16.8111 18.9559 17.105 18.119C17.3844 17.3224 17.3619 16.423 17.0403 15.5866C16.9217 15.278 16.767 14.9905 16.5823 14.7303C17.1664 15.1418 17.6267 15.7392 17.8986 16.4465C18.2202 17.283 18.2431 18.1824 17.9633 18.979Z" fill="#FFBA9C"/>
<path d="M17.1052 18.119C16.8113 18.9559 16.2235 19.5811 15.4491 19.8793C15.1332 20.001 14.806 20.0592 14.4802 20.0592C13.86 20.0592 13.2436 19.8497 12.7111 19.473C12.5297 19.2175 12.3755 18.9325 12.2565 18.6229C11.5782 16.8547 12.2921 14.9295 13.8469 14.3307C14.6199 14.032 15.4744 14.101 16.2521 14.5246C16.366 14.5866 16.4766 14.6557 16.5825 14.7303C16.7672 14.9905 16.9219 15.278 17.0405 15.5865C17.3621 16.423 17.3846 17.3224 17.1052 18.119Z" fill="#FF8D5C"/>
<path d="M24.8825 13.528C24.8825 15.084 24.1048 16.4366 22.97 17.1059C22.4863 17.3915 21.9378 17.5526 21.357 17.5526C21.2178 17.5526 21.08 17.5432 20.945 17.5249C19.1947 17.2914 17.832 15.588 17.832 13.528C17.832 13.3951 17.8377 13.2636 17.8489 13.1339C18.0233 15.1685 19.5303 16.764 21.357 16.764C23.1838 16.764 24.6912 15.1685 24.8656 13.1339C24.8769 13.2636 24.8825 13.3951 24.8825 13.528Z" fill="#FFBA9C"/>
<path d="M24.8654 13.1339C24.691 15.1685 23.1839 16.764 21.3568 16.764C19.5296 16.764 18.023 15.1685 17.8486 13.1339C18.0225 11.0989 19.5296 9.50293 21.3568 9.50293C23.1839 9.50293 24.6914 11.0989 24.8654 13.1339Z" fill="#FF8D5C"/>
<path d="M30.9408 17.3994C30.2677 18.2082 29.3189 18.6882 28.3529 18.6882C28.0491 18.6882 27.7439 18.6403 27.4449 18.5412C25.7508 17.9767 24.8935 15.9482 25.5333 14.0188C25.8024 13.2072 26.3002 12.5154 26.9504 12.0415C26.6302 12.4271 26.3785 12.8803 26.213 13.3791C25.5732 15.3085 26.4305 17.337 28.1246 17.9015C28.4236 18.0011 28.7288 18.0485 29.0325 18.0485C29.7061 18.0485 30.3713 17.8151 30.9408 17.3994Z" fill="#FFBA9C"/>
<path d="M31.6791 16.0656C31.5108 16.5714 31.2563 17.0214 30.9408 17.3994C30.3713 17.8151 29.7061 18.0485 29.0325 18.0485C28.7288 18.0485 28.4236 18.0011 28.1246 17.9015C26.4305 17.337 25.5732 15.3085 26.213 13.3791C26.3785 12.8803 26.6302 12.4271 26.9504 12.0415C27.0329 11.9814 27.1177 11.9245 27.2049 11.8715C28.0158 11.3792 28.9257 11.2623 29.7671 11.5427C30.608 11.8226 31.2671 12.4618 31.6229 13.3425C31.9627 14.1836 31.9824 15.1507 31.6791 16.0656Z" fill="#FF8D5C"/>
<path d="M35.0589 22.8819C34.3535 23.6902 33.3822 24.1265 32.4452 24.1265C31.855 24.1265 31.278 23.9537 30.79 23.5911C29.4513 22.5982 29.276 20.5519 30.3991 19.0301C30.7169 18.5999 31.105 18.2571 31.5288 18.0096C31.4594 18.0885 31.3928 18.1711 31.3291 18.2575C30.206 19.7797 30.3818 21.8256 31.72 22.8185C32.2085 23.1811 32.785 23.3539 33.3757 23.3539C33.9663 23.3539 34.5302 23.1919 35.0589 22.8819Z" fill="#FFBA9C"/>
<path d="M35.2605 22.633C35.1968 22.7194 35.1298 22.8025 35.0595 22.8819C34.5307 23.1919 33.9471 23.3539 33.3762 23.3539C32.8052 23.3539 32.209 23.1811 31.7205 22.8185C30.3823 21.8256 30.2065 19.7797 31.3296 18.2575C31.3934 18.1711 31.4599 18.0885 31.5293 18.0096C32.6041 17.3793 33.9073 17.3591 34.8687 18.0711H34.8696C36.2079 19.0649 36.3837 21.1108 35.2605 22.633Z" fill="#FF8D5C"/>
</g>
<defs>
<clipPath id="clip0_2545_2833">
<rect width="24" height="24" fill="white" transform="translate(12 8)"/>
</clipPath>
</defs>
</svg>
